<?xml version="1.0" encoding="UTF-8" standalone="no"?>
<svg
   xmlns:dc="http://purl.org/dc/elements/1.1/"
   xmlns:cc="http://creativecommons.org/ns#"
   xmlns:rdf="http://www.w3.org/1999/02/22-rdf-syntax-ns#"
   xmlns:svg="http://www.w3.org/2000/svg"
   xmlns="http://www.w3.org/2000/svg"
   xmlns:sodipodi="http://sodipodi.sourceforge.net/DTD/sodipodi-0.dtd"
   xmlns:inkscape="http://www.inkscape.org/namespaces/inkscape"
   width="202.31589mm"
   height="308.88754mm"
   viewBox="0 0 202.31589 308.88754"
   version="1.1"
   id="svg8"
   inkscape:version="1.0.1 (0767f8302a, 2020-10-17)"
   sodipodi:docname="kwiatek1.svg">
  <defs
     id="defs2" />
  <sodipodi:namedview
     id="base"
     pagecolor="#ffffff"
     bordercolor="#666666"
     borderopacity="1.0"
     inkscape:pageopacity="0.0"
     inkscape:pageshadow="2"
     inkscape:zoom="0.35"
     inkscape:cx="292.00167"
     inkscape:cy="476.25013"
     inkscape:document-units="mm"
     inkscape:current-layer="layer1"
     inkscape:document-rotation="0"
     showgrid="false"
     inkscape:window-width="1920"
     inkscape:window-height="1043"
     inkscape:window-x="1920"
     inkscape:window-y="0"
     inkscape:window-maximized="1" />
  <metadata
     id="metadata5">
    <rdf:RDF>
      <cc:Work
         rdf:about="">
        <dc:format>image/svg+xml</dc:format>
        <dc:type
           rdf:resource="http://purl.org/dc/dcmitype/StillImage" />
        <dc:title />
      </cc:Work>
    </rdf:RDF>
  </metadata>
  <g
     inkscape:label="Warstwa 1"
     inkscape:groupmode="layer"
     id="layer1"
     transform="translate(-4.6753862,6.2771065)">
    <path
       id="path894"
       style="color:#000000;font-style:normal;font-variant:normal;font-weight:normal;font-stretch:normal;font-size:medium;line-height:normal;font-family:sans-serif;font-variant-ligatures:normal;font-variant-position:normal;font-variant-caps:normal;font-variant-numeric:normal;font-variant-alternates:normal;font-variant-east-asian:normal;font-feature-settings:normal;font-variation-settings:normal;text-indent:0;text-align:start;text-decoration:none;text-decoration-line:none;text-decoration-style:solid;text-decoration-color:#000000;letter-spacing:normal;word-spacing:normal;text-transform:none;writing-mode:lr-tb;direction:ltr;text-orientation:mixed;dominant-baseline:auto;baseline-shift:baseline;text-anchor:start;white-space:normal;shape-padding:0;shape-margin:0;inline-size:0;clip-rule:nonzero;display:inline;overflow:visible;visibility:visible;isolation:auto;mix-blend-mode:normal;color-interpolation:sRGB;color-interpolation-filters:linearRGB;solid-color:#000000;solid-opacity:1;vector-effect:none;fill:#447821;fill-opacity:1;fill-rule:nonzero;stroke:#241c1c;stroke-width:1.72659;stroke-linecap:butt;stroke-linejoin:miter;stroke-miterlimit:4;stroke-dasharray:none;stroke-dashoffset:0;stroke-opacity:1;color-rendering:auto;image-rendering:auto;shape-rendering:auto;text-rendering:auto;enable-background:accumulate;stop-color:#000000"
       sodipodi:type="inkscape:offset"
       inkscape:radius="0.66145802"
       inkscape:original="M 66.632812 3.8046875 L 56.957031 11.205078 L 98.392578 59.546875 L 106.25 148.9375 L 120.20898 148.9375 L 120.10938 147.98438 L 110.3125 54.931641 L 66.632812 3.8046875 z M 66.382812 6.1699219 L 108.65234 55.644531 L 118.29102 147.21094 L 107.83203 147.21094 L 100.0625 58.84375 L 59.455078 11.466797 L 66.382812 6.1699219 z "
       transform="matrix(1.0033375,0,0,0.89067971,18.600753,72.775174)"
       d="m 66.587891,3.1445312 a 0.66152416,0.66152416 0 0 0 -0.357422,0.1347657 l -9.675781,7.4003911 a 0.66152416,0.66152416 0 0 0 -0.09961,0.955078 l 41.296875,48.18164 7.839847,89.179684 a 0.66152416,0.66152416 0 0 0 0.6582,0.60352 h 13.95898 a 0.66152416,0.66152416 0 0 0 0.65821,-0.73047 l -0.0996,-0.95312 -9.79688,-93.052739 a 0.66152416,0.66152416 0 0 0 -0.15625,-0.361328 L 67.134766,3.375 A 0.66152416,0.66152416 0 0 0 66.587891,3.1445312 Z m -0.300782,3.9316407 41.728511,48.8417971 9.54102,90.630861 h -9.11914 l -7.7168,-87.763674 a 0.66152416,0.66152416 0 0 0 -0.15625,-0.371094 L 60.412109,11.568359 Z" />
    <path
       id="path952"
       style="color:#000000;font-style:normal;font-variant:normal;font-weight:normal;font-stretch:normal;font-size:medium;line-height:normal;font-family:sans-serif;font-variant-ligatures:normal;font-variant-position:normal;font-variant-caps:normal;font-variant-numeric:normal;font-variant-alternates:normal;font-variant-east-asian:normal;font-feature-settings:normal;font-variation-settings:normal;text-indent:0;text-align:start;text-decoration:none;text-decoration-line:none;text-decoration-style:solid;text-decoration-color:#000000;letter-spacing:normal;word-spacing:normal;text-transform:none;writing-mode:lr-tb;direction:ltr;text-orientation:mixed;dominant-baseline:auto;baseline-shift:baseline;text-anchor:start;white-space:normal;shape-padding:0;shape-margin:0;inline-size:0;clip-rule:nonzero;display:inline;overflow:visible;visibility:visible;isolation:auto;mix-blend-mode:normal;color-interpolation:sRGB;color-interpolation-filters:linearRGB;solid-color:#000000;solid-opacity:1;vector-effect:none;fill:#447821;fill-opacity:1;fill-rule:nonzero;stroke:#241c1c;stroke-width:1.72659;stroke-linecap:butt;stroke-linejoin:miter;stroke-miterlimit:4;stroke-dasharray:none;stroke-dashoffset:0;stroke-opacity:1;color-rendering:auto;image-rendering:auto;shape-rendering:auto;text-rendering:auto;enable-background:accumulate;stop-color:#000000"
       sodipodi:type="inkscape:offset"
       inkscape:radius="0.66145802"
       inkscape:original="M 66.632812 3.8046875 L 56.957031 11.205078 L 98.392578 59.546875 L 106.25 148.9375 L 120.20898 148.9375 L 120.10938 147.98438 L 110.3125 54.931641 L 66.632812 3.8046875 z M 66.382812 6.1699219 L 108.65234 55.644531 L 118.29102 147.21094 L 107.83203 147.21094 L 100.0625 58.84375 L 59.455078 11.466797 L 66.382812 6.1699219 z "
       transform="matrix(1.0033375,0,0,0.89067971,18.600753,72.775174)"
       d="m 66.587891,3.1445312 a 0.66152416,0.66152416 0 0 0 -0.357422,0.1347657 l -9.675781,7.4003911 a 0.66152416,0.66152416 0 0 0 -0.09961,0.955078 l 41.296875,48.18164 7.839847,89.179684 a 0.66152416,0.66152416 0 0 0 0.6582,0.60352 h 13.95898 a 0.66152416,0.66152416 0 0 0 0.65821,-0.73047 l -0.0996,-0.95312 -9.79688,-93.052739 a 0.66152416,0.66152416 0 0 0 -0.15625,-0.361328 L 67.134766,3.375 A 0.66152416,0.66152416 0 0 0 66.587891,3.1445312 Z m -0.300782,3.9316407 41.728511,48.8417971 9.54102,90.630861 h -9.11914 l -7.7168,-87.763674 a 0.66152416,0.66152416 0 0 0 -0.15625,-0.371094 L 60.412109,11.568359 Z" />
    <g
       id="g871"
       transform="matrix(1.0033375,0,0,0.89067971,14.618758,88.09301)"
       style="stroke:#241c1c;stroke-opacity:1">
      <path
         id="path853"
         style="fill:#5aa02c;stroke:#241c1c;stroke-width:1.32292;stroke-opacity:1"
         d="m 190.9136,38.196634 c 3.00318,7.328745 -36.18057,19.016749 -41.80417,20.372917 -38.28647,9.233029 -38.05463,-9.773763 -41.80416,-20.372917 -3.55396,-10.046318 9.93862,-27.729416 41.80416,-20.372917 13.4454,3.104015 37.76033,10.504639 41.80417,20.372917 z"
         sodipodi:nodetypes="sssss" />
      <path
         style="fill:none;fill-opacity:1;stroke:#241c1c;stroke-width:1.32292;stroke-linecap:butt;stroke-linejoin:miter;stroke-miterlimit:4;stroke-dasharray:none;stroke-opacity:1"
         d="m 117.88861,39.519551 20.10833,-1.058333 6.26334,-15.328407"
         id="path856"
         sodipodi:nodetypes="ccc" />
      <path
         style="fill:none;fill-opacity:1;stroke:#241c1c;stroke-width:1.32292;stroke-linecap:butt;stroke-linejoin:miter;stroke-miterlimit:4;stroke-dasharray:none;stroke-opacity:1"
         d="m 171.31124,29.001199 -8.69963,9.822154 -24.6957,-0.374177 8.88671,10.383422"
         id="path860"
         sodipodi:nodetypes="cccc" />
      <path
         style="fill:#447821;fill-opacity:1;stroke:#241c1c;stroke-width:1.32292;stroke-linecap:butt;stroke-linejoin:miter;stroke-miterlimit:4;stroke-dasharray:none;stroke-opacity:1"
         d="m 162.485,38.778932 c 0.37418,0 17.77342,3.367596 17.77342,3.367596"
         id="path862" />
      <path
         style="fill:none;fill-opacity:1;stroke:#241c1c;stroke-width:1.32292;stroke-linecap:butt;stroke-linejoin:miter;stroke-miterlimit:4;stroke-dasharray:none;stroke-opacity:1"
         d="m 153.43292,29.083394 -3.27406,9.635067 16.27672,8.044812"
         id="path864" />
    </g>
    <g
       id="g888"
       transform="matrix(-0.7169015,0.62313579,0.7019532,0.63640564,174.35893,50.024753)"
       style="stroke:#241c1c;stroke-opacity:1">
      <path
         id="path878"
         style="fill:#5aa02c;stroke:#241c1c;stroke-width:1.32292;stroke-opacity:1"
         d="m 190.9136,38.196634 c 3.00318,7.328745 -36.18057,19.016749 -41.80417,20.372917 -38.28647,9.233029 -38.05463,-9.773763 -41.80416,-20.372917 -3.55396,-10.046318 9.93862,-27.729416 41.80416,-20.372917 13.4454,3.104015 37.76033,10.504639 41.80417,20.372917 z"
         sodipodi:nodetypes="sssss" />
      <path
         style="fill:none;fill-opacity:1;stroke:#241c1c;stroke-width:1.32292;stroke-linecap:butt;stroke-linejoin:miter;stroke-miterlimit:4;stroke-dasharray:none;stroke-opacity:1"
         d="m 117.88861,39.519551 20.10833,-1.058333 6.26334,-15.328407"
         id="path880"
         sodipodi:nodetypes="ccc" />
      <path
         style="fill:none;fill-opacity:1;stroke:#241c1c;stroke-width:1.32292;stroke-linecap:butt;stroke-linejoin:miter;stroke-miterlimit:4;stroke-dasharray:none;stroke-opacity:1"
         d="m 171.31124,29.001199 -8.69963,9.822154 -24.6957,-0.374177 8.88671,10.383422"
         id="path882"
         sodipodi:nodetypes="cccc" />
      <path
         style="fill:#447821;fill-opacity:1;stroke:#241c1c;stroke-width:1.32292;stroke-linecap:butt;stroke-linejoin:miter;stroke-miterlimit:4;stroke-dasharray:none;stroke-opacity:1"
         d="m 162.485,38.778932 c 0.37418,0 17.77342,3.367596 17.77342,3.367596"
         id="path884" />
      <path
         style="fill:none;fill-opacity:1;stroke:#241c1c;stroke-width:1.32292;stroke-linecap:butt;stroke-linejoin:miter;stroke-miterlimit:4;stroke-dasharray:none;stroke-opacity:1"
         d="m 153.43292,29.083394 -3.27406,9.635067 16.27672,8.044812"
         id="path886" />
    </g>
    <path
       style="color:#000000;font-style:normal;font-variant:normal;font-weight:normal;font-stretch:normal;font-size:medium;line-height:normal;font-family:sans-serif;font-variant-ligatures:normal;font-variant-position:normal;font-variant-caps:normal;font-variant-numeric:normal;font-variant-alternates:normal;font-variant-east-asian:normal;font-feature-settings:normal;font-variation-settings:normal;text-indent:0;text-align:start;text-decoration:none;text-decoration-line:none;text-decoration-style:solid;text-decoration-color:#000000;letter-spacing:normal;word-spacing:normal;text-transform:none;writing-mode:lr-tb;direction:ltr;text-orientation:mixed;dominant-baseline:auto;baseline-shift:baseline;text-anchor:start;white-space:normal;shape-padding:0;shape-margin:0;inline-size:0;clip-rule:nonzero;display:inline;overflow:visible;visibility:visible;isolation:auto;mix-blend-mode:normal;color-interpolation:sRGB;color-interpolation-filters:linearRGB;solid-color:#000000;solid-opacity:1;vector-effect:none;fill:#5aa02c;fill-opacity:1;fill-rule:nonzero;stroke:#241c1c;stroke-width:1.6322;stroke-linecap:butt;stroke-linejoin:miter;stroke-miterlimit:4;stroke-dasharray:none;stroke-dashoffset:0;stroke-opacity:1;color-rendering:auto;image-rendering:auto;shape-rendering:auto;text-rendering:auto;enable-background:accumulate;stop-color:#000000"
       d="m 138.2486,204.66261 -9.79966,-82.64363 -43.118522,-44.801548 -8.329715,5.654567 41.158597,42.626711 7.83973,79.1639 z"
       id="path892" />
    <path
       style="color:#000000;font-style:normal;font-variant:normal;font-weight:normal;font-stretch:normal;font-size:medium;line-height:normal;font-family:sans-serif;font-variant-ligatures:normal;font-variant-position:normal;font-variant-caps:normal;font-variant-numeric:normal;font-variant-alternates:normal;font-variant-east-asian:normal;font-feature-settings:normal;font-variation-settings:normal;text-indent:0;text-align:start;text-decoration:none;text-decoration-line:none;text-decoration-style:solid;text-decoration-color:#000000;letter-spacing:normal;word-spacing:normal;text-transform:none;writing-mode:lr-tb;direction:ltr;text-orientation:mixed;dominant-baseline:auto;baseline-shift:baseline;text-anchor:start;white-space:normal;shape-padding:0;shape-margin:0;inline-size:0;clip-rule:nonzero;display:inline;overflow:visible;visibility:visible;isolation:auto;mix-blend-mode:normal;color-interpolation:sRGB;color-interpolation-filters:linearRGB;solid-color:#000000;solid-opacity:1;vector-effect:none;fill:#5aa02c;fill-opacity:1;fill-rule:nonzero;stroke:#5aa02c;stroke-width:1.6322;stroke-linecap:butt;stroke-linejoin:miter;stroke-miterlimit:4;stroke-dasharray:none;stroke-dashoffset:0;stroke-opacity:1;color-rendering:auto;image-rendering:auto;shape-rendering:auto;text-rendering:auto;enable-background:accumulate;stop-color:#000000"
       d="m 138.2486,204.66261 -9.79966,-82.64363 -43.118522,-44.801548 -8.329715,5.654567 41.158597,42.626711 7.83973,79.1639 z"
       id="path978" />
    <path
       id="rect2174"
       style="fill:#483737;fill-opacity:0.48;stroke:none;stroke-width:1.57044;stroke-miterlimit:4;stroke-dasharray:none;stroke-opacity:1"
       d="m 102.95797,107.38442 a 1.0902011,0.96779005 0 0 0 -0.0441,4.8e-4 1.0902011,0.96779005 0 0 0 -0.76374,0.31528 l -1.29777,1.26667 a 1.0902011,0.96779005 0 0 0 -0.0207,1.28185 l 14.94025,15.45776 a 1.0902011,0.96779005 0 0 0 1.52177,0.11461 l 1.21378,13.92827 3.90111,0.42529 -2.02677,-19.09021 -3.23537,0.80317 -13.35524,-14.15657 a 1.0902011,0.96779005 0 0 0 -0.83321,-0.34659 z" />
    <path
       id="path2289"
       style="fill:#483737;fill-opacity:0.48;stroke:none;stroke-width:2.04543;stroke-miterlimit:4;stroke-dasharray:none;stroke-opacity:1"
       d="m 125.06515,168.74029 -3.32477,2.2978 3.30728,33.53271 3.92326,0.0306 z" />
    <g
       id="g976"
       transform="matrix(-0.7169015,0.62313579,0.7019532,0.63640564,174.35893,50.024753)"
       style="stroke:#241c1c;stroke-opacity:1">
      <path
         id="path966"
         style="fill:#5aa02c;stroke:#241c1c;stroke-width:1.32292;stroke-opacity:1"
         d="m 190.9136,38.196634 c 3.00318,7.328745 -36.18057,19.016749 -41.80417,20.372917 -38.28647,9.233029 -38.05463,-9.773763 -41.80416,-20.372917 -3.55396,-10.046318 9.93862,-27.729416 41.80416,-20.372917 13.4454,3.104015 37.76033,10.504639 41.80417,20.372917 z"
         sodipodi:nodetypes="sssss" />
      <path
         style="fill:none;fill-opacity:1;stroke:#241c1c;stroke-width:1.32292;stroke-linecap:butt;stroke-linejoin:miter;stroke-miterlimit:4;stroke-dasharray:none;stroke-opacity:1"
         d="m 117.88861,39.519551 20.10833,-1.058333 6.26334,-15.328407"
         id="path968"
         sodipodi:nodetypes="ccc" />
      <path
         style="fill:none;fill-opacity:1;stroke:#241c1c;stroke-width:1.32292;stroke-linecap:butt;stroke-linejoin:miter;stroke-miterlimit:4;stroke-dasharray:none;stroke-opacity:1"
         d="m 171.31124,29.001199 -8.69963,9.822154 -24.6957,-0.374177 8.88671,10.383422"
         id="path970"
         sodipodi:nodetypes="cccc" />
      <path
         style="fill:#447821;fill-opacity:1;stroke:#241c1c;stroke-width:1.32292;stroke-linecap:butt;stroke-linejoin:miter;stroke-miterlimit:4;stroke-dasharray:none;stroke-opacity:1"
         d="m 162.485,38.778932 c 0.37418,0 17.77342,3.367596 17.77342,3.367596"
         id="path972" />
      <path
         style="fill:none;fill-opacity:1;stroke:#241c1c;stroke-width:1.32292;stroke-linecap:butt;stroke-linejoin:miter;stroke-miterlimit:4;stroke-dasharray:none;stroke-opacity:1"
         d="m 153.43292,29.083394 -3.27406,9.635067 16.27672,8.044812"
         id="path974" />
    </g>
    <rect
       style="fill:#5aa02c;fill-opacity:1;stroke:none;stroke-width:1.20548;stroke-miterlimit:4;stroke-dasharray:none;stroke-opacity:1"
       id="rect2294"
       width="9.3770447"
       height="19.066921"
       x="111.7682"
       y="146.27792"
       transform="matrix(0.99775414,-0.06698268,0.07334476,0.99730665,0,0)" />
    <rect
       style="fill:#5aa02c;fill-opacity:1;stroke:none;stroke-width:1.3351;stroke-miterlimit:4;stroke-dasharray:none;stroke-opacity:1"
       id="rect2310"
       width="9.1648359"
       height="23.929552"
       x="107.73992"
       y="166.73831"
       transform="matrix(0.98831495,-0.15242558,0.09986046,0.99500145,0,0)" />
    <path
       id="rect2070"
       style="fill:#516d31;fill-opacity:1;stroke:none;stroke-width:2.04899;stroke-miterlimit:4;stroke-dasharray:none;stroke-opacity:1"
       d="m 125.85955,118.46314 9.34006,86.24291 h 3.9234 l -9.79944,-82.64404 z" />
    <rect
       style="fill:#516d31;fill-opacity:1;stroke:none;stroke-width:1.47349;stroke-miterlimit:4;stroke-dasharray:none;stroke-opacity:1"
       id="rect2353"
       width="2.7342811"
       height="7.1504774"
       x="119.22525"
       y="144.06474"
       transform="matrix(0.99936358,-0.03567115,0.06846651,0.99765342,0,0)" />
    <g
       id="g964"
       transform="matrix(1.0033375,0,0,0.89067971,14.618758,88.09301)"
       style="stroke:#241c1c;stroke-opacity:1">
      <path
         id="path954"
         style="fill:#5aa02c;stroke:#241c1c;stroke-width:1.32292;stroke-opacity:1"
         d="m 190.9136,38.196634 c 3.00318,7.328745 -36.18057,19.016749 -41.80417,20.372917 -38.28647,9.233029 -38.05463,-9.773763 -41.80416,-20.372917 -3.55396,-10.046318 9.93862,-27.729416 41.80416,-20.372917 13.4454,3.104015 37.76033,10.504639 41.80417,20.372917 z"
         sodipodi:nodetypes="sssss" />
      <path
         style="fill:none;fill-opacity:1;stroke:#241c1c;stroke-width:1.32292;stroke-linecap:butt;stroke-linejoin:miter;stroke-miterlimit:4;stroke-dasharray:none;stroke-opacity:1"
         d="m 117.88861,39.519551 20.10833,-1.058333 6.26334,-15.328407"
         id="path956"
         sodipodi:nodetypes="ccc" />
      <path
         style="fill:none;fill-opacity:1;stroke:#241c1c;stroke-width:1.32292;stroke-linecap:butt;stroke-linejoin:miter;stroke-miterlimit:4;stroke-dasharray:none;stroke-opacity:1"
         d="m 171.31124,29.001199 -8.69963,9.822154 -24.6957,-0.374177 8.88671,10.383422"
         id="path958"
         sodipodi:nodetypes="cccc" />
      <path
         style="fill:#447821;fill-opacity:1;stroke:#241c1c;stroke-width:1.32292;stroke-linecap:butt;stroke-linejoin:miter;stroke-miterlimit:4;stroke-dasharray:none;stroke-opacity:1"
         d="m 162.485,38.778932 c 0.37418,0 17.77342,3.367596 17.77342,3.367596"
         id="path960" />
      <path
         style="fill:none;fill-opacity:1;stroke:#241c1c;stroke-width:1.32292;stroke-linecap:butt;stroke-linejoin:miter;stroke-miterlimit:4;stroke-dasharray:none;stroke-opacity:1"
         d="m 153.43292,29.083394 -3.27406,9.635067 16.27672,8.044812"
         id="path962" />
    </g>
    <rect
       style="fill:#5aa02c;fill-opacity:1;stroke:none;stroke-width:1.08387;stroke-miterlimit:4;stroke-dasharray:none;stroke-opacity:1"
       id="rect2287"
       width="5.7678342"
       height="19.456066"
       x="112.60498"
       y="130.08229"
       transform="matrix(0.99552219,-0.09452811,0.06777823,0.99770041,0,0)" />
    <rect
       style="fill:#5aa02c;fill-opacity:1;stroke:none;stroke-width:2.28055;stroke-miterlimit:4;stroke-dasharray:none;stroke-opacity:1"
       id="rect2351"
       width="3.6584816"
       height="15.011469"
       x="-1.0175709"
       y="164.92813"
       transform="matrix(0.84516897,-0.53449922,0.6972365,0.71684117,0,0)" />
    <path
       id="path2652"
       style="color:#000000;font-style:normal;font-variant:normal;font-weight:normal;font-stretch:normal;font-size:medium;line-height:normal;font-family:sans-serif;font-variant-ligatures:normal;font-variant-position:normal;font-variant-caps:normal;font-variant-numeric:normal;font-variant-alternates:normal;font-variant-east-asian:normal;font-feature-settings:normal;font-variation-settings:normal;text-indent:0;text-align:start;text-decoration:none;text-decoration-line:none;text-decoration-style:solid;text-decoration-color:#000000;letter-spacing:normal;word-spacing:normal;text-transform:none;writing-mode:lr-tb;direction:ltr;text-orientation:mixed;dominant-baseline:auto;baseline-shift:baseline;text-anchor:start;white-space:normal;shape-padding:0;shape-margin:0;inline-size:0;clip-rule:nonzero;display:inline;overflow:visible;visibility:visible;isolation:auto;mix-blend-mode:normal;color-interpolation:sRGB;color-interpolation-filters:linearRGB;solid-color:#000000;solid-opacity:1;vector-effect:none;fill:#241c1c;fill-opacity:1;fill-rule:nonzero;stroke:none;stroke-width:0.864129;stroke-linecap:butt;stroke-linejoin:miter;stroke-miterlimit:4;stroke-dasharray:none;stroke-dashoffset:0;stroke-opacity:1;color-rendering:auto;image-rendering:auto;shape-rendering:auto;text-rendering:auto;enable-background:accumulate;stop-color:#000000"
       d="m 61.419852,73.577381 1.783082,1.100509 c -0.08971,-0.159852 -0.210045,-0.338338 -0.291909,-0.494792 -1.186891,-2.268303 -3.979363,-3.927611 -7.604678,-4.379023 l 2.031439,1.253783 c 1.772492,0.541708 3.172989,1.433392 4.082066,2.519523 z" />
    <path
       id="path2667"
       style="color:#000000;font-style:normal;font-variant:normal;font-weight:normal;font-stretch:normal;font-size:medium;line-height:normal;font-family:sans-serif;font-variant-ligatures:normal;font-variant-position:normal;font-variant-caps:normal;font-variant-numeric:normal;font-variant-alternates:normal;font-variant-east-asian:normal;font-feature-settings:normal;font-variation-settings:normal;text-indent:0;text-align:start;text-decoration:none;text-decoration-line:none;text-decoration-style:solid;text-decoration-color:#000000;letter-spacing:normal;word-spacing:normal;text-transform:none;writing-mode:lr-tb;direction:ltr;text-orientation:mixed;dominant-baseline:auto;baseline-shift:baseline;text-anchor:start;white-space:normal;shape-padding:0;shape-margin:0;inline-size:0;clip-rule:nonzero;display:inline;overflow:visible;visibility:visible;isolation:auto;mix-blend-mode:normal;color-interpolation:sRGB;color-interpolation-filters:linearRGB;solid-color:#000000;solid-opacity:1;vector-effect:none;fill:#241c1c;fill-opacity:1;fill-rule:nonzero;stroke:none;stroke-width:0.864129;stroke-linecap:butt;stroke-linejoin:miter;stroke-miterlimit:4;stroke-dasharray:none;stroke-dashoffset:0;stroke-opacity:1;color-rendering:auto;image-rendering:auto;shape-rendering:auto;text-rendering:auto;enable-background:accumulate;stop-color:#000000"
       d="m 62.617041,75.449765 0.68337,-0.607096 c -0.03066,-0.05365 -0.06758,-0.111512 -0.09748,-0.164779 l -1.783082,-1.100509 c 0.25483,0.304463 0.485017,0.618491 0.658481,0.950001 0.156342,0.298791 0.362043,0.617348 0.538708,0.922383 z" />
    <path
       style="color:#000000;font-style:normal;font-variant:normal;font-weight:normal;font-stretch:normal;font-size:medium;line-height:normal;font-family:sans-serif;font-variant-ligatures:normal;font-variant-position:normal;font-variant-caps:normal;font-variant-numeric:normal;font-variant-alternates:normal;font-variant-east-asian:normal;font-feature-settings:normal;font-variation-settings:normal;text-indent:0;text-align:start;text-decoration:none;text-decoration-line:none;text-decoration-style:solid;text-decoration-color:#000000;letter-spacing:normal;word-spacing:normal;text-transform:none;writing-mode:lr-tb;direction:ltr;text-orientation:mixed;dominant-baseline:auto;baseline-shift:baseline;text-anchor:start;white-space:normal;shape-padding:0;shape-margin:0;inline-size:0;clip-rule:nonzero;display:inline;overflow:visible;visibility:visible;isolation:auto;mix-blend-mode:normal;color-interpolation:sRGB;color-interpolation-filters:linearRGB;solid-color:#000000;solid-opacity:1;vector-effect:none;fill:#ffd42a;fill-opacity:1;fill-rule:nonzero;stroke:none;stroke-width:0.864129;stroke-linecap:butt;stroke-linejoin:miter;stroke-miterlimit:4;stroke-dasharray:none;stroke-dashoffset:0;stroke-opacity:1;color-rendering:auto;image-rendering:auto;shape-rendering:auto;text-rendering:auto;enable-background:accumulate;stop-color:#000000"
       d="m 21.077993,110.35444 c 2.067016,4.51581 27.146097,-7.21586 30.589581,-9.04085 C 75.111447,88.888712 65.77773,80.630506 62.494178,74.355211 59.381895,68.407223 44.121374,66.440774 31.904606,83.396055 26.749839,90.550199 18.294734,104.27382 21.077993,110.35444 Z"
       id="path2650" />
    <path
       id="path2663"
       style="color:#000000;font-style:normal;font-variant:normal;font-weight:normal;font-stretch:normal;font-size:medium;line-height:normal;font-family:sans-serif;font-variant-ligatures:normal;font-variant-position:normal;font-variant-caps:normal;font-variant-numeric:normal;font-variant-alternates:normal;font-variant-east-asian:normal;font-feature-settings:normal;font-variation-settings:normal;text-indent:0;text-align:start;text-decoration:none;text-decoration-line:none;text-decoration-style:solid;text-decoration-color:#000000;letter-spacing:normal;word-spacing:normal;text-transform:none;writing-mode:lr-tb;direction:ltr;text-orientation:mixed;dominant-baseline:auto;baseline-shift:baseline;text-anchor:start;white-space:normal;shape-padding:0;shape-margin:0;inline-size:0;clip-rule:nonzero;display:inline;overflow:visible;visibility:visible;isolation:auto;mix-blend-mode:normal;color-interpolation:sRGB;color-interpolation-filters:linearRGB;solid-color:#000000;solid-opacity:1;vector-effect:none;fill:#241c1c;fill-opacity:1;fill-rule:nonzero;stroke:none;stroke-width:0.864129;stroke-linecap:butt;stroke-linejoin:miter;stroke-miterlimit:4;stroke-dasharray:none;stroke-dashoffset:0;stroke-opacity:1;color-rendering:auto;image-rendering:auto;shape-rendering:auto;text-rendering:auto;enable-background:accumulate;stop-color:#000000"
       d="M 26.449325,92.696599 24.4604,94.464042 c -0.469984,0.884313 -0.949071,1.769074 -1.369331,2.655767 -2.426543,5.119701 -3.935817,10.115471 -2.437934,13.387921 0.234699,0.51275 0.71957,0.84946 1.32474,1.04941 l 0.7544,-0.67015 c -0.662527,-0.11122 -1.061092,-0.32005 -1.228299,-0.68534 -1.285375,-2.80817 0.0399,-7.71484 2.433788,-12.765636 0.753064,-1.588867 1.617558,-3.175579 2.511561,-4.739415 z" />
    <path
       id="path2661"
       style="color:#000000;font-style:normal;font-variant:normal;font-weight:normal;font-stretch:normal;font-size:medium;line-height:normal;font-family:sans-serif;font-variant-ligatures:normal;font-variant-position:normal;font-variant-caps:normal;font-variant-numeric:normal;font-variant-alternates:normal;font-variant-east-asian:normal;font-feature-settings:normal;font-variation-settings:normal;text-indent:0;text-align:start;text-decoration:none;text-decoration-line:none;text-decoration-style:solid;text-decoration-color:#000000;letter-spacing:normal;word-spacing:normal;text-transform:none;writing-mode:lr-tb;direction:ltr;text-orientation:mixed;dominant-baseline:auto;baseline-shift:baseline;text-anchor:start;white-space:normal;shape-padding:0;shape-margin:0;inline-size:0;clip-rule:nonzero;display:inline;overflow:visible;visibility:visible;isolation:auto;mix-blend-mode:normal;color-interpolation:sRGB;color-interpolation-filters:linearRGB;solid-color:#000000;solid-opacity:1;vector-effect:none;fill:#241c1c;fill-opacity:1;fill-rule:nonzero;stroke:none;stroke-width:0.864129;stroke-linecap:butt;stroke-linejoin:miter;stroke-miterlimit:4;stroke-dasharray:none;stroke-dashoffset:0;stroke-opacity:1;color-rendering:auto;image-rendering:auto;shape-rendering:auto;text-rendering:auto;enable-background:accumulate;stop-color:#000000"
       d="m 52.315705,69.715245 c -0.583098,0.03331 -1.171815,0.07692 -1.779975,0.170761 -5.885688,0.908125 -12.858754,4.742324 -19.018177,13.2908 -2.139596,2.969479 -4.813487,7.06559 -7.057153,11.287236 l 1.988925,-1.767443 c 1.947905,-3.407377 4.082862,-6.639702 5.842334,-9.081617 6.057345,-8.406806 12.824339,-12.06671 18.401172,-12.927184 0.203249,-0.03136 0.392158,-0.03305 0.592115,-0.05707 z" />
    <path
       id="path2659"
       style="color:#000000;font-style:normal;font-variant:normal;font-weight:normal;font-stretch:normal;font-size:medium;line-height:normal;font-family:sans-serif;font-variant-ligatures:normal;font-variant-position:normal;font-variant-caps:normal;font-variant-numeric:normal;font-variant-alternates:normal;font-variant-east-asian:normal;font-feature-settings:normal;font-variation-settings:normal;text-indent:0;text-align:start;text-decoration:none;text-decoration-line:none;text-decoration-style:solid;text-decoration-color:#000000;letter-spacing:normal;word-spacing:normal;text-transform:none;writing-mode:lr-tb;direction:ltr;text-orientation:mixed;dominant-baseline:auto;baseline-shift:baseline;text-anchor:start;white-space:normal;shape-padding:0;shape-margin:0;inline-size:0;clip-rule:nonzero;display:inline;overflow:visible;visibility:visible;isolation:auto;mix-blend-mode:normal;color-interpolation:sRGB;color-interpolation-filters:linearRGB;solid-color:#000000;solid-opacity:1;vector-effect:none;fill:#241c1c;fill-opacity:1;fill-rule:nonzero;stroke:none;stroke-width:0.864129;stroke-linecap:butt;stroke-linejoin:miter;stroke-miterlimit:4;stroke-dasharray:none;stroke-dashoffset:0;stroke-opacity:1;color-rendering:auto;image-rendering:auto;shape-rendering:auto;text-rendering:auto;enable-background:accumulate;stop-color:#000000"
       d="m 52.315705,69.715245 -1.030759,0.915481 c 1.171683,-0.140758 2.298193,-0.182735 3.336997,-0.09389 0.9787,0.0837 1.883863,0.266756 2.715843,0.521027 L 55.306347,69.80408 c -0.197291,-0.02456 -0.386316,-0.06102 -0.588486,-0.07824 -0.766029,-0.06525 -1.57447,-0.05787 -2.402156,-0.01059 z" />
    <path
       id="path922"
       style="fill:#ffd42a;stroke:#241c1c;stroke-width:0.864129;stroke-opacity:1"
       d="M 5.121275,72.553181 C 4.367858,77.381451 32.694764,78.353089 36.704823,78.30102 64.006027,77.946521 60.574162,66.651852 61.265039,59.759855 61.919877,53.227336 49.811471,44.750832 29.6815,54.012016 21.187829,57.919697 6.135769,66.051835 5.121275,72.553181 Z"
       sodipodi:nodetypes="sssss" />
    <path
       id="path924"
       style="fill:#ffd42a;stroke:#241c1c;stroke-width:0.864129;stroke-opacity:1"
       d="m 9.846863,36.250174 c -3.371967,3.846994 20.612585,17.261594 24.114735,18.9964 23.8432,11.810865 27.232745,0.506135 31.712938,-5.15586 C 69.921041,44.724046 64.209171,32.008756 41.559811,31.094319 32.003103,30.70848 14.387276,31.070129 9.846863,36.250174 Z"
       sodipodi:nodetypes="sssss" />
    <path
       id="path926"
       style="fill:#ffd42a;stroke:#241c1c;stroke-width:0.864129;stroke-opacity:1"
       d="m 32.265326,7.681108 c -5.086991,1.83492 8.128558,24.098048 10.184386,27.154891 13.996437,20.811519 23.299182,12.525819 30.368206,9.610955 C 79.518236,41.684129 81.733414,28.1371 62.633542,17.292068 54.574504,12.716095 39.115061,5.21036 32.265326,7.681108 Z"
       sodipodi:nodetypes="sssss" />
    <path
       id="path928"
       style="fill:#ffd42a;stroke:#241c1c;stroke-width:0.864129;stroke-opacity:1"
       d="m 75.214741,-5.832603 c -5.438972,-0.668818 -6.533503,24.477444 -6.474848,28.037246 0.399339,24.23574 13.122611,21.189216 20.886336,21.802516 7.358788,0.581317 16.907451,-10.167524 6.474857,-28.037241 C 91.699144,8.429941 82.538412,-4.932024 75.214741,-5.832603 Z"
       sodipodi:nodetypes="sssss" />
    <path
       id="path930"
       style="fill:#ffd42a;stroke:#241c1c;stroke-width:0.864129;stroke-opacity:1"
       d="m 119.5089,-1.013755 c -4.33359,-2.993349 -19.44491,18.29813 -21.399152,21.40704 -13.304757,21.166023 -0.570157,24.174984 5.808002,28.152121 6.04548,3.769694 20.36904,-1.300824 21.39914,-21.407047 0.43464,-8.483655 0.0273,-24.121516 -5.80799,-28.152114 z"
       sodipodi:nodetypes="sssss" />
    <path
       id="path932"
       style="fill:#ffd42a;stroke:#241c1c;stroke-width:0.864129;stroke-opacity:1"
       d="m 149.74116,17.016829 c -2.067,-4.515814 -27.14608,7.215858 -30.58958,9.040851 -23.443852,12.424882 -14.11014,20.683085 -10.82659,26.958378 3.11228,5.947988 18.3728,7.914439 30.58957,-9.040845 5.15477,-7.154144 13.60986,-20.877765 10.8266,-26.958384 z"
       sodipodi:nodetypes="sssss" />
    <path
       id="path934"
       style="fill:#ffd42a;stroke:#241c1c;stroke-width:0.864129;stroke-opacity:1"
       d="m 165.69789,55.143757 c 0.75342,-4.82827 -27.57349,-5.799909 -31.58355,-5.747837 -27.30119,0.354497 -23.86934,11.649162 -24.5602,18.541156 -0.65485,6.532525 11.45355,15.00903 31.58352,5.747846 8.49368,-3.907685 23.54574,-12.039822 24.56023,-18.541165 z"
       sodipodi:nodetypes="sssss" />
    <path
       id="path937"
       style="fill:#ffd42a;stroke:#241c1c;stroke-width:0.864129;stroke-opacity:1"
       d="m 161.00325,94.464436 c 3.37197,-3.846995 -20.61258,-17.261588 -24.11472,-18.996395 -23.8432,-11.810861 -27.23276,-0.506135 -31.71294,5.155858 -4.2465,5.366674 1.46536,18.081951 24.11471,18.996391 9.55671,0.38584 27.17254,0.02418 31.71295,-5.155854 z"
       sodipodi:nodetypes="sssss" />
    <path
       id="path939"
       style="fill:#ffd42a;stroke:#241c1c;stroke-width:0.864129;stroke-opacity:1"
       d="m 138.66129,122.54893 c 5.087,-1.83492 -8.12856,-24.098047 -10.18439,-27.154891 -13.99645,-20.811518 -23.29918,-12.525818 -30.368205,-9.610958 -6.700318,2.762828 -8.915497,16.309849 10.184375,27.154889 8.05903,4.57597 23.51848,12.0817 30.36822,9.61096 z"
       sodipodi:nodetypes="sssss" />
    <path
       id="path941"
       style="fill:#ffd42a;stroke:#241c1c;stroke-width:0.864129;stroke-opacity:1"
       d="m 96.078732,135.08564 c 5.438968,0.66882 6.533518,-24.47745 6.474848,-28.03725 C 102.15425,82.812651 89.430979,85.859171 81.667244,85.245872 74.308456,84.664558 64.759805,95.413396 75.192387,113.28312 c 4.401942,7.53997 13.562674,20.90193 20.886345,21.80252 z"
       sodipodi:nodetypes="sssss" />
    <path
       id="path944"
       style="fill:#ffd42a;stroke:#241c1c;stroke-width:0.864129;stroke-opacity:1"
       d="m 52.518294,130.91813 c 4.333585,2.99335 19.444921,-18.29813 21.399162,-21.40705 13.304756,-21.166018 0.570146,-24.17498 -5.808,-28.152117 -6.04548,-3.769694 -20.369054,1.300824 -21.399151,21.407047 -0.434647,8.48366 -0.02729,24.12152 5.807989,28.15212 z"
       sodipodi:nodetypes="sssss" />
    <rect
       style="fill:#ffd42a;fill-opacity:1;stroke:none;stroke-width:1.12197;stroke-miterlimit:4;stroke-dasharray:none;stroke-opacity:1"
       id="rect2670"
       width="19.008707"
       height="27.728628"
       x="47.026188"
       y="80.477737" />
    <path
       id="path2665"
       style="color:#000000;font-style:normal;font-variant:normal;font-weight:normal;font-stretch:normal;font-size:medium;line-height:normal;font-family:sans-serif;font-variant-ligatures:normal;font-variant-position:normal;font-variant-caps:normal;font-variant-numeric:normal;font-variant-alternates:normal;font-variant-east-asian:normal;font-feature-settings:normal;font-variation-settings:normal;text-indent:0;text-align:start;text-decoration:none;text-decoration-line:none;text-decoration-style:solid;text-decoration-color:#000000;letter-spacing:normal;word-spacing:normal;text-transform:none;writing-mode:lr-tb;direction:ltr;text-orientation:mixed;dominant-baseline:auto;baseline-shift:baseline;text-anchor:start;white-space:normal;shape-padding:0;shape-margin:0;inline-size:0;clip-rule:nonzero;display:inline;overflow:visible;visibility:visible;isolation:auto;mix-blend-mode:normal;color-interpolation:sRGB;color-interpolation-filters:linearRGB;solid-color:#000000;solid-opacity:1;vector-effect:none;fill:#241c1c;fill-opacity:1;fill-rule:nonzero;stroke:none;stroke-width:0.864129;stroke-linecap:butt;stroke-linejoin:miter;stroke-miterlimit:4;stroke-dasharray:none;stroke-dashoffset:0;stroke-opacity:1;color-rendering:auto;image-rendering:auto;shape-rendering:auto;text-rendering:auto;enable-background:accumulate;stop-color:#000000"
       d="m 22.732275,110.88699 -0.7544,0.67015 c 0.251615,0.0831 0.518221,0.14929 0.805732,0.18411 0.979015,0.11857 2.178658,0.0134 3.554761,-0.23842 2.752204,-0.50367 6.202847,-1.61227 9.696263,-2.91582 6.986825,-2.6071 14.0962,-5.98473 15.867317,-6.9234 11.78333,-6.244977 15.465136,-11.53642 15.659405,-16.119169 0.181053,-4.270962 -2.580267,-7.761492 -4.260942,-10.701772 l -0.68337,0.607096 c 1.720979,2.971487 4.19147,6.234981 4.02918,10.063377 -0.178951,4.221399 -3.552444,9.270953 -15.212986,15.450858 -1.672368,0.88633 -8.82291,4.28721 -15.753252,6.87323 -3.46517,1.29301 -6.888674,2.38406 -9.527753,2.86703 -1.31954,0.24149 -2.443634,0.32676 -3.245222,0.22968 -0.07503,-0.009 -0.106317,-0.0355 -0.174733,-0.047 z" />
    <ellipse
       style="fill:#502d16;fill-opacity:1;stroke:#241c1c;stroke-width:0.864129;stroke-miterlimit:4;stroke-dasharray:none;stroke-opacity:1"
       id="path899"
       cx="85.938019"
       cy="65.922516"
       rx="33.463795"
       ry="29.706379" />
    <path
       id="path980"
       style="fill:#502d16;fill-opacity:1;stroke:none;stroke-width:2.1846;stroke-miterlimit:4;stroke-dasharray:none;stroke-opacity:1"
       d="m 120.56061,201.92032 c 2.2649,0.87334 4.10712,-1.14615 6.00466,-0.46654 3.21111,1.15007 5.37074,2.476 9.36218,0.28763 2.07803,-1.13931 5.55214,1.06483 7.81572,0.17891 v 5.21193 h -23.18256 z"
       sodipodi:nodetypes="csscccc" />
    <rect
       style="fill:#241c1c;fill-opacity:1;stroke:none;stroke-width:0.475985;stroke-miterlimit:4;stroke-dasharray:none;stroke-opacity:1"
       id="rect2187"
       width="1.5416771"
       height="20.293667"
       x="-4.5099821"
       y="152.09956"
       transform="matrix(0.80252221,-0.59662225,0.69439738,0.71959174,0,0)" />
    <rect
       style="fill:#241c1c;fill-opacity:1;stroke:none;stroke-width:1.25064;stroke-miterlimit:4;stroke-dasharray:none;stroke-opacity:1"
       id="rect2193"
       width="1.0678719"
       height="1.1317396"
       x="109.38486"
       y="130.65724"
       transform="matrix(0.99911443,-0.0420757,0.05336397,0.99857513,0,0)" />
    <rect
       style="fill:#ffd42a;fill-opacity:1;stroke:none;stroke-width:1.11978;stroke-miterlimit:4;stroke-dasharray:none;stroke-opacity:1"
       id="rect2672"
       width="5.2590113"
       height="8.8322515"
       x="-46.802361"
       y="112.58904"
       transform="matrix(0.90524484,-0.42489032,0.72224254,0.69163987,0,0)" />
    <rect
       style="fill:#ffd42a;fill-opacity:1;stroke:none;stroke-width:1.2506;stroke-miterlimit:4;stroke-dasharray:none;stroke-opacity:1"
       id="rect2674"
       width="2.6086445"
       height="4.7271943"
       x="45.276539"
       y="94.463654" />
  </g>
</svg>
