<?xml version="1.0" encoding="UTF-8" standalone="no"?>
<svg
   xmlns:dc="http://purl.org/dc/elements/1.1/"
   xmlns:cc="http://creativecommons.org/ns#"
   xmlns:rdf="http://www.w3.org/1999/02/22-rdf-syntax-ns#"
   xmlns:svg="http://www.w3.org/2000/svg"
   xmlns="http://www.w3.org/2000/svg"
   xmlns:sodipodi="http://sodipodi.sourceforge.net/DTD/sodipodi-0.dtd"
   xmlns:inkscape="http://www.inkscape.org/namespaces/inkscape"
   width="161.95258mm"
   height="303.84332mm"
   viewBox="0 0 161.95258 303.84333"
   version="1.1"
   id="svg8"
   sodipodi:docname="kwiatek2.svg"
   inkscape:version="1.0.1 (0767f8302a, 2020-10-17)">
  <defs
     id="defs2" />
  <sodipodi:namedview
     id="base"
     pagecolor="#303030"
     bordercolor="#666666"
     borderopacity="1.0"
     inkscape:pageopacity="1"
     inkscape:pageshadow="2"
     inkscape:zoom="0.5"
     inkscape:cx="268.48528"
     inkscape:cy="590.77573"
     inkscape:document-units="mm"
     inkscape:current-layer="layer1"
     inkscape:document-rotation="0"
     showgrid="false"
     inkscape:snap-smooth-nodes="true"
     inkscape:snap-nodes="false"
     inkscape:window-width="1920"
     inkscape:window-height="1043"
     inkscape:window-x="1920"
     inkscape:window-y="0"
     inkscape:window-maximized="1"
     showborder="false" />
  <metadata
     id="metadata5">
    <rdf:RDF>
      <cc:Work
         rdf:about="">
        <dc:format>image/svg+xml</dc:format>
        <dc:type
           rdf:resource="http://purl.org/dc/dcmitype/StillImage" />
        <dc:title />
      </cc:Work>
    </rdf:RDF>
  </metadata>
  <g
     inkscape:label="Warstwa 1"
     inkscape:groupmode="layer"
     id="layer1"
     transform="translate(248.2321,172.66452)">
    <path
       style="color:#000000;font-style:normal;font-variant:normal;font-weight:normal;font-stretch:normal;font-size:medium;line-height:normal;font-family:sans-serif;font-variant-ligatures:normal;font-variant-position:normal;font-variant-caps:normal;font-variant-numeric:normal;font-variant-alternates:normal;font-variant-east-asian:normal;font-feature-settings:normal;font-variation-settings:normal;text-indent:0;text-align:start;text-decoration:none;text-decoration-line:none;text-decoration-style:solid;text-decoration-color:#000000;letter-spacing:normal;word-spacing:normal;text-transform:none;writing-mode:lr-tb;direction:ltr;text-orientation:mixed;dominant-baseline:auto;baseline-shift:baseline;text-anchor:start;white-space:normal;shape-padding:0;shape-margin:0;inline-size:0;clip-rule:nonzero;display:inline;overflow:visible;visibility:visible;isolation:auto;mix-blend-mode:normal;color-interpolation:sRGB;color-interpolation-filters:linearRGB;solid-color:#000000;solid-opacity:1;vector-effect:none;fill:#241c1c;fill-opacity:1;fill-rule:nonzero;stroke:#241c1c;stroke-width:1.32292;stroke-linecap:butt;stroke-linejoin:miter;stroke-miterlimit:4;stroke-dasharray:none;stroke-dashoffset:0;stroke-opacity:1;color-rendering:auto;image-rendering:auto;shape-rendering:auto;text-rendering:auto;enable-background:accumulate;stop-color:#000000"
       d="m -140.57096,-90.584791 -40.4961,121.228521 0.69922,0.16992 9.75977,2.37304 37.83789,-122.77734 z m 0.91015,1.449219 5.16211,0.658203 -37.00781,120.083989 -7.84961,-1.90821 z"
       id="path1853" />
    <path
       style="color:#000000;font-style:normal;font-variant:normal;font-weight:normal;font-stretch:normal;font-size:medium;line-height:normal;font-family:sans-serif;font-variant-ligatures:normal;font-variant-position:normal;font-variant-caps:normal;font-variant-numeric:normal;font-variant-alternates:normal;font-variant-east-asian:normal;font-feature-settings:normal;font-variation-settings:normal;text-indent:0;text-align:start;text-decoration:none;text-decoration-line:none;text-decoration-style:solid;text-decoration-color:#000000;letter-spacing:normal;word-spacing:normal;text-transform:none;writing-mode:lr-tb;direction:ltr;text-orientation:mixed;dominant-baseline:auto;baseline-shift:baseline;text-anchor:start;white-space:normal;shape-padding:0;shape-margin:0;inline-size:0;clip-rule:nonzero;display:inline;overflow:visible;visibility:visible;isolation:auto;mix-blend-mode:normal;color-interpolation:sRGB;color-interpolation-filters:linearRGB;solid-color:#000000;solid-opacity:1;vector-effect:none;fill:#241c1c;fill-opacity:1;fill-rule:nonzero;stroke:#241c1c;stroke-width:1.32292;stroke-linecap:butt;stroke-linejoin:miter;stroke-miterlimit:4;stroke-dasharray:none;stroke-dashoffset:0;stroke-opacity:1;color-rendering:auto;image-rendering:auto;shape-rendering:auto;text-rendering:auto;enable-background:accumulate;stop-color:#000000"
       d="m -192.70841,-111.90124 -0.70508,0.14063 -9.85351,1.94922 17.27929,127.30859 7.4961,-2.37695 z m -1.1543,1.57617 13.93555,124.51368 -4.96094,1.57226 -16.90039,-124.51562 z"
       id="path1837" />
    <path
       style="color:#000000;font-style:normal;font-variant:normal;font-weight:normal;font-stretch:normal;font-size:medium;line-height:normal;font-family:sans-serif;font-variant-ligatures:normal;font-variant-position:normal;font-variant-caps:normal;font-variant-numeric:normal;font-variant-alternates:normal;font-variant-east-asian:normal;font-feature-settings:normal;font-variation-settings:normal;text-indent:0;text-align:start;text-decoration:none;text-decoration-line:none;text-decoration-style:solid;text-decoration-color:#000000;letter-spacing:normal;word-spacing:normal;text-transform:none;writing-mode:lr-tb;direction:ltr;text-orientation:mixed;dominant-baseline:auto;baseline-shift:baseline;text-anchor:start;white-space:normal;shape-padding:0;shape-margin:0;inline-size:0;clip-rule:nonzero;display:inline;overflow:visible;visibility:visible;isolation:auto;mix-blend-mode:normal;color-interpolation:sRGB;color-interpolation-filters:linearRGB;solid-color:#000000;solid-opacity:1;vector-effect:none;fill:#5aa02c;fill-opacity:1;fill-rule:nonzero;stroke:none;stroke-width:1.32292;stroke-linecap:butt;stroke-linejoin:miter;stroke-miterlimit:4;stroke-dasharray:none;stroke-dashoffset:0;stroke-opacity:1;color-rendering:auto;image-rendering:auto;shape-rendering:auto;text-rendering:auto;enable-background:accumulate;stop-color:#000000"
       d="m -193.28561,-111.11188 14.07646,125.76631 -6.22906,1.97519 -17.08963,-125.91221 z"
       id="path1835" />
    <path
       id="path2195"
       style="fill:#483737;fill-opacity:0.48;stroke:none;stroke-width:1.72845;stroke-miterlimit:4;stroke-dasharray:none;stroke-opacity:1"
       d="m -192.71764,-91.889536 11.56129,109.241976 2.19063,-0.12692 -11.55297,-104.655902 z" />
    <path
       style="color:#000000;font-style:normal;font-variant:normal;font-weight:normal;font-stretch:normal;font-size:medium;line-height:normal;font-family:sans-serif;font-variant-ligatures:normal;font-variant-position:normal;font-variant-caps:normal;font-variant-numeric:normal;font-variant-alternates:normal;font-variant-east-asian:normal;font-feature-settings:normal;font-variation-settings:normal;text-indent:0;text-align:start;text-decoration:none;text-decoration-line:none;text-decoration-style:solid;text-decoration-color:#000000;letter-spacing:normal;word-spacing:normal;text-transform:none;writing-mode:lr-tb;direction:ltr;text-orientation:mixed;dominant-baseline:auto;baseline-shift:baseline;text-anchor:start;white-space:normal;shape-padding:0;shape-margin:0;inline-size:0;clip-rule:nonzero;display:inline;overflow:visible;visibility:visible;isolation:auto;mix-blend-mode:normal;color-interpolation:sRGB;color-interpolation-filters:linearRGB;solid-color:#000000;solid-opacity:1;vector-effect:none;fill:#5aa02c;fill-opacity:1;fill-rule:nonzero;stroke:none;stroke-width:1.32292;stroke-linecap:butt;stroke-linejoin:miter;stroke-miterlimit:4;stroke-dasharray:none;stroke-dashoffset:0;stroke-opacity:1;color-rendering:auto;image-rendering:auto;shape-rendering:auto;text-rendering:auto;enable-background:accumulate;stop-color:#000000"
       d="m -180.21177,30.17133 40.09598,-120.03176 6.48227,0.826301 -37.4233,121.430789 z"
       id="path1851" />
    <path
       id="path2334"
       style="fill:#483737;fill-opacity:0.48;stroke:none;stroke-width:1.72845;stroke-miterlimit:4;stroke-dasharray:none;stroke-opacity:1"
       d="m -146.6184,-70.332605 -34.88883,104.164495 2.04519,0.79507 32.99031,-99.989864 z"
       inkscape:transform-center-x="4.117952"
       inkscape:transform-center-y="-0.14836664" />
    <path
       id="path2330"
       style="fill:#483737;fill-opacity:0.48;stroke:none;stroke-width:1.72845;stroke-miterlimit:4;stroke-dasharray:none;stroke-opacity:1"
       d="m -140.87586,-70.747542 -33.01148,104.774582 2.05915,0.75819 31.18828,-100.566509 z"
       inkscape:transform-center-x="4.082447"
       inkscape:transform-center-y="-0.091405139" />
    <g
       id="g1795"
       transform="matrix(0.47624886,0.22376396,-0.22376396,0.47624886,-203.95355,-61.910699)"
       style="stroke:#241c1c;stroke-opacity:1">
      <path
         id="path1785"
         style="fill:#5aa02c;stroke:#241c1c;stroke-width:1.32292;stroke-opacity:1"
         d="m 195.90522,31.128696 c 3.00318,7.328745 -36.18057,19.016749 -41.80417,20.372917 -38.28647,9.233029 -38.05463,-9.773763 -41.80416,-20.372917 -3.55396,-10.046318 9.93862,-27.7294161 41.80416,-20.372917 13.4454,3.104015 37.76033,10.504639 41.80417,20.372917 z"
         sodipodi:nodetypes="sssss" />
      <path
         style="fill:none;fill-opacity:1;stroke:#241c1c;stroke-width:1.32292;stroke-linecap:butt;stroke-linejoin:miter;stroke-miterlimit:4;stroke-dasharray:none;stroke-opacity:1"
         d="M 122.88023,32.451613 142.98856,31.39328 149.2519,16.064873"
         id="path1787"
         sodipodi:nodetypes="ccc" />
      <path
         style="fill:none;fill-opacity:1;stroke:#241c1c;stroke-width:1.32292;stroke-linecap:butt;stroke-linejoin:miter;stroke-miterlimit:4;stroke-dasharray:none;stroke-opacity:1"
         d="m 176.30286,21.933261 -8.69963,9.822154 -24.6957,-0.374177 8.88671,10.383422"
         id="path1789"
         sodipodi:nodetypes="cccc" />
      <path
         style="fill:#447821;fill-opacity:1;stroke:#241c1c;stroke-width:1.32292;stroke-linecap:butt;stroke-linejoin:miter;stroke-miterlimit:4;stroke-dasharray:none;stroke-opacity:1"
         d="m 167.47662,31.710994 c 0.37418,0 17.77342,3.367596 17.77342,3.367596"
         id="path1791" />
      <path
         style="fill:none;fill-opacity:1;stroke:#241c1c;stroke-width:1.32292;stroke-linecap:butt;stroke-linejoin:miter;stroke-miterlimit:4;stroke-dasharray:none;stroke-opacity:1"
         d="m 158.42454,22.015456 -3.27406,9.635067 16.27672,8.044812"
         id="path1793" />
    </g>
    <rect
       style="fill:#5aa02c;fill-opacity:1;stroke:none;stroke-width:1.1974;stroke-miterlimit:4;stroke-dasharray:none;stroke-opacity:1"
       id="rect2332"
       width="5.3445702"
       height="12.812813"
       x="-159.20152"
       y="7.1102633"
       transform="matrix(0.97661479,0.21499662,-0.31470281,0.94919026,0,0)" />
    <path
       style="color:#000000;font-style:normal;font-variant:normal;font-weight:normal;font-stretch:normal;font-size:medium;line-height:normal;font-family:sans-serif;font-variant-ligatures:normal;font-variant-position:normal;font-variant-caps:normal;font-variant-numeric:normal;font-variant-alternates:normal;font-variant-east-asian:normal;font-feature-settings:normal;font-variation-settings:normal;text-indent:0;text-align:start;text-decoration:none;text-decoration-line:none;text-decoration-style:solid;text-decoration-color:#000000;letter-spacing:normal;word-spacing:normal;text-transform:none;writing-mode:lr-tb;direction:ltr;text-orientation:mixed;dominant-baseline:auto;baseline-shift:baseline;text-anchor:start;white-space:normal;shape-padding:0;shape-margin:0;inline-size:0;clip-rule:nonzero;display:inline;overflow:visible;visibility:visible;isolation:auto;mix-blend-mode:normal;color-interpolation:sRGB;color-interpolation-filters:linearRGB;solid-color:#000000;solid-opacity:1;vector-effect:none;fill:#5aa02c;fill-opacity:1;fill-rule:nonzero;stroke:none;stroke-width:0.553843;stroke-linecap:butt;stroke-linejoin:miter;stroke-miterlimit:4;stroke-dasharray:none;stroke-dashoffset:0;stroke-opacity:1;color-rendering:auto;image-rendering:auto;shape-rendering:auto;text-rendering:auto;enable-background:accumulate;stop-color:#000000"
       d="m -158.56133,-22.490973 c -0.35369,3.296891 -17.11071,-0.202927 -19.45167,-0.823526 -15.93767,-4.225148 -12.06688,-11.178134 -11.33669,-15.827982 0.6921,-4.407318 9.18246,-8.23184 19.45167,0.823524 4.333,3.820836 11.81294,11.388663 11.33669,15.827984 z"
       id="path1890" />
    <path
       style="fill:#0057b1;fill-opacity:1;stroke:#241c1c;stroke-width:1.32292;stroke-linecap:butt;stroke-linejoin:miter;stroke-miterlimit:4;stroke-dasharray:none;stroke-opacity:1"
       d="m -221.80027,-114.20009 c -10.19312,18.069456 -13.75198,25.390495 -5.89381,42.206051 27.949,-7.433804 30.61746,-16.717225 41.07695,-35.487941 l -14.23236,-14.34987 z"
       id="path1557"
       sodipodi:nodetypes="ccccc" />
    <path
       id="path1892"
       style="color:#000000;font-style:normal;font-variant:normal;font-weight:normal;font-stretch:normal;font-size:medium;line-height:normal;font-family:sans-serif;font-variant-ligatures:normal;font-variant-position:normal;font-variant-caps:normal;font-variant-numeric:normal;font-variant-alternates:normal;font-variant-east-asian:normal;font-feature-settings:normal;font-variation-settings:normal;text-indent:0;text-align:start;text-decoration:none;text-decoration-line:none;text-decoration-style:solid;text-decoration-color:#000000;letter-spacing:normal;word-spacing:normal;text-transform:none;writing-mode:lr-tb;direction:ltr;text-orientation:mixed;dominant-baseline:auto;baseline-shift:baseline;text-anchor:start;white-space:normal;shape-padding:0;shape-margin:0;inline-size:0;clip-rule:nonzero;display:inline;overflow:visible;visibility:visible;isolation:auto;mix-blend-mode:normal;color-interpolation:sRGB;color-interpolation-filters:linearRGB;solid-color:#000000;solid-opacity:1;vector-effect:none;fill:#241c1c;fill-opacity:1;fill-rule:nonzero;stroke:none;stroke-width:0.553844;stroke-linecap:butt;stroke-linejoin:miter;stroke-miterlimit:4;stroke-dasharray:none;stroke-dashoffset:0;stroke-opacity:1;color-rendering:auto;image-rendering:auto;shape-rendering:auto;text-rendering:auto;enable-background:accumulate;stop-color:#000000"
       d="m -166.87179,-35.843101 -0.33486,0.444416 c 1.55366,1.519864 3.14857,3.173214 4.56562,4.9351 2.33614,2.904662 4.02437,5.893002 3.80442,7.943184 -0.0316,0.294232 -0.23034,0.516305 -0.67749,0.713135 -0.44715,0.196829 -1.11678,0.329084 -1.92805,0.390674 -1.6225,0.12318 -3.81243,-0.02234 -6.06628,-0.291455 -3.60577,-0.430532 -6.89915,-1.09869 -8.85166,-1.535307 l -0.3669,0.487826 c 1.91164,0.43592 5.37816,1.145699 9.15188,1.596285 2.27224,0.271305 4.48379,0.421466 6.17585,0.293005 0.84603,-0.06423 1.56128,-0.19472 2.10738,-0.435116 0.5461,-0.240396 0.94927,-0.630145 1.00613,-1.160136 0.25631,-2.389139 -1.55577,-5.405587 -3.92379,-8.349879 -1.45325,-1.806921 -3.08052,-3.488729 -4.66225,-5.031732 z" />
    <path
       id="path1896"
       style="color:#000000;font-style:normal;font-variant:normal;font-weight:normal;font-stretch:normal;font-size:medium;line-height:normal;font-family:sans-serif;font-variant-ligatures:normal;font-variant-position:normal;font-variant-caps:normal;font-variant-numeric:normal;font-variant-alternates:normal;font-variant-east-asian:normal;font-feature-settings:normal;font-variation-settings:normal;text-indent:0;text-align:start;text-decoration:none;text-decoration-line:none;text-decoration-style:solid;text-decoration-color:#000000;letter-spacing:normal;word-spacing:normal;text-transform:none;writing-mode:lr-tb;direction:ltr;text-orientation:mixed;dominant-baseline:auto;baseline-shift:baseline;text-anchor:start;white-space:normal;shape-padding:0;shape-margin:0;inline-size:0;clip-rule:nonzero;display:inline;overflow:visible;visibility:visible;isolation:auto;mix-blend-mode:normal;color-interpolation:sRGB;color-interpolation-filters:linearRGB;solid-color:#000000;solid-opacity:1;vector-effect:none;fill:#241c1c;fill-opacity:1;fill-rule:nonzero;stroke:none;stroke-width:0.553844;stroke-linecap:butt;stroke-linejoin:miter;stroke-miterlimit:4;stroke-dasharray:none;stroke-dashoffset:0;stroke-opacity:1;color-rendering:auto;image-rendering:auto;shape-rendering:auto;text-rendering:auto;enable-background:accumulate;stop-color:#000000"
       d="m -181.84607,-44.115981 c -0.48366,-0.0089 -0.95052,0.01231 -1.39888,0.06046 -3.58687,0.385233 -6.00786,2.50598 -6.37893,4.868955 -0.35675,2.271736 -1.54154,5.23862 -0.57,8.203115 0.97155,2.9645 4.09876,5.812313 12.10934,7.935951 0.2042,0.05414 0.96713,0.202942 1.35755,0.291972 l 0.3669,-0.487826 c -0.4884,-0.109216 -1.35433,-0.279207 -1.58182,-0.339514 -7.92709,-2.101509 -10.832,-4.841403 -11.72693,-7.572147 -0.89493,-2.730746 0.21876,-5.56714 0.59221,-7.945252 0.32103,-2.044343 2.49196,-4.039365 5.8906,-4.404381 3.39863,-0.365019 8.01344,0.902584 13.10513,5.392436 0.84894,0.74858 1.86653,1.727729 2.87425,2.713527 l 0.33486,-0.444416 c -0.9956,-0.971245 -2.00345,-1.942078 -2.84374,-2.683041 -4.53033,-3.994825 -8.7448,-5.527286 -12.13054,-5.589839 z" />
    <rect
       style="fill:#5aa02c;fill-opacity:1;stroke:none;stroke-width:1.09771;stroke-miterlimit:4;stroke-dasharray:none;stroke-opacity:1"
       id="rect2339"
       width="5.8568292"
       height="20.334583"
       x="-189.79898"
       y="-65.169426"
       transform="matrix(0.99344258,-0.11433213,0.06329123,0.9979951,0,0)" />
    <path
       id="path2341"
       style="fill:#516d31;fill-opacity:1;stroke:none;stroke-width:1.72845;stroke-miterlimit:4;stroke-dasharray:none;stroke-opacity:1"
       d="m -200.18701,-91.628046 14.84208,108.844776 2.18584,-0.19275 -14.69584,-104.261035 z" />
    <rect
       style="fill:#516d31;fill-opacity:1;stroke:none;stroke-width:1.77703;stroke-miterlimit:4;stroke-dasharray:none;stroke-opacity:1"
       id="rect2345"
       width="1.0391688"
       height="2.5160933"
       x="-189.3275"
       y="-44.570778"
       transform="rotate(-3.9431762)" />
    <g
       id="g1819"
       transform="matrix(-0.37333723,0.26489845,0.24016424,0.42743162,-158.03861,-69.639361)"
       style="stroke:#241c1c;stroke-opacity:1">
      <path
         id="path1809"
         style="fill:#5aa02c;stroke:#241c1c;stroke-width:1.32292;stroke-opacity:1"
         d="m 190.9136,38.196634 c 3.00318,7.328745 -36.18057,19.016749 -41.80417,20.372917 -38.28647,9.233029 -38.05463,-9.773763 -41.80416,-20.372917 -3.55396,-10.046318 9.93862,-27.729416 41.80416,-20.372917 13.4454,3.104015 37.76033,10.504639 41.80417,20.372917 z"
         sodipodi:nodetypes="sssss" />
      <path
         style="fill:none;fill-opacity:1;stroke:#241c1c;stroke-width:1.32292;stroke-linecap:butt;stroke-linejoin:miter;stroke-miterlimit:4;stroke-dasharray:none;stroke-opacity:1"
         d="m 117.88861,39.519551 20.10833,-1.058333 6.26334,-15.328407"
         id="path1811"
         sodipodi:nodetypes="ccc" />
      <path
         style="fill:none;fill-opacity:1;stroke:#241c1c;stroke-width:1.32292;stroke-linecap:butt;stroke-linejoin:miter;stroke-miterlimit:4;stroke-dasharray:none;stroke-opacity:1"
         d="m 171.31124,29.001199 -8.69963,9.822154 -24.6957,-0.374177 8.88671,10.383422"
         id="path1813"
         sodipodi:nodetypes="cccc" />
      <path
         style="fill:#447821;fill-opacity:1;stroke:#241c1c;stroke-width:1.32292;stroke-linecap:butt;stroke-linejoin:miter;stroke-miterlimit:4;stroke-dasharray:none;stroke-opacity:1"
         d="m 162.485,38.778932 c 0.37418,0 17.77342,3.367596 17.77342,3.367596"
         id="path1815" />
      <path
         style="fill:none;fill-opacity:1;stroke:#241c1c;stroke-width:1.32292;stroke-linecap:butt;stroke-linejoin:miter;stroke-miterlimit:4;stroke-dasharray:none;stroke-opacity:1"
         d="m 153.43292,29.083394 -3.27406,9.635067 16.27672,8.044812"
         id="path1817" />
    </g>
    <g
       id="g1807"
       transform="matrix(-0.3337174,0.18048694,0.18048694,0.3337174,-133.44682,-45.314945)"
       style="stroke:#241c1c;stroke-opacity:1">
      <path
         id="path1797"
         style="fill:#5aa02c;stroke:#241c1c;stroke-width:1.32292;stroke-opacity:1"
         d="m 190.9136,38.196634 c 3.00318,7.328745 -36.18057,19.016749 -41.80417,20.372917 -38.28647,9.233029 -38.05463,-9.773763 -41.80416,-20.372917 -3.55396,-10.046318 9.93862,-27.729416 41.80416,-20.372917 13.4454,3.104015 37.76033,10.504639 41.80417,20.372917 z"
         sodipodi:nodetypes="sssss" />
      <path
         style="fill:none;fill-opacity:1;stroke:#241c1c;stroke-width:1.32292;stroke-linecap:butt;stroke-linejoin:miter;stroke-miterlimit:4;stroke-dasharray:none;stroke-opacity:1"
         d="m 117.88861,39.519551 20.10833,-1.058333 6.26334,-15.328407"
         id="path1799"
         sodipodi:nodetypes="ccc" />
      <path
         style="fill:none;fill-opacity:1;stroke:#241c1c;stroke-width:1.32292;stroke-linecap:butt;stroke-linejoin:miter;stroke-miterlimit:4;stroke-dasharray:none;stroke-opacity:1"
         d="m 171.31124,29.001199 -8.69963,9.822154 -24.6957,-0.374177 8.88671,10.383422"
         id="path1801"
         sodipodi:nodetypes="cccc" />
      <path
         style="fill:#447821;fill-opacity:1;stroke:#241c1c;stroke-width:1.32292;stroke-linecap:butt;stroke-linejoin:miter;stroke-miterlimit:4;stroke-dasharray:none;stroke-opacity:1"
         d="m 162.485,38.778932 c 0.37418,0 17.77342,3.367596 17.77342,3.367596"
         id="path1803" />
      <path
         style="fill:none;fill-opacity:1;stroke:#241c1c;stroke-width:1.32292;stroke-linecap:butt;stroke-linejoin:miter;stroke-miterlimit:4;stroke-dasharray:none;stroke-opacity:1"
         d="m 153.43292,29.083394 -3.27406,9.635067 16.27672,8.044812"
         id="path1805" />
    </g>
    <g
       id="g1909"
       transform="matrix(-0.24463264,0.32973357,0.29149677,0.36222611,-177.8058,-117.69711)"
       style="stroke:#241c1c;stroke-opacity:1">
      <path
         id="path1899"
         style="fill:#5aa02c;stroke:#241c1c;stroke-width:1.32292;stroke-opacity:1"
         d="m 190.9136,38.196634 c 3.00318,7.328745 -36.18057,19.016749 -41.80417,20.372917 -38.28647,9.233029 -38.05463,-9.773763 -41.80416,-20.372917 -3.55396,-10.046318 9.93862,-27.729416 41.80416,-20.372917 13.4454,3.104015 37.76033,10.504639 41.80417,20.372917 z"
         sodipodi:nodetypes="sssss" />
      <path
         style="fill:none;fill-opacity:1;stroke:#241c1c;stroke-width:1.32292;stroke-linecap:butt;stroke-linejoin:miter;stroke-miterlimit:4;stroke-dasharray:none;stroke-opacity:1"
         d="m 117.88861,39.519551 20.10833,-1.058333 6.26334,-15.328407"
         id="path1901"
         sodipodi:nodetypes="ccc" />
      <path
         style="fill:none;fill-opacity:1;stroke:#241c1c;stroke-width:1.32292;stroke-linecap:butt;stroke-linejoin:miter;stroke-miterlimit:4;stroke-dasharray:none;stroke-opacity:1"
         d="m 171.31124,29.001199 -8.69963,9.822154 -24.6957,-0.374177 8.88671,10.383422"
         id="path1903"
         sodipodi:nodetypes="cccc" />
      <path
         style="fill:#447821;fill-opacity:1;stroke:#241c1c;stroke-width:1.32292;stroke-linecap:butt;stroke-linejoin:miter;stroke-miterlimit:4;stroke-dasharray:none;stroke-opacity:1"
         d="m 162.485,38.778932 c 0.37418,0 17.77342,3.367596 17.77342,3.367596"
         id="path1905" />
      <path
         style="fill:none;fill-opacity:1;stroke:#241c1c;stroke-width:1.32292;stroke-linecap:butt;stroke-linejoin:miter;stroke-miterlimit:4;stroke-dasharray:none;stroke-opacity:1"
         d="m 153.43292,29.083394 -3.27406,9.635067 16.27672,8.044812"
         id="path1907" />
    </g>
    <rect
       style="fill:#5aa02c;fill-opacity:1;stroke:none;stroke-width:1.41696;stroke-miterlimit:4;stroke-dasharray:none;stroke-opacity:1"
       id="rect2355"
       width="4.6579347"
       height="21.949247"
       x="-183.60968"
       y="-105.00839"
       transform="matrix(0.98508327,-0.17207832,0.1418307,0.98989093,0,0)" />
    <g
       id="g1611"
       transform="rotate(20.37256,183.16343,-1356.3898)">
      <path
         style="fill:#0057b1;fill-opacity:1;stroke:#241c1c;stroke-width:1.32292;stroke-linecap:butt;stroke-linejoin:miter;stroke-miterlimit:4;stroke-dasharray:none;stroke-opacity:1"
         d="m 298.07806,-36.619167 c -10.19312,18.069457 -13.75198,25.390496 -5.89381,42.206052 27.949,-7.433804 30.61746,-16.717225 41.07695,-35.487945 l -14.23236,-14.349862 z"
         id="path1595"
         sodipodi:nodetypes="ccccc" />
      <path
         style="fill:#0057b1;fill-opacity:1;stroke:#241c1c;stroke-width:1.32292;stroke-linecap:butt;stroke-linejoin:miter;stroke-miterlimit:4;stroke-dasharray:none;stroke-opacity:1"
         d="m 350.55203,-36.638876 c 10.05897,18.144473 13.5635,25.491678 5.58097,42.248557 -27.89316,-7.640652 -30.49276,-16.943587 -40.81292,-35.791279 l 14.33828,-14.244031 z"
         id="path1597"
         sodipodi:nodetypes="ccccc" />
      <path
         style="fill:#0057b1;fill-opacity:1;stroke:#241c1c;stroke-width:1.32292;stroke-linecap:butt;stroke-linejoin:miter;stroke-miterlimit:4;stroke-dasharray:none;stroke-opacity:1"
         d="m 335.33049,-63.218789 c 20.23217,-4.589562 28.2659,-5.902012 42.12557,6.443967 -15.1288,24.648076 -24.78756,24.545274 -45.76792,29.18916 l -9.67131,-17.746669 z"
         id="path1599"
         sodipodi:nodetypes="ccccc" />
      <path
         style="fill:#0057b1;fill-opacity:1;stroke:#241c1c;stroke-width:1.32292;stroke-linecap:butt;stroke-linejoin:miter;stroke-miterlimit:4;stroke-dasharray:none;stroke-opacity:1"
         d="m 306.24661,-56.211665 c 1.94158,-20.655143 3.19713,-28.697964 19.24635,-38.021922 18.70861,22.054388 15.60201,31.200498 13.47897,52.583522 l -19.8764,3.661583 z"
         id="path1601"
         sodipodi:nodetypes="ccccc" />
      <path
         style="fill:#0057b1;fill-opacity:1;stroke:#241c1c;stroke-width:1.32292;stroke-linecap:butt;stroke-linejoin:miter;stroke-miterlimit:4;stroke-dasharray:none;stroke-opacity:1"
         d="m 297.06682,-30.800355 c -17.39124,-11.311471 -23.93117,-16.158398 -24.73576,-34.702028 28.2201,-6.327236 34.87755,0.671397 52.82915,12.48159 l -5.98749,19.303594 z"
         id="path1603"
         sodipodi:nodetypes="ccccc" />
      <path
         id="path1605"
         style="fill:#2e2ec2;fill-opacity:1;stroke:#241c1c;stroke-width:1.56536;stroke-miterlimit:4;stroke-dasharray:none;stroke-opacity:1"
         inkscape:transform-center-x="0.087812373"
         inkscape:transform-center-y="3.0145219"
         sodipodi:type="inkscape:offset"
         inkscape:radius="2.7812736"
         inkscape:original="M 229.5332 -55.923828 L 224.51172 -30.080078 L 199.33398 -22.386719 L 222.36133 -9.625 L 221.89844 16.697266 L 241.15234 -1.2578125 L 266.04297 7.3144531 L 254.91406 -16.544922 L 270.76172 -37.568359 L 244.63086 -34.357422 L 229.5332 -55.923828 z "
         transform="matrix(0.82815876,-0.16846283,-0.16846283,-0.82815876,124.73991,-15.841597)"
         d="m 229.53906,-58.705078 a 2.7815517,2.7815517 0 0 0 -2.73633,2.25 l -4.70312,24.203125 -23.57813,7.205078 a 2.7815517,2.7815517 0 0 0 -0.53515,5.09375 l 21.56445,11.9511719 -0.43359,24.6503911 a 2.7815517,2.7815517 0 0 0 4.67773,2.082031 l 18.03125,-16.8144534 23.31055,8.0273438 a 2.7815517,2.7815517 0 0 0 3.42773,-3.8046875 l -10.42383,-22.3437499 14.8418,-19.689453 a 2.7815517,2.7815517 0 0 0 -2.56054,-4.433594 l -24.47071,3.005859 -14.13867,-20.197265 a 2.7815517,2.7815517 0 0 0 -2.27344,-1.185547 z" />
      <path
         id="path1607"
         style="fill:#f9f9f9;fill-opacity:0.993056;stroke:#241c1c;stroke-width:3.09459;stroke-miterlimit:4;stroke-dasharray:none;stroke-opacity:1"
         inkscape:transform-center-x="0.044374896"
         inkscape:transform-center-y="1.5248227"
         sodipodi:type="inkscape:offset"
         inkscape:radius="6.4986362"
         inkscape:original="M 229.5332 -55.923828 L 224.51172 -30.080078 L 199.33398 -22.386719 L 222.36133 -9.625 L 221.89844 16.697266 L 241.15234 -1.2578125 L 266.04297 7.3144531 L 254.91406 -16.544922 L 270.76172 -37.568359 L 244.63086 -34.357422 L 229.5332 -55.923828 z "
         transform="matrix(0.41891424,-0.08521506,-0.08521506,-0.41891424,223.42748,-26.605634)"
         d="m 229.55469,-62.421875 a 6.4992861,6.4992861 0 0 0 -6.40039,5.257813 l -4.27735,22.009765 -21.4414,6.552735 a 6.4992861,6.4992861 0 0 0 -1.25196,11.898437 l 19.61133,10.8691406 -0.39453,22.4160154 a 6.4992861,6.4992861 0 0 0 10.92969,4.867188 l 16.39844,-15.2910159 21.19921,7.3007809 a 6.4992861,6.4992861 0 0 0 8.00391,-8.8925778 l -9.47656,-20.3183592 13.49609,-17.904297 a 6.4992861,6.4992861 0 0 0 -5.98242,-10.361328 l -22.25391,2.734375 -12.85742,-18.367188 a 6.4992861,6.4992861 0 0 0 -5.30273,-2.771484 z" />
      <path
         id="path1609"
         style="fill:#2e2ec2;fill-opacity:1;stroke:#241c1c;stroke-width:8.91511;stroke-miterlimit:4;stroke-dasharray:none;stroke-opacity:1"
         inkscape:transform-center-x="0.015261502"
         inkscape:transform-center-y="0.52927635"
         sodipodi:type="inkscape:offset"
         inkscape:radius="6.4986362"
         inkscape:original="M 229.5332 -55.923828 L 224.51172 -30.080078 L 199.33398 -22.386719 L 222.36133 -9.625 L 221.89844 16.697266 L 241.15234 -1.2578125 L 266.04297 7.3144531 L 254.91406 -16.544922 L 270.76172 -37.568359 L 244.63086 -34.357422 L 229.5332 -55.923828 z "
         transform="matrix(0.14541231,-0.02957963,-0.02957963,-0.14541231,289.38164,-33.800055)"
         d="m 229.55469,-62.421875 a 6.4992861,6.4992861 0 0 0 -6.40039,5.257813 l -4.27735,22.009765 -21.4414,6.552735 a 6.4992861,6.4992861 0 0 0 -1.25196,11.898437 l 19.61133,10.8691406 -0.39453,22.4160154 a 6.4992861,6.4992861 0 0 0 10.92969,4.867188 l 16.39844,-15.2910159 21.19921,7.3007809 a 6.4992861,6.4992861 0 0 0 8.00391,-8.8925778 l -9.47656,-20.3183592 13.49609,-17.904297 a 6.4992861,6.4992861 0 0 0 -5.98242,-10.361328 l -22.25391,2.734375 -12.85742,-18.367188 a 6.4992861,6.4992861 0 0 0 -5.30273,-2.771484 z" />
    </g>
    <path
       style="fill:none;fill-opacity:1;stroke:#241c1c;stroke-width:0.553843;stroke-linecap:butt;stroke-linejoin:miter;stroke-miterlimit:4;stroke-dasharray:none;stroke-opacity:1"
       d="m -185.7159,-36.547536 7.61557,3.615067 5.35927,-4.3972"
       id="path1823"
       sodipodi:nodetypes="ccc" />
    <path
       style="fill:none;fill-opacity:1;stroke:#241c1c;stroke-width:0.553843;stroke-linecap:butt;stroke-linejoin:miter;stroke-miterlimit:4;stroke-dasharray:none;stroke-opacity:1"
       d="m -163.94843,-29.781171 -5.15979,1.884335 -9.01955,-5.056205 1.20452,5.59353"
       id="path1825"
       sodipodi:nodetypes="cccc" />
    <path
       style="fill:#447821;fill-opacity:1;stroke:#241c1c;stroke-width:0.553843;stroke-linecap:butt;stroke-linejoin:miter;stroke-miterlimit:4;stroke-dasharray:none;stroke-opacity:1"
       d="m -169.14599,-27.938409 c 0.13779,0.07452 5.87428,4.779871 5.87428,4.779871"
       id="path1827" />
    <path
       style="fill:none;fill-opacity:1;stroke:#241c1c;stroke-width:0.553843;stroke-linecap:butt;stroke-linejoin:miter;stroke-miterlimit:4;stroke-dasharray:none;stroke-opacity:1"
       d="m -170.54841,-33.311565 -3.12458,2.896003 4.39161,6.204149"
       id="path1829" />
    <path
       style="fill:#0057b1;fill-opacity:1;stroke:#241c1c;stroke-width:1.32292;stroke-linecap:butt;stroke-linejoin:miter;stroke-miterlimit:4;stroke-dasharray:none;stroke-opacity:1"
       d="m -169.3263,-114.2198 c 10.05897,18.144473 13.5635,25.491678 5.58097,42.248557 -27.89316,-7.640652 -30.49276,-16.943587 -40.81292,-35.791277 l 14.33828,-14.24403 z"
       id="path1559"
       sodipodi:nodetypes="ccccc" />
    <path
       style="fill:#0057b1;fill-opacity:1;stroke:#241c1c;stroke-width:1.32292;stroke-linecap:butt;stroke-linejoin:miter;stroke-miterlimit:4;stroke-dasharray:none;stroke-opacity:1"
       d="m -184.54784,-140.79971 c 20.23217,-4.58956 28.2659,-5.90201 42.12557,6.44396 -15.1288,24.64808 -24.78756,24.54528 -45.76792,29.18916 l -9.67131,-17.74667 z"
       id="path1561"
       sodipodi:nodetypes="ccccc" />
    <path
       style="fill:#0057b1;fill-opacity:1;stroke:#241c1c;stroke-width:1.32292;stroke-linecap:butt;stroke-linejoin:miter;stroke-miterlimit:4;stroke-dasharray:none;stroke-opacity:1"
       d="m -213.63172,-133.79259 c 1.94158,-20.65514 3.19713,-28.69796 19.24635,-38.02192 18.70861,22.05439 15.60201,31.2005 13.47897,52.58352 l -19.8764,3.66158 z"
       id="path1563"
       sodipodi:nodetypes="ccccc" />
    <path
       style="fill:#0057b1;fill-opacity:1;stroke:#241c1c;stroke-width:1.32292;stroke-linecap:butt;stroke-linejoin:miter;stroke-miterlimit:4;stroke-dasharray:none;stroke-opacity:1"
       d="m -222.81151,-108.38128 c -17.39124,-11.31147 -23.93117,-16.1584 -24.73576,-34.70203 28.2201,-6.32723 34.87755,0.6714 52.82915,12.48159 l -5.98749,19.3036 z"
       id="path1565"
       sodipodi:nodetypes="ccccc" />
    <path
       id="path1543"
       style="fill:#2e2ec2;fill-opacity:1;stroke:#241c1c;stroke-width:1.56536;stroke-miterlimit:4;stroke-dasharray:none;stroke-opacity:1"
       inkscape:transform-center-x="0.087812373"
       inkscape:transform-center-y="3.0145219"
       sodipodi:type="inkscape:offset"
       inkscape:radius="2.7812736"
       inkscape:original="M 229.5332 -55.923828 L 224.51172 -30.080078 L 199.33398 -22.386719 L 222.36133 -9.625 L 221.89844 16.697266 L 241.15234 -1.2578125 L 266.04297 7.3144531 L 254.91406 -16.544922 L 270.76172 -37.568359 L 244.63086 -34.357422 L 229.5332 -55.923828 z "
       transform="matrix(0.82815876,-0.16846283,-0.16846283,-0.82815876,-395.13842,-93.422521)"
       d="m 229.53906,-58.705078 a 2.7815517,2.7815517 0 0 0 -2.73633,2.25 l -4.70312,24.203125 -23.57813,7.205078 a 2.7815517,2.7815517 0 0 0 -0.53515,5.09375 l 21.56445,11.9511719 -0.43359,24.6503911 a 2.7815517,2.7815517 0 0 0 4.67773,2.082031 l 18.03125,-16.8144534 23.31055,8.0273438 a 2.7815517,2.7815517 0 0 0 3.42773,-3.8046875 l -10.42383,-22.3437499 14.8418,-19.689453 a 2.7815517,2.7815517 0 0 0 -2.56054,-4.433594 l -24.47071,3.005859 -14.13867,-20.197265 a 2.7815517,2.7815517 0 0 0 -2.27344,-1.185547 z" />
    <path
       id="path1545"
       style="fill:#f9f9f9;fill-opacity:0.993056;stroke:#241c1c;stroke-width:3.09459;stroke-miterlimit:4;stroke-dasharray:none;stroke-opacity:1"
       inkscape:transform-center-x="0.044374896"
       inkscape:transform-center-y="1.5248227"
       sodipodi:type="inkscape:offset"
       inkscape:radius="6.4986362"
       inkscape:original="M 229.5332 -55.923828 L 224.51172 -30.080078 L 199.33398 -22.386719 L 222.36133 -9.625 L 221.89844 16.697266 L 241.15234 -1.2578125 L 266.04297 7.3144531 L 254.91406 -16.544922 L 270.76172 -37.568359 L 244.63086 -34.357422 L 229.5332 -55.923828 z "
       transform="matrix(0.41891424,-0.08521506,-0.08521506,-0.41891424,-296.45085,-104.18656)"
       d="m 229.55469,-62.421875 a 6.4992861,6.4992861 0 0 0 -6.40039,5.257813 l -4.27735,22.009765 -21.4414,6.552735 a 6.4992861,6.4992861 0 0 0 -1.25196,11.898437 l 19.61133,10.8691406 -0.39453,22.4160154 a 6.4992861,6.4992861 0 0 0 10.92969,4.867188 l 16.39844,-15.2910159 21.19921,7.3007809 a 6.4992861,6.4992861 0 0 0 8.00391,-8.8925778 l -9.47656,-20.3183592 13.49609,-17.904297 a 6.4992861,6.4992861 0 0 0 -5.98242,-10.361328 l -22.25391,2.734375 -12.85742,-18.367188 a 6.4992861,6.4992861 0 0 0 -5.30273,-2.771484 z" />
    <path
       id="path1583"
       style="fill:#2e2ec2;fill-opacity:1;stroke:#241c1c;stroke-width:8.91511;stroke-miterlimit:4;stroke-dasharray:none;stroke-opacity:1"
       inkscape:transform-center-x="0.015261502"
       inkscape:transform-center-y="0.52927635"
       sodipodi:type="inkscape:offset"
       inkscape:radius="6.4986362"
       inkscape:original="M 229.5332 -55.923828 L 224.51172 -30.080078 L 199.33398 -22.386719 L 222.36133 -9.625 L 221.89844 16.697266 L 241.15234 -1.2578125 L 266.04297 7.3144531 L 254.91406 -16.544922 L 270.76172 -37.568359 L 244.63086 -34.357422 L 229.5332 -55.923828 z "
       transform="matrix(0.14541231,-0.02957963,-0.02957963,-0.14541231,-230.49669,-111.38098)"
       d="m 229.55469,-62.421875 a 6.4992861,6.4992861 0 0 0 -6.40039,5.257813 l -4.27735,22.009765 -21.4414,6.552735 a 6.4992861,6.4992861 0 0 0 -1.25196,11.898437 l 19.61133,10.8691406 -0.39453,22.4160154 a 6.4992861,6.4992861 0 0 0 10.92969,4.867188 l 16.39844,-15.2910159 21.19921,7.3007809 a 6.4992861,6.4992861 0 0 0 8.00391,-8.8925778 l -9.47656,-20.3183592 13.49609,-17.904297 a 6.4992861,6.4992861 0 0 0 -5.98242,-10.361328 l -22.25391,2.734375 -12.85742,-18.367188 a 6.4992861,6.4992861 0 0 0 -5.30273,-2.771484 z" />
    <path
       id="path1860"
       style="fill:#502d16;fill-opacity:1;stroke:none;stroke-width:0.721399;stroke-miterlimit:4;stroke-dasharray:none;stroke-opacity:1"
       d="m -187.80348,14.90639 c 1.19196,0.40486 2.50085,1.38255 3.69379,1.05024 1.0658,-0.29689 2.02745,-1.86585 2.91589,-2.20519 0.85587,-0.32689 1.95671,0.15404 2.56245,-0.13185 0.54633,-0.25785 0.61898,-1.25659 0.99328,-1.97463 l 0.0118,4.78002 -8.69438,3.01349 z"
       sodipodi:nodetypes="cssscccc" />
    <path
       id="rect1857"
       style="fill:#502d16;fill-opacity:1;stroke:none;stroke-width:1.32292;stroke-miterlimit:4;stroke-dasharray:none;stroke-opacity:1"
       d="m -182.40379,26.51395 c 5.13452,1.96806 10.11299,2.25757 14.85464,0 v 9.93212 h -14.85464 z"
       sodipodi:nodetypes="ccccc" />
    <path
       id="rect2336"
       style="fill:#5aa02c;fill-opacity:1;stroke:none;stroke-width:1.17263;stroke-miterlimit:4;stroke-dasharray:none;stroke-opacity:1"
       d="m -164.93402,-16.210138 c 1.90637,1.014576 4.02812,2.027081 6.07672,3.040295 l -5.36411,16.3421885 c -1.94579,-1.3530202 -3.4291,-4.6747832 -6.07671,-3.04029559 z"
       sodipodi:nodetypes="ccccc" />
    <rect
       style="fill:#5aa02c;fill-opacity:1;stroke:none;stroke-width:2.61354;stroke-miterlimit:4;stroke-dasharray:none;stroke-opacity:1"
       id="rect2343"
       width="5.2316084"
       height="12.260949"
       x="-191.63902"
       y="-26.6602" />
  </g>
</svg>
