<?xml version="1.0" encoding="UTF-8" standalone="no"?>
<svg
   xmlns:dc="http://purl.org/dc/elements/1.1/"
   xmlns:cc="http://creativecommons.org/ns#"
   xmlns:rdf="http://www.w3.org/1999/02/22-rdf-syntax-ns#"
   xmlns:svg="http://www.w3.org/2000/svg"
   xmlns="http://www.w3.org/2000/svg"
   xmlns:sodipodi="http://sodipodi.sourceforge.net/DTD/sodipodi-0.dtd"
   xmlns:inkscape="http://www.inkscape.org/namespaces/inkscape"
   width="124.07253mm"
   height="121.87112mm"
   viewBox="0 0 124.07252 121.87112"
   version="1.1"
   id="svg8"
   inkscape:version="1.0.1 (3bc2e813f5, 2020-09-07)"
   sodipodi:docname="button-pressed.svg">
  <defs
     id="defs2" />
  <sodipodi:namedview
     id="base"
     pagecolor="#ffffff"
     bordercolor="#666666"
     borderopacity="1.0"
     inkscape:pageopacity="0.0"
     inkscape:pageshadow="2"
     inkscape:zoom="0.175"
     inkscape:cx="-1439.3091"
     inkscape:cy="648.23993"
     inkscape:document-units="mm"
     inkscape:current-layer="layer1"
     inkscape:document-rotation="0"
     showgrid="false"
     inkscape:window-width="1920"
     inkscape:window-height="1017"
     inkscape:window-x="1432"
     inkscape:window-y="-8"
     inkscape:window-maximized="1"
     inkscape:object-nodes="true"
     inkscape:snap-nodes="true"
     inkscape:snap-intersection-paths="true"
     inkscape:snap-smooth-nodes="true" />
  <metadata
     id="metadata5">
    <rdf:RDF>
      <cc:Work
         rdf:about="">
        <dc:format>image/svg+xml</dc:format>
        <dc:type
           rdf:resource="http://purl.org/dc/dcmitype/StillImage" />
        <dc:title></dc:title>
      </cc:Work>
    </rdf:RDF>
  </metadata>
  <g
     inkscape:label="Warstwa 1"
     inkscape:groupmode="layer"
     id="layer1"
     transform="translate(-44.273605,-86.267797)">
    <path
       id="path859"
       style="color:#000000;font-style:normal;font-variant:normal;font-weight:normal;font-stretch:normal;font-size:medium;line-height:normal;font-family:sans-serif;font-variant-ligatures:normal;font-variant-position:normal;font-variant-caps:normal;font-variant-numeric:normal;font-variant-alternates:normal;font-variant-east-asian:normal;font-feature-settings:normal;font-variation-settings:normal;text-indent:0;text-align:start;text-decoration:none;text-decoration-line:none;text-decoration-style:solid;text-decoration-color:#000000;letter-spacing:normal;word-spacing:normal;text-transform:none;writing-mode:lr-tb;direction:ltr;text-orientation:mixed;dominant-baseline:auto;baseline-shift:baseline;text-anchor:start;white-space:normal;shape-padding:0;shape-margin:0;inline-size:0;clip-rule:nonzero;display:inline;overflow:visible;visibility:visible;isolation:auto;mix-blend-mode:normal;color-interpolation:sRGB;color-interpolation-filters:linearRGB;solid-color:#000000;solid-opacity:1;vector-effect:none;fill:#b3b3b3;fill-opacity:1;fill-rule:nonzero;stroke:none;stroke-width:2.33628;stroke-linecap:butt;stroke-linejoin:miter;stroke-miterlimit:4;stroke-dasharray:none;stroke-dashoffset:0;stroke-opacity:1;color-rendering:auto;image-rendering:auto;shape-rendering:auto;text-rendering:auto;enable-background:accumulate;stop-color:#000000"
       d="m 55.971087,118.59192 -10.528556,46.04732 c 1.05e-4,23.37964 27.252364,42.33273 60.869159,42.3323 33.61592,0 60.86697,-18.95324 60.86708,-42.3323 L 156.6435,118.5635 c -0.01,0.0652 -0.005,0.12965 -0.0155,0.19482 -0.14384,0.89428 -0.35969,1.79079 -0.6475,2.68459 -0.28781,0.8938 -0.64763,1.78519 -1.07952,2.67064 -0.4319,0.88544 -0.93594,1.76474 -1.51205,2.63394 -0.57612,0.86921 -1.22465,1.72841 -1.94511,2.57349 -0.72045,0.84508 -1.51269,1.67617 -2.37763,2.48925 -0.86493,0.81309 -1.80217,1.60804 -2.81171,2.38125 -1.00954,0.77321 -2.09153,1.52454 -3.2458,2.25 -1.15683,0.72706 -2.38206,1.42006 -3.66747,2.07636 -1.28541,0.65629 -2.63109,1.27592 -4.0287,1.8557 -1.39761,0.57977 -2.84739,1.11996 -4.34082,1.61747 -1.49344,0.49751 -3.03045,0.95217 -4.60334,1.36167 -1.57288,0.4095 -3.18131,0.77359 -4.81727,1.08934 -1.63597,0.31575 -3.29946,0.58318 -4.98213,0.79944 -1.68266,0.21625 -3.38437,0.38146 -5.09736,0.49247 -1.71299,0.11101 -3.43709,0.16793 -5.16403,0.16795 -1.72698,2e-5 -3.45102,-0.057 -5.16402,-0.16795 -1.713002,-0.11098 -3.415225,-0.27623 -5.09788,-0.49247 -1.682658,-0.21625 -3.346183,-0.48369 -4.982126,-0.79944 -1.635942,-0.31575 -3.244413,-0.67983 -4.817276,-1.08934 -1.572866,-0.40951 -3.109921,-0.86415 -4.60334,-1.36167 -1.493414,-0.49753 -2.943217,-1.03769 -4.340818,-1.61747 -1.397603,-0.57979 -2.742753,-1.1994 -4.028178,-1.8557 -1.285422,-0.65631 -2.511115,-1.34929 -3.667993,-2.07636 -1.154317,-0.72546 -2.236173,-1.4768 -3.245797,-2.25 -1.009625,-0.7732 -1.946667,-1.56817 -2.811715,-2.38125 -0.865048,-0.81307 -1.658078,-1.64418 -2.378666,-2.48925 -0.720588,-0.84507 -1.368857,-1.70429 -1.945101,-2.57349 -0.576243,-0.86919 -1.080553,-1.74851 -1.512569,-2.63394 -0.432015,-0.88544 -0.791617,-1.77683 -1.07952,-2.67064 -0.287904,-0.89381 -0.504115,-1.78977 -0.648023,-2.68408 -0.009,-0.0558 -0.005,-0.1111 -0.01344,-0.16691 z" />
    <path
       id="path857"
       style="color:#000000;font-style:normal;font-variant:normal;font-weight:normal;font-stretch:normal;font-size:medium;line-height:normal;font-family:sans-serif;font-variant-ligatures:normal;font-variant-position:normal;font-variant-caps:normal;font-variant-numeric:normal;font-variant-alternates:normal;font-variant-east-asian:normal;font-feature-settings:normal;font-variation-settings:normal;text-indent:0;text-align:start;text-decoration:none;text-decoration-line:none;text-decoration-style:solid;text-decoration-color:#000000;letter-spacing:normal;word-spacing:normal;text-transform:none;writing-mode:lr-tb;direction:ltr;text-orientation:mixed;dominant-baseline:auto;baseline-shift:baseline;text-anchor:start;white-space:normal;shape-padding:0;shape-margin:0;inline-size:0;clip-rule:nonzero;display:inline;overflow:visible;visibility:visible;isolation:auto;mix-blend-mode:normal;color-interpolation:sRGB;color-interpolation-filters:linearRGB;solid-color:#000000;solid-opacity:1;vector-effect:none;fill:#cccccc;fill-opacity:1;fill-rule:nonzero;stroke:none;stroke-width:2.33628;stroke-linecap:butt;stroke-linejoin:miter;stroke-miterlimit:4;stroke-dasharray:none;stroke-dashoffset:0;stroke-opacity:1;color-rendering:auto;image-rendering:auto;shape-rendering:auto;text-rendering:auto;enable-background:accumulate;stop-color:#000000"
       d="m 55.971087,118.59192 c 0.0084,0.0558 0.0045,0.11108 0.01344,0.16691 0.143908,0.89431 0.360118,1.79027 0.648022,2.68408 0.287904,0.89381 0.647505,1.7852 1.079521,2.67064 0.432016,0.88543 0.936325,1.76475 1.512569,2.63394 0.576244,0.8692 1.224513,1.72842 1.945101,2.57349 0.720587,0.84507 1.513618,1.67618 2.378666,2.48925 0.865048,0.81308 1.80209,1.60805 2.811714,2.38125 1.009625,0.7732 2.09148,1.52454 3.245797,2.25 1.156876,0.72707 2.382572,1.42005 3.667991,2.07636 1.285426,0.6563 2.630575,1.27591 4.028179,1.8557 1.397603,0.57978 2.847406,1.11994 4.34082,1.61747 1.493417,0.49752 3.030474,0.95216 4.60334,1.36167 1.57286,0.40951 3.181331,0.77359 4.817274,1.08934 1.635942,0.31575 3.299468,0.58319 4.982128,0.79944 1.682652,0.21624 3.384878,0.38149 5.097881,0.49247 1.713,0.11098 3.43703,0.16797 5.16402,0.16795 1.72694,-2e-5 3.45103,-0.0569 5.16403,-0.16795 1.71299,-0.11101 3.4147,-0.27622 5.09736,-0.49247 1.68267,-0.21626 3.34616,-0.48369 4.98213,-0.79944 1.63596,-0.31575 3.24439,-0.67984 4.81727,-1.08934 1.57289,-0.4095 3.10989,-0.86416 4.60334,-1.36167 1.49343,-0.49751 2.94321,-1.0377 4.34082,-1.61747 1.39761,-0.57978 2.74329,-1.19941 4.02869,-1.8557 1.28542,-0.6563 2.51065,-1.3493 3.66748,-2.07636 1.15427,-0.72546 2.23625,-1.47679 3.2458,-2.25 1.00954,-0.77321 1.94678,-1.56816 2.8117,-2.38125 0.86495,-0.81308 1.65719,-1.64417 2.37764,-2.48925 0.72046,-0.84508 1.36899,-1.70428 1.94511,-2.57349 0.57611,-0.8692 1.08015,-1.7485 1.51205,-2.63394 0.43189,-0.88545 0.79171,-1.77684 1.07952,-2.67064 0.28781,-0.8938 0.50366,-1.79031 0.6475,-2.68459 0.0105,-0.0652 0.006,-0.12967 0.0155,-0.19482 l -1.17151,-5.12475 h -1.11879 c 0.0149,0.0839 0.0475,0.16884 0.061,0.25269 0.12925,0.80403 0.19325,1.60321 0.19327,2.39366 -2e-5,0.79044 -0.064,1.58911 -0.19327,2.39313 -0.12926,0.80402 -0.32368,1.61297 -0.58446,2.42311 -0.26079,0.81014 -0.58827,1.62154 -0.98289,2.43034 -0.39461,0.8088 -0.85625,1.61536 -1.387,2.41536 -0.53074,0.8 -1.13021,1.59337 -1.79937,2.37711 -0.66916,0.78375 -1.40808,1.55766 -2.21795,2.31769 -0.80988,0.76003 -1.69088,1.50616 -2.64377,2.23501 -0.95288,0.72885 -1.97759,1.4404 -3.07578,2.13062 -1.09563,0.68859 -2.26214,1.34717 -3.49023,1.97249 -1.22807,0.62531 -2.518,1.2175 -3.86126,1.77301 -1.34326,0.55552 -2.73997,1.07418 -4.18114,1.5534 -1.44116,0.47921 -2.92651,0.91877 -4.4483,1.31516 -0.27124,0.0707 -0.55801,0.12021 -0.83148,0.1881 -5.89729,1.96392 -12.48176,3.11445 -19.13061,3.11454 -7.963945,1.1e-4 -15.84212,-1.63382 -22.536094,-4.37337 -0.270034,-0.0861 -0.557213,-0.15512 -0.824238,-0.24391 -1.441146,-0.47923 -2.837366,-0.99838 -4.180623,-1.55392 -1.343258,-0.55553 -2.633676,-1.14768 -3.861782,-1.77301 -1.228103,-0.62533 -2.394019,-1.28388 -3.489709,-1.97249 -1.098248,-0.69023 -2.123313,-1.40177 -3.076296,-2.13062 -0.952983,-0.72886 -1.833767,-1.47498 -2.643766,-2.23501 -0.81,-0.76003 -1.549173,-1.53394 -2.21847,-2.31769 -0.669297,-0.78374 -1.269013,-1.57711 -1.79989,-2.37711 -0.530876,-0.8 -0.992774,-1.60656 -1.387512,-2.41536 -0.394738,-0.8088 -0.722004,-1.6202 -0.982886,-2.43034 -0.260881,-0.81014 -0.45567,-1.61909 -0.584978,-2.42311 -0.129306,-0.80402 -0.193254,-1.60269 -0.193269,-2.39313 1.5e-5,-0.78947 0.06384,-1.58756 0.192752,-2.39056 0.01363,-0.0849 0.04642,-0.17082 0.06149,-0.25579 H 57.14932 Z" />
    <path
       id="path880"
       style="fill:#999999;fill-opacity:1;stroke:none;stroke-width:3.53553"
       sodipodi:type="inkscape:offset"
       inkscape:radius="3.0472665"
       inkscape:original="M 234.46484 25.095703 C 209.60829 25.075804 186.56376 27.926458 162.74805 33.96875 C 125.93179 43.309418 97.019632 58.190079 76.958984 78.119141 C 61.065476 93.908396 53.18049 109.85945 52.359375 127.88281 C 51.387139 149.22328 63.749444 171.98215 86.058594 189.91992 C 103.28703 203.77252 127.33249 215.57668 154.54492 223.53906 C 171.83467 228.59806 196.46384 232.88674 215.35938 234.13086 C 229.6183 235.06969 250.71258 234.64981 264.35156 233.15625 C 318.14166 227.26589 363.16688 209.30438 390.7168 182.74609 C 404.35789 169.59599 412.31027 156.25801 415.67773 140.88281 C 417.05838 134.57901 416.86646 124.20209 415.24023 117.25586 C 411.33023 100.55488 401.01044 85.076472 384.54297 71.21875 C 350.65112 42.69805 293.52829 25.142993 234.46484 25.095703 z M 225.83008 37.34375 C 230.31088 37.257044 235.01557 37.266881 240.10742 37.361328 C 270.88514 37.932215 297.00768 42.376226 323.92969 51.625 C 366.31791 66.187024 394.14852 89.867539 401.84375 117.91992 C 402.70891 121.0738 402.91449 123.28641 402.93359 129.63672 C 402.9547 136.65892 402.81421 137.98517 401.56836 142.51562 C 399.80001 148.94616 395.70157 157.4197 391.58398 163.16211 C 369.7531 193.60759 321.40903 215.27055 261.7793 221.32617 C 254.47131 222.06832 224.76988 222.7292 219.39844 222.26953 C 218.14837 222.16255 214.17185 221.84047 210.56055 221.55273 C 202.07743 220.87681 190.00414 219.27499 182.02344 217.76758 C 120.87154 206.21702 78.364505 178.64651 67.556641 143.52344 C 66.249503 139.27553 66.158203 138.38968 66.158203 129.88867 C 66.158203 121.47384 66.258475 120.45936 67.519531 116.25195 C 69.384287 110.03034 74.244094 100.49453 78.289062 95.119141 C 87.924322 82.314776 102.26964 71.094451 120.91016 61.78125 C 140.94794 51.769942 161.85608 45.212801 187.07422 41.03125 C 200.95352 38.729849 212.38766 37.603868 225.83008 37.34375 z "
       transform="matrix(0.26458333,0,0,0.26458333,44.273608,81.732155)"
       d="m 234.4668,22.048828 c -25.09104,-0.02009 -48.42031,2.865458 -72.46875,8.966797 -37.19542,9.436864 -66.626364,24.515136 -87.187503,44.941406 -16.263989,16.157306 -24.638334,32.959409 -25.496094,51.787109 -1.030167,22.61205 11.972321,46.16876 34.833985,64.55078 17.648682,14.19051 42.013872,26.11351 69.541012,34.16797 17.59285,5.14769 42.28833,9.44611 61.46875,10.70899 14.51496,0.95568 35.60988,0.53751 49.52539,-0.98633 54.27353,-5.9433 99.89841,-24.0129 128.14844,-51.2461 13.95629,-13.45396 22.31909,-27.40945 25.82227,-43.40429 1.5428,-7.04418 1.32038,-17.42434 -0.44727,-24.97461 C 414.12101,99.107716 403.34876,83.060375 386.50586,68.886719 351.7947,39.676557 294.13249,22.0966 234.4668,22.048828 Z m -8.57813,18.341797 c 4.43509,-0.08582 9.10114,-0.0763 14.16211,0.01758 30.51651,0.566042 56.25583,4.950175 82.88867,14.099609 41.81579,14.365372 68.64974,37.552076 75.96485,64.218748 0.80155,2.922 0.96351,4.63325 0.98242,10.91992 0.021,6.98041 -0.0348,7.62023 -1.25586,12.06055 -1.63064,5.92978 -5.67508,14.31276 -9.52344,19.67969 -20.98831,29.27043 -68.56904,50.90966 -127.63672,56.9082 -3.33161,0.33834 -12.69812,0.70645 -21.67578,0.90625 -8.97765,0.19981 -18.05003,0.20982 -20.13672,0.0312 -1.27937,-0.10949 -5.24125,-0.42882 -8.85547,-0.7168 -8.33134,-0.66382 -20.39608,-2.26573 -28.21289,-3.74218 -60.53596,-11.43422 -101.841931,-38.74159 -112.12109,-72.14649 -1.283845,-4.17221 -1.263672,-4.25909 -1.263672,-12.73828 0,-8.39062 -7.59e-4,-8.64079 1.234375,-12.76172 1.692571,-5.64712 6.576185,-15.2469 10.285156,-20.175778 9.275779,-12.326648 23.222571,-23.288146 41.546871,-32.44336 19.75553,-9.870287 40.32166,-16.328784 65.30079,-20.470703 13.77109,-2.283458 25.01063,-3.38901 38.3164,-3.646484 z" />
    <path
       id="path868"
       style="color:#000000;font-style:normal;font-variant:normal;font-weight:normal;font-stretch:normal;font-size:medium;line-height:normal;font-family:sans-serif;font-variant-ligatures:normal;font-variant-position:normal;font-variant-caps:normal;font-variant-numeric:normal;font-variant-alternates:normal;font-variant-east-asian:normal;font-feature-settings:normal;font-variation-settings:normal;text-indent:0;text-align:start;text-decoration:none;text-decoration-line:none;text-decoration-style:solid;text-decoration-color:#000000;letter-spacing:normal;word-spacing:normal;text-transform:none;writing-mode:lr-tb;direction:ltr;text-orientation:mixed;dominant-baseline:auto;baseline-shift:baseline;text-anchor:start;white-space:normal;shape-padding:0;shape-margin:0;inline-size:0;clip-rule:nonzero;display:inline;overflow:visible;visibility:visible;isolation:auto;mix-blend-mode:normal;color-interpolation:sRGB;color-interpolation-filters:linearRGB;solid-color:#000000;solid-opacity:1;vector-effect:none;fill:#1a1a1a;fill-opacity:1;fill-rule:nonzero;stroke:none;stroke-width:2.33628;stroke-linecap:butt;stroke-linejoin:miter;stroke-miterlimit:4;stroke-dasharray:none;stroke-dashoffset:0;stroke-opacity:1;color-rendering:auto;image-rendering:auto;shape-rendering:auto;text-rendering:auto;enable-background:accumulate;stop-color:#000000"
       d="m 106.19799,86.267797 c -13.796772,0.0178 -27.394307,3.667625 -36.626183,9.481075 -7.807722,4.916648 -12.293688,11.016538 -13.480831,17.076478 l -0.08062,0.35243 -11.736751,51.3302 v 0.13074 c 1.06e-4,12.14372 7.086361,23.07306 18.330147,30.89269 11.243814,7.81963 26.679518,12.60771 43.707408,12.6075 17.0275,-2.1e-4 32.46358,-4.78793 43.70689,-12.6075 11.24339,-7.8196 18.32797,-18.74929 18.32808,-30.89269 v -0.13074 l -11.93415,-52.19578 -0.009,-0.0408 c -1.34765,-5.88526 -5.80419,-11.77302 -13.39403,-16.543178 -9.25466,-5.816555 -22.88558,-9.460249 -36.7011,-9.460405 h -0.0119 c -0.0324,-1.9e-5 -0.0637,-1.9e-5 -0.0961,0 v 1.997294 c 0.0313,-1.9e-5 0.0627,-1.9e-5 0.094,0 h 0.0114 c 13.37277,1.67e-4 26.65295,3.58835 35.41799,9.097122 8.78553,5.521707 12.88437,12.399347 12.88449,18.722887 -1.2e-4,6.32354 -4.09896,13.20064 -12.88449,18.72237 -8.76504,5.50876 -22.04522,9.09695 -35.41799,9.09712 -13.373098,1.6e-4 -26.651951,-3.58825 -35.417467,-9.09712 -8.785993,-5.52182 -12.886951,-12.39883 -12.887068,-18.72237 1.17e-4,-6.31574 4.088376,-13.18365 12.85296,-18.702737 8.742373,-5.505234 21.990079,-9.09968 35.344095,-9.117272 z m 50.43,27.143563 c 0.0719,0.44714 0.12586,0.89366 0.16175,1.33945 -0.036,-0.44578 -0.0898,-0.89231 -0.16175,-1.33945 z m 0.16175,4.00751 c -0.0359,0.44565 -0.0898,0.89231 -0.16175,1.33945 0.0719,-0.44714 0.12579,-0.89367 0.16175,-1.33945 z m -100.966964,5.3e-4 c 0.03598,0.44563 0.08982,0.89248 0.161747,1.33946 -0.07195,-0.44715 -0.125867,-0.89368 -0.161747,-1.33946 z m 100.227994,3.79047 9.95133,43.53016 c -0.04,11.19531 -6.56513,21.39448 -17.31832,28.87317 -10.786,7.50155 -25.78421,12.18923 -42.37262,12.18944 -16.588785,2.1e-4 -31.586715,-4.68788 -42.373117,-12.18945 C 53.18445,186.13447 46.659513,175.93561 46.61972,164.74001 l 9.947713,-43.51311 c 1.680093,5.43682 6.019661,10.80347 13.038481,15.21458 9.255019,5.81658 22.885773,9.46057 36.701636,9.4604 13.81552,-1.8e-4 27.44645,-3.64384 36.70112,-9.4604 7.02591,-4.41573 11.36641,-9.78902 13.0421,-15.23163 z" />
    <path
       id="path852"
       style="color:#000000;font-style:normal;font-variant:normal;font-weight:normal;font-stretch:normal;font-size:medium;line-height:normal;font-family:sans-serif;font-variant-ligatures:normal;font-variant-position:normal;font-variant-caps:normal;font-variant-numeric:normal;font-variant-alternates:normal;font-variant-east-asian:normal;font-feature-settings:normal;font-variation-settings:normal;text-indent:0;text-align:start;text-decoration:none;text-decoration-line:none;text-decoration-style:solid;text-decoration-color:#000000;letter-spacing:normal;word-spacing:normal;text-transform:none;writing-mode:lr-tb;direction:ltr;text-orientation:mixed;dominant-baseline:auto;baseline-shift:baseline;text-anchor:start;white-space:normal;shape-padding:0;shape-margin:0;inline-size:0;clip-rule:nonzero;display:inline;overflow:visible;visibility:visible;isolation:auto;mix-blend-mode:normal;color-interpolation:sRGB;color-interpolation-filters:linearRGB;solid-color:#000000;solid-opacity:1;vector-effect:none;fill:#1a1a1a;fill-opacity:1;fill-rule:nonzero;stroke:none;stroke-width:2.11109;stroke-linecap:butt;stroke-linejoin:miter;stroke-miterlimit:4;stroke-dasharray:none;stroke-dashoffset:0;stroke-opacity:1;color-rendering:auto;image-rendering:auto;shape-rendering:auto;text-rendering:auto;enable-background:accumulate;stop-color:#000000"
       sodipodi:type="inkscape:offset"
       inkscape:radius="0"
       inkscape:original="M 105.7207 89.498047 C 91.923925 89.515847 78.327579 93.167019 69.095703 98.980469 C 59.883387 104.78161 55.2932 112.23008 55.292969 119.31641 C 55.2932 126.41177 59.89437 133.86827 69.128906 139.67188 C 78.383925 145.48845 92.014216 149.13298 105.83008 149.13281 C 119.6456 149.13263 133.27658 145.48843 142.53125 139.67188 C 151.76543 133.86827 156.36707 126.41146 156.36719 119.31641 C 156.36707 112.22138 151.76543 104.76261 142.53125 98.958984 C 133.27658 93.142429 119.6456 89.498203 105.83008 89.498047 L 105.81836 89.498047 C 105.78596 89.498027 105.75506 89.498027 105.72266 89.498047 L 105.72266 91.496094 C 105.75396 91.496074 105.78511 91.496074 105.81641 91.496094 L 105.82812 91.496094 C 119.2009 91.49626 132.48105 95.08498 141.24609 100.59375 C 150.03162 106.11546 154.13074 112.99287 154.13086 119.31641 C 154.13074 125.63996 150.03162 132.51733 141.24609 138.03906 C 132.48105 143.54782 119.20089 147.1346 105.82812 147.13477 C 92.455021 147.13494 79.175671 143.54793 70.410156 138.03906 C 61.624162 132.51724 57.523553 125.63996 57.523438 119.31641 C 57.523553 113.00067 61.612366 106.13237 70.376953 100.61328 C 79.119322 95.108046 92.366683 91.513685 105.7207 91.496094 L 105.7207 89.498047 z "
       transform="matrix(0.88262709,0,0,0.82142981,12.897707,18.075602)"
       d="m 105.7207,89.498047 c -13.796775,0.0178 -27.393121,3.668972 -36.624997,9.482422 -9.212316,5.801141 -13.802503,13.249611 -13.802734,20.335941 2.31e-4,7.09536 4.601401,14.55186 13.835937,20.35547 9.255019,5.81657 22.88531,9.4611 36.701174,9.46093 13.81552,-1.8e-4 27.4465,-3.64438 36.70117,-9.46093 9.23418,-5.80361 13.83582,-13.26042 13.83594,-20.35547 -1.2e-4,-7.09503 -4.60176,-14.5538 -13.83594,-20.357426 -9.25467,-5.816555 -22.88565,-9.460781 -36.70117,-9.460937 h -0.0117 c -0.0324,-2e-5 -0.0633,-2e-5 -0.0957,0 v 1.998047 c 0.0313,-2e-5 0.0624,-2e-5 0.0937,0 h 0.0117 c 13.37278,1.66e-4 26.65293,3.588886 35.41797,9.097656 8.78553,5.52171 12.88465,12.39912 12.88477,18.72266 -1.2e-4,6.32355 -4.09924,13.20092 -12.88477,18.72265 -8.76504,5.50876 -22.0452,9.09554 -35.41797,9.09571 -13.373099,1.7e-4 -26.652449,-3.58684 -35.417964,-9.09571 -8.785994,-5.52182 -12.886603,-12.3991 -12.886718,-18.72265 1.15e-4,-6.31574 4.088928,-13.18404 12.853515,-18.70313 8.742369,-5.505234 21.98973,-9.099595 35.343747,-9.117186 z" />
  </g>
</svg>
