<?xml version="1.0" encoding="UTF-8" standalone="no"?>
<svg
   xmlns:dc="http://purl.org/dc/elements/1.1/"
   xmlns:cc="http://creativecommons.org/ns#"
   xmlns:rdf="http://www.w3.org/1999/02/22-rdf-syntax-ns#"
   xmlns:svg="http://www.w3.org/2000/svg"
   xmlns="http://www.w3.org/2000/svg"
   xmlns:sodipodi="http://sodipodi.sourceforge.net/DTD/sodipodi-0.dtd"
   xmlns:inkscape="http://www.inkscape.org/namespaces/inkscape"
   width="117.77524mm"
   height="140.73775mm"
   viewBox="0 0 117.77524 140.73775"
   version="1.1"
   id="svg8"
   sodipodi:docname="doniczka.svg"
   inkscape:version="1.0.1 (3bc2e813f5, 2020-09-07)">
  <defs
     id="defs2" />
  <sodipodi:namedview
     id="base"
     pagecolor="#ffffff"
     bordercolor="#666666"
     borderopacity="1.0"
     inkscape:pageopacity="0.0"
     inkscape:pageshadow="2"
     inkscape:zoom="0.25"
     inkscape:cx="1764.7694"
     inkscape:cy="119.20345"
     inkscape:document-units="mm"
     inkscape:current-layer="layer1"
     inkscape:document-rotation="0"
     showgrid="false"
     inkscape:snap-smooth-nodes="true"
     inkscape:snap-nodes="false"
     inkscape:window-width="1920"
     inkscape:window-height="1017"
     inkscape:window-x="1432"
     inkscape:window-y="-8"
     inkscape:window-maximized="1" />
  <metadata
     id="metadata5">
    <rdf:RDF>
      <cc:Work
         rdf:about="">
        <dc:format>image/svg+xml</dc:format>
        <dc:type
           rdf:resource="http://purl.org/dc/dcmitype/StillImage" />
      </cc:Work>
    </rdf:RDF>
  </metadata>
  <g
     inkscape:label="Warstwa 1"
     inkscape:groupmode="layer"
     id="layer1"
     transform="translate(-49.890691,-117.30705)">
    <g
       id="g874">
      <path
         style="color:#000000;font-style:normal;font-variant:normal;font-weight:normal;font-stretch:normal;font-size:medium;line-height:normal;font-family:sans-serif;font-variant-ligatures:normal;font-variant-position:normal;font-variant-caps:normal;font-variant-numeric:normal;font-variant-alternates:normal;font-variant-east-asian:normal;font-feature-settings:normal;font-variation-settings:normal;text-indent:0;text-align:start;text-decoration:none;text-decoration-line:none;text-decoration-style:solid;text-decoration-color:#000000;letter-spacing:normal;word-spacing:normal;text-transform:none;writing-mode:lr-tb;direction:ltr;text-orientation:mixed;dominant-baseline:auto;baseline-shift:baseline;text-anchor:start;white-space:normal;shape-padding:0;shape-margin:0;inline-size:0;clip-rule:nonzero;display:inline;overflow:visible;visibility:visible;opacity:1;isolation:auto;mix-blend-mode:normal;color-interpolation:sRGB;color-interpolation-filters:linearRGB;solid-color:#000000;solid-opacity:1;vector-effect:none;fill:#a2472c;fill-opacity:1;fill-rule:nonzero;stroke:none;stroke-width:1.32292;stroke-linecap:butt;stroke-linejoin:miter;stroke-miterlimit:4;stroke-dasharray:none;stroke-dashoffset:0;stroke-opacity:1;color-rendering:auto;image-rendering:auto;shape-rendering:auto;text-rendering:auto;enable-background:accumulate;stop-color:#000000"
         d="m 55.43951,139.02924 c -2.540931,2.6e-4 -4.5072,2.22653 -4.193542,4.74803 l 11.379149,91.67192 v 0.002 c 0,0 0,5.3e-4 0,5.3e-4 0.0013,5.07336 4.440738,10.55337 12.971301,14.66784 8.532008,4.11517 20.81951,6.60228 33.183502,6.60218 12.36372,-1e-4 24.65236,-2.48705 33.18402,-6.60218 8.53166,-4.11514 12.9698,-9.59645 12.96975,-14.67042 l 11.37709,-91.674 c 0.31229,-2.52072 -1.65355,-4.74553 -4.19355,-4.74596 z"
         id="path929" />
      <path
         id="path1856"
         style="opacity:1;fill:#483737;fill-opacity:0.483796;stroke:none;stroke-width:4.96804;stroke-miterlimit:4;stroke-dasharray:none;stroke-opacity:1"
         d="m 583.38477,890.80664 c -0.72835,0.60447 -1.30849,1.22224 -2.07813,1.82227 -2.87387,2.24049 -6.03639,4.44887 -9.48633,6.60937 -3.44993,2.16051 -7.18841,4.27208 -11.21484,6.32422 -4.02644,2.05214 -8.34,4.04358 -12.94336,5.95898 -4.6013,1.91456 -9.46477,3.73645 -14.55664,5.45899 -5.09187,1.72254 -10.4136,3.34626 -15.93164,4.86328 -5.51804,1.51702 -11.23153,2.92859 -17.11133,4.22656 -5.8798,1.29798 -11.9244,2.48146 -18.10156,3.54688 -6.17716,1.06542 -12.48833,2.01268 -18.89844,2.83203 -6.41011,0.81935 -12.91938,1.51055 -19.49805,2.07031 -6.57866,0.55976 -13.22539,0.98678 -19.9082,1.27344 -6.68281,0.28666 -13.40244,0.43355 -20.125,0.43359 -6.72269,5e-5 -13.44222,-0.14699 -20.125,-0.43359 -6.68278,-0.28661 -13.32773,-0.71175 -19.90625,-1.27149 -6.57852,-0.55973 -13.0901,-1.25291 -19.5,-2.07226 -6.4099,-0.81935 -12.71956,-1.76464 -18.89648,-2.83008 -6.17693,-1.06544 -12.22001,-2.25082 -18.09961,-3.54883 -5.87961,-1.298 -11.59536,-2.70951 -17.11329,-4.22656 -5.51791,-1.51705 -10.83974,-3.14071 -15.93164,-4.86328 -5.09189,-1.72258 -9.95317,-3.54441 -14.55468,-5.45899 -4.60279,-1.9151 -8.91721,-3.90526 -12.94336,-5.95703 -3.00799,-1.53289 -5.6926,-3.12925 -8.37891,-4.72461 a 173.1914,69.719613 0 0 0 1.51758,6.83594 173.1914,69.719613 0 0 0 171.53711,60.11133 173.1914,69.719613 0 0 0 173.1914,-69.71875 173.1914,69.719613 0 0 0 -0.0215,-1.06836 173.1914,69.719613 0 0 0 -0.92187,-6.19336 z"
         transform="scale(0.26458333)" />
      <path
         id="rect1954"
         style="opacity:1;fill:#763f31;fill-opacity:1;stroke:none;stroke-width:0.807301;stroke-miterlimit:4;stroke-dasharray:none;stroke-opacity:1"
         d="m 152.22723,142.97892 -11.45165,104.74063 4.12241,0.80177 c 7.03965,-4.01991 10.6972,-9.25006 10.69716,-14.1036 l 9.82207,-88.87256 z" />
      <path
         style="color:#000000;font-style:normal;font-variant:normal;font-weight:normal;font-stretch:normal;font-size:medium;line-height:normal;font-family:sans-serif;font-variant-ligatures:normal;font-variant-position:normal;font-variant-caps:normal;font-variant-numeric:normal;font-variant-alternates:normal;font-variant-east-asian:normal;font-feature-settings:normal;font-variation-settings:normal;text-indent:0;text-align:start;text-decoration:none;text-decoration-line:none;text-decoration-style:solid;text-decoration-color:#000000;letter-spacing:normal;word-spacing:normal;text-transform:none;writing-mode:lr-tb;direction:ltr;text-orientation:mixed;dominant-baseline:auto;baseline-shift:baseline;text-anchor:start;white-space:normal;shape-padding:0;shape-margin:0;inline-size:0;clip-rule:nonzero;display:inline;overflow:visible;visibility:visible;isolation:auto;mix-blend-mode:normal;color-interpolation:sRGB;color-interpolation-filters:linearRGB;solid-color:#000000;solid-opacity:1;vector-effect:none;fill:#241c1c;fill-opacity:1;fill-rule:nonzero;stroke:#241c1c;stroke-width:1.323;stroke-linecap:butt;stroke-linejoin:miter;stroke-miterlimit:4;stroke-dasharray:none;stroke-dashoffset:0;stroke-opacity:1;color-rendering:auto;image-rendering:auto;shape-rendering:auto;text-rendering:auto;enable-background:accumulate;stop-color:#000000"
         d="m 55.43951,138.36778 c -2.927257,2.6e-4 -5.21118,2.58627 -4.849833,5.49114 l 11.373982,91.6311 v -0.0382 c 0.0016,5.45909 4.688755,11.08838 13.345438,15.26367 8.661902,4.17782 21.018121,6.66791 33.470823,6.66781 12.45242,-1e-4 24.80975,-2.49 33.47134,-6.66781 8.65783,-4.17599 13.34395,-9.80655 13.34389,-15.26625 l -0.005,0.0817 11.37709,-91.67399 v -5.3e-4 c 0.35978,-2.90398 -1.92365,-5.48806 -4.84984,-5.48855 z m 0,1.32292 h 106.67772 c 2.1538,2.6e-4 3.80207,1.86592 3.53726,4.00337 l -11.38226,91.7143 v 0.0408 c 5e-5,4.68826 -4.19012,10.02031 -12.59561,14.07459 -8.40173,4.05247 -20.62168,6.53646 -32.8967,6.53656 -12.275283,1e-4 -24.494067,-2.48404 -32.89618,-6.53656 -8.404445,-4.05363 -12.59582,-9.38436 -12.597164,-14.07201 v -5.3e-4 -0.0429 l -11.384317,-91.7127 c -0.26597,-2.13813 1.382646,-4.00469 3.537251,-4.00492 z"
         id="path931" />
      <path
         id="path936"
         style="color:#000000;font-style:normal;font-variant:normal;font-weight:normal;font-stretch:normal;font-size:medium;line-height:normal;font-family:sans-serif;font-variant-ligatures:normal;font-variant-position:normal;font-variant-caps:normal;font-variant-numeric:normal;font-variant-alternates:normal;font-variant-east-asian:normal;font-feature-settings:normal;font-variation-settings:normal;text-indent:0;text-align:start;text-decoration:none;text-decoration-line:none;text-decoration-style:solid;text-decoration-color:#000000;letter-spacing:normal;word-spacing:normal;text-transform:none;writing-mode:lr-tb;direction:ltr;text-orientation:mixed;dominant-baseline:auto;baseline-shift:baseline;text-anchor:start;white-space:normal;shape-padding:0;shape-margin:0;inline-size:0;clip-rule:nonzero;display:inline;overflow:visible;visibility:visible;opacity:0.999;isolation:auto;mix-blend-mode:normal;color-interpolation:sRGB;color-interpolation-filters:linearRGB;solid-color:#000000;solid-opacity:1;vector-effect:none;fill:#6d2e1d;fill-opacity:1;fill-rule:nonzero;stroke:none;stroke-width:1.20495;stroke-linecap:butt;stroke-linejoin:miter;stroke-miterlimit:4;stroke-dasharray:none;stroke-dashoffset:0;stroke-opacity:1;color-rendering:auto;image-rendering:auto;shape-rendering:auto;text-rendering:auto;enable-background:accumulate;stop-color:#000000"
         d="m 108.03888,119.10177 c -2.77181,0.0164 -5.52905,0.1149 -8.287792,0.30427 -0.845434,0.0551 -1.680385,0.12816 -2.535836,0.19854 -0.509876,0.0485 -1.073883,0.0986 -1.604208,0.1535 -4.13933,0.42279 -8.259598,1.04917 -12.318455,1.92235 -1.769266,0.38092 -3.569835,0.8187 -5.313521,1.30111 -4.076414,1.13037 -8.070167,2.53212 -11.891317,4.3755 -0.709078,0.34254 -1.37696,0.68465 -2.078207,1.06385 -0.845177,0.45779 -1.67346,0.93946 -2.473692,1.44593 -2.614708,1.65632 -5.085154,3.61757 -6.989141,6.07745 -1.498261,1.9329 -2.600762,4.24423 -2.794661,6.70599 -0.195464,2.2325 0.391556,4.48744 1.481333,6.43117 1.417161,2.54443 3.539244,4.61989 5.840941,6.36966 1.13597,0.85948 2.339899,1.64852 3.552468,2.36252 1.029946,0.6066 2.100107,1.1764 3.146433,1.69106 3.797967,1.8625 7.776922,3.28161 11.834678,4.42503 2.151448,0.60553 4.355155,1.1348 6.545275,1.58571 4.294539,0.88698 8.66567,1.50005 13.043776,1.89376 0.530476,0.0424 1.124106,0.0948 1.663425,0.13586 4.285161,0.32325 8.607581,0.43213 12.924201,0.33643 2.70492,-0.0612 5.41313,-0.2018 8.09437,-0.43275 3.81625,-0.32233 7.67025,-0.82705 11.45671,-1.52826 2.09423,-0.38832 4.18727,-0.84047 6.26528,-1.36503 4.61657,-1.1693 9.15483,-2.66871 13.47762,-4.71044 0.95311,-0.45133 1.84837,-0.90874 2.77805,-1.41949 0.75593,-0.41821 1.49008,-0.84879 2.209,-1.30557 2.6124,-1.65978 5.07988,-3.62557 6.9766,-6.09117 1.49263,-1.93721 2.58573,-4.25394 2.76645,-6.71675 0.0894,-1.12697 -0.0119,-2.267 -0.28285,-3.36402 -0.0341,-0.13071 -0.0894,-0.34619 -0.13941,-0.509 -0.76386,-2.55796 -2.38655,-4.77234 -4.27569,-6.6214 -2.51927,-2.45484 -5.51858,-4.36138 -8.63727,-5.96058 -1.33403,-0.68286 -2.69993,-1.30208 -4.08302,-1.87865 -0.26983,-0.10752 -0.60814,-0.24904 -0.88177,-0.35679 -2.1115,-0.8394 -4.29613,-1.57892 -6.45525,-2.21824 -3.12384,-0.92107 -6.3342,-1.67642 -9.55176,-2.27712 -0.44425,-0.0833 -0.8889,-0.16421 -1.33439,-0.24056 -1.55647,2.51907 -3.11317,5.038 -4.66948,7.55716 -1.82558,-2.95495 -3.65148,-5.9097 -5.47719,-8.86457 -3.96798,-0.34157 -7.98326,-0.49812 -11.9817,-0.47646 z" />
      <path
         id="path943"
         style="color:#000000;font-style:normal;font-variant:normal;font-weight:normal;font-stretch:normal;font-size:medium;line-height:normal;font-family:sans-serif;font-variant-ligatures:normal;font-variant-position:normal;font-variant-caps:normal;font-variant-numeric:normal;font-variant-alternates:normal;font-variant-east-asian:normal;font-feature-settings:normal;font-variation-settings:normal;text-indent:0;text-align:start;text-decoration:none;text-decoration-line:none;text-decoration-style:solid;text-decoration-color:#000000;letter-spacing:normal;word-spacing:normal;text-transform:none;writing-mode:lr-tb;direction:ltr;text-orientation:mixed;dominant-baseline:auto;baseline-shift:baseline;text-anchor:start;white-space:normal;shape-padding:0;shape-margin:0;inline-size:0;clip-rule:nonzero;display:inline;overflow:visible;visibility:visible;opacity:0.999;isolation:auto;mix-blend-mode:normal;color-interpolation:sRGB;color-interpolation-filters:linearRGB;solid-color:#000000;solid-opacity:1;vector-effect:none;fill:#4c2015;fill-opacity:1;fill-rule:nonzero;stroke:none;stroke-width:1.20495;stroke-linecap:butt;stroke-linejoin:miter;stroke-miterlimit:4;stroke-dasharray:none;stroke-dashoffset:0;stroke-opacity:1;color-rendering:auto;image-rendering:auto;shape-rendering:auto;text-rendering:auto;enable-background:accumulate;stop-color:#000000"
         d="m 107.01414,121.32644 c -6.23451,0.094 -12.463882,0.64313 -18.612301,1.68414 -3.214428,0.55025 -6.454907,1.2451 -9.61957,2.10962 -2.035892,0.55906 -4.104672,1.20444 -6.084959,1.93145 -1.400805,0.51346 -2.787012,1.07385 -4.132667,1.68774 -1.32629,0.60299 -2.655697,1.28037 -3.901408,1.99475 -2.718642,1.57542 -5.314506,3.44899 -7.356766,5.85855 -1.403194,1.66677 -2.541937,3.64726 -2.840848,5.83372 -0.270287,1.87143 0.207468,3.78523 1.091219,5.43569 0.328091,0.61935 0.709263,1.20975 1.126522,1.77269 0.0716,0.0954 0.203213,0.26986 0.30181,0.3924 1.925685,2.4112 4.424402,4.29702 7.051243,5.88335 2.352366,1.40915 4.866212,2.58544 7.404185,3.5774 2.95366,1.15146 6.007073,2.08721 9.091364,2.86606 0.656407,0.16817 1.296381,0.31408 1.960673,0.47223 0.419907,0.0939 0.896475,0.20236 1.33921,0.298 0.942832,0.20045 1.895105,0.3952 2.825657,0.56618 1.530665,0.28782 3.068254,0.53763 4.609275,0.76312 0.521758,0.0715 1.096179,0.15511 1.639316,0.22329 1.400783,0.18197 2.819291,0.34217 4.208639,0.47129 0.872697,0.0834 1.75083,0.15714 2.608533,0.21941 1.646383,0.1225 3.295443,0.20649 4.945283,0.26526 0.5286,0.0125 1.1104,0.0343 1.6599,0.0427 2.18923,0.0454 4.37951,0.027 6.56802,-0.0432 0.52563,-0.0214 1.10518,-0.0403 1.65132,-0.0677 1.46566,-0.0686 2.94469,-0.16271 4.38997,-0.28365 2.17986,-0.17702 4.39457,-0.41891 6.58034,-0.72007 2.73117,-0.37324 5.49166,-0.85475 8.20635,-1.43618 1.08192,-0.23462 2.1273,-0.47743 3.20667,-0.74689 2.59535,-0.6519 5.155,-1.41176 7.6647,-2.31781 3.90881,-1.41944 7.75343,-3.20139 11.17292,-5.6133 1.91238,-1.36171 3.70262,-2.93292 5.11239,-4.82069 0.068,-0.0966 0.19782,-0.27069 0.28536,-0.3999 1.18775,-1.70265 2.03261,-3.72734 1.99759,-5.83165 -0.028,-2.12576 -0.93367,-4.14505 -2.16582,-5.84198 -0.11976,-0.16728 -0.22389,-0.30537 -0.36061,-0.48052 -1.84616,-2.34319 -4.24063,-4.19228 -6.76442,-5.75285 -2.50177,-1.53594 -5.19222,-2.79705 -7.91263,-3.85196 -3.50582,-1.35436 -7.10153,-2.39635 -10.76157,-3.24548 -2.08966,-0.48264 -4.19771,-0.89875 -6.31853,-1.25347 -1.12756,1.82488 -2.25534,3.64962 -3.38273,5.4746 -1.33231,-2.15668 -2.6648,-4.31325 -3.99718,-6.46988 -2.38689,-0.24726 -4.81308,-0.42669 -7.20949,-0.53367 -2.41548,-0.10911 -4.84713,-0.14536 -7.27696,-0.11281 z" />
      <path
         id="path1868"
         style="color:#000000;font-style:normal;font-variant:normal;font-weight:normal;font-stretch:normal;font-size:medium;line-height:normal;font-family:sans-serif;font-variant-ligatures:normal;font-variant-position:normal;font-variant-caps:normal;font-variant-numeric:normal;font-variant-alternates:normal;font-variant-east-asian:normal;font-feature-settings:normal;font-variation-settings:normal;text-indent:0;text-align:start;text-decoration:none;text-decoration-line:none;text-decoration-style:solid;text-decoration-color:#000000;letter-spacing:normal;word-spacing:normal;text-transform:none;writing-mode:lr-tb;direction:ltr;text-orientation:mixed;dominant-baseline:auto;baseline-shift:baseline;text-anchor:start;white-space:normal;shape-padding:0;shape-margin:0;inline-size:0;clip-rule:nonzero;display:inline;overflow:visible;visibility:visible;isolation:auto;mix-blend-mode:normal;color-interpolation:sRGB;color-interpolation-filters:linearRGB;solid-color:#000000;solid-opacity:1;vector-effect:none;fill:#502d16;fill-opacity:1;fill-rule:nonzero;stroke:none;stroke-width:0.868888;stroke-linecap:butt;stroke-linejoin:miter;stroke-miterlimit:4;stroke-dasharray:none;stroke-dashoffset:0;stroke-opacity:1;color-rendering:auto;image-rendering:auto;shape-rendering:auto;text-rendering:auto;enable-background:accumulate;stop-color:#000000"
         d="m 76.693484,128.44375 c -2.863376,0.0321 -6.068463,1.83486 -9.867223,5.26479 -4.447203,0.4528 -7.5717,2.31745 -11.311259,5.50931 l -0.383914,0.94258 -0.744065,1.90491 c -0.807128,6.78653 1.981414,9.95548 13.368966,15.74049 10.733506,5.45275 26.407413,8.49625 41.187391,8.42485 14.75577,-0.0713 28.62659,-2.26565 39.0341,-7.05228 7.71696,-3.54919 14.52872,-9.09639 14.65196,-14.24044 L 162.2552,140.317 c -7.70237,-4.05594 -11.69215,-13.64118 -24.49338,-9.73776 -4.14731,-1.37561 -7.39767,2.9578 -10.83966,6.79519 -3.005,-7.85391 -9.86896,-7.17672 -16.93379,-5.67781 -6.30996,-1.36781 -11.56478,-4.70377 -22.144242,2.2354 -3.510961,-2.40121 -6.965712,-5.53526 -11.150644,-5.48827 z"
         sodipodi:nodetypes="cccccsssccccccc" />
      <path
         id="path1870"
         style="color:#000000;font-style:normal;font-variant:normal;font-weight:normal;font-stretch:normal;font-size:medium;line-height:normal;font-family:sans-serif;font-variant-ligatures:normal;font-variant-position:normal;font-variant-caps:normal;font-variant-numeric:normal;font-variant-alternates:normal;font-variant-east-asian:normal;font-feature-settings:normal;font-variation-settings:normal;text-indent:0;text-align:start;text-decoration:none;text-decoration-line:none;text-decoration-style:solid;text-decoration-color:#000000;letter-spacing:normal;word-spacing:normal;text-transform:none;writing-mode:lr-tb;direction:ltr;text-orientation:mixed;dominant-baseline:auto;baseline-shift:baseline;text-anchor:start;white-space:normal;shape-padding:0;shape-margin:0;inline-size:0;clip-rule:nonzero;display:inline;overflow:visible;visibility:visible;isolation:auto;mix-blend-mode:normal;color-interpolation:sRGB;color-interpolation-filters:linearRGB;solid-color:#000000;solid-opacity:1;vector-effect:none;fill:#241c1c;fill-opacity:1;fill-rule:nonzero;stroke:none;stroke-width:0.955194;stroke-linecap:butt;stroke-linejoin:miter;stroke-miterlimit:4;stroke-dasharray:none;stroke-dashoffset:0;stroke-opacity:1;color-rendering:auto;image-rendering:auto;shape-rendering:auto;text-rendering:auto;enable-background:accumulate;stop-color:#000000"
         d="m 76.491904,127.58316 c -0.226411,0.003 -0.454775,0.0157 -0.685274,0.0382 -2.743707,0.26654 -5.794261,1.9243 -9.293468,5.74971 -4.389917,0.57565 -6.977194,1.29813 -10.684906,5.10662 l -0.991487,2.56078 c -0.0063,0.19213 -0.247638,-0.0234 -0.09371,1.20698 -1.6e-5,1.99017 -0.642435,2.20837 0.02711,4.23481 l 0.266891,-3.57815 -0.227785,-0.99391 0.187089,-0.74794 0.04305,-0.6462 c 3.666021,-3.81582 7.302767,-5.49368 11.665192,-6.03533 l 0.115073,-0.0149 0.09184,-0.10199 c 3.446597,-3.79491 6.346161,-5.35701 8.942059,-5.60056 v 7.6e-4 c 0.865301,-0.0812 1.695538,-0.0168 2.502166,0.16112 3.226516,0.71216 6.089929,3.29169 9.041653,5.75345 l 0.186799,0.15288 0.191443,-0.14167 c 10.439403,-7.77147 15.450031,-4.09262 21.802241,-2.65753 l 0.0547,0.0119 0.0526,-0.009 c 3.47762,-0.60106 6.98473,-1.33615 9.95036,-0.82963 2.96564,0.50651 5.35784,2.16824 6.83567,6.4834 l 0.23222,0.67974 0.38803,-0.50662 c 3.46542,-4.54755 6.86552,-7.93703 10.13406,-7.18638 l 0.0681,0.0172 0.0681,-0.0202 c 6.89253,-1.9085 11.15933,-0.40091 14.74262,2.09917 3.48495,2.43149 6.36102,5.83104 10.23519,7.98453 l -0.8251,8.04075 c 0.44389,-0.97166 0.81118,-1.94783 1.1017,-2.92432 l -0.18051,-5.49124 -0.0375,-0.41837 c -3.8911,-2.05666 -6.25543,-5.64966 -9.95061,-8.22782 -3.68334,-2.56993 -8.17771,-4.12696 -15.1678,-2.20935 -3.55566,-0.76042 -6.98694,2.73136 -10.35956,7.0897 -1.62165,-4.20323 -4.21241,-6.04592 -7.19069,-6.5546 -3.1054,-0.53038 -6.63204,0.22449 -10.07524,0.82139 -6.14522,-1.40088 -11.586238,-4.99679 -22.028773,2.66276 -2.880979,-2.4102 -5.77631,-5.01127 -9.148983,-5.7557 -0.644333,-0.14227 -1.305374,-0.21538 -1.9846,-0.20534 z"
         sodipodi:nodetypes="cccccccccccccccccccccccsccccccscccccsccsccccc" />
      <path
         id="path945"
         style="color:#000000;font-style:normal;font-variant:normal;font-weight:normal;font-stretch:normal;font-size:medium;line-height:normal;font-family:sans-serif;font-variant-ligatures:normal;font-variant-position:normal;font-variant-caps:normal;font-variant-numeric:normal;font-variant-alternates:normal;font-variant-east-asian:normal;font-feature-settings:normal;font-variation-settings:normal;text-indent:0;text-align:start;text-decoration:none;text-decoration-line:none;text-decoration-style:solid;text-decoration-color:#000000;letter-spacing:normal;word-spacing:normal;text-transform:none;writing-mode:lr-tb;direction:ltr;text-orientation:mixed;dominant-baseline:auto;baseline-shift:baseline;text-anchor:start;white-space:normal;shape-padding:0;shape-margin:0;inline-size:0;clip-rule:nonzero;display:inline;overflow:visible;visibility:visible;opacity:0.999;isolation:auto;mix-blend-mode:normal;color-interpolation:sRGB;color-interpolation-filters:linearRGB;solid-color:#000000;solid-opacity:1;vector-effect:none;fill:#241c1c;fill-opacity:1;fill-rule:nonzero;stroke:none;stroke-width:0.525524;stroke-linecap:butt;stroke-linejoin:miter;stroke-miterlimit:4;stroke-dasharray:none;stroke-dashoffset:0;stroke-opacity:1;color-rendering:auto;image-rendering:auto;shape-rendering:auto;text-rendering:auto;enable-background:accumulate;stop-color:#000000"
         d="m 108.23003,120.95383 c -14.475551,0.0444 -28.802311,2.64917 -38.819947,6.97258 -10.014699,4.32214 -15.369711,10.11713 -15.369324,15.64641 -5.9e-5,5.55459 5.409077,11.37536 15.507371,15.70265 10.102103,4.32891 24.536503,6.91644 39.07928,6.91634 14.54244,-1.1e-4 28.97756,-2.58745 39.0793,-6.91634 10.09791,-4.32728 15.5054,-10.14825 15.50534,-15.70265 6e-5,-5.55441 -5.40743,-11.37537 -15.50534,-15.70265 -5.40406,-2.31581 -11.79182,-4.0742 -19.02914,-5.26365 l -0.61969,0.9925 c 7.28017,1.17252 13.69328,2.92117 19.04589,5.21493 9.84178,4.21752 14.80654,9.7775 14.80648,14.75887 6e-5,4.98133 -4.9647,10.54137 -14.80648,14.75887 -9.83799,4.21587 -24.12305,6.79318 -38.47636,6.79328 -14.35362,1.1e-4 -28.637437,-2.57736 -38.475834,-6.79328 -9.842209,-4.21754 -14.808563,-9.7775 -14.808515,-14.75887 -3.42e-4,-4.95929 4.914846,-10.49026 14.674021,-14.70212 9.754026,-4.20964 23.92824,-6.80604 38.214968,-6.85004 h 0.002 0.002 0.002 c 0.12849,-1.9e-4 0.25378,-2e-4 0.38216,0 h 0.002 0.006 c 4.43659,3e-5 8.86637,0.24694 13.1606,0.71173 l -0.67857,-1.08744 -0.0412,-0.0658 c -4.07097,-0.40929 -8.25117,-0.6253 -12.44098,-0.62533 h -0.004 c -0.12945,-2.1e-4 -0.25842,-2e-4 -0.38774,0 z"
         sodipodi:nodetypes="sscssscsccscssscssccsscscccssss" />
      <path
         id="path2003"
         style="color:#000000;font-style:normal;font-variant:normal;font-weight:normal;font-stretch:normal;font-size:medium;line-height:normal;font-family:sans-serif;font-variant-ligatures:normal;font-variant-position:normal;font-variant-caps:normal;font-variant-numeric:normal;font-variant-alternates:normal;font-variant-east-asian:normal;font-feature-settings:normal;font-variation-settings:normal;text-indent:0;text-align:start;text-decoration:none;text-decoration-line:none;text-decoration-style:solid;text-decoration-color:#000000;letter-spacing:normal;word-spacing:normal;text-transform:none;writing-mode:lr-tb;direction:ltr;text-orientation:mixed;dominant-baseline:auto;baseline-shift:baseline;text-anchor:start;white-space:normal;shape-padding:0;shape-margin:0;inline-size:0;clip-rule:nonzero;display:inline;overflow:visible;visibility:visible;opacity:1;isolation:auto;mix-blend-mode:normal;color-interpolation:sRGB;color-interpolation-filters:linearRGB;solid-color:#000000;solid-opacity:1;vector-effect:none;fill:#241c1c;fill-opacity:1;fill-rule:nonzero;stroke:#241c1c;stroke-width:1.4087;stroke-linecap:butt;stroke-linejoin:miter;stroke-miterlimit:4;stroke-dasharray:none;stroke-dashoffset:0;stroke-opacity:1;color-rendering:auto;image-rendering:auto;shape-rendering:auto;text-rendering:auto;enable-background:accumulate;stop-color:#000000;stop-opacity:1"
         d="m 119.58144,119.09657 -0.96641,0.51296 1.51813,2.11816 5.44189,7.51361 4.67067,-6.46218 1.51992,-2.11817 -0.96641,-0.51295 -1.51813,2.11612 -0.002,0.002 -3.70428,5.12748 -4.47548,-6.1789 z" />
      <path
         id="path1876-7"
         style="opacity:1;fill:#714c1a;fill-opacity:0.368056;stroke:none;stroke-width:0.79375;stroke-miterlimit:4;stroke-dasharray:none;stroke-opacity:1"
         d="m 75.600178,149.79842 c -4e-6,1.71697 -2.191475,3.10885 -4.894791,3.10885 -2.703316,0 -4.894788,-1.39188 -4.894792,-3.10885 -5e-6,-1.71698 2.65449,-0.33074 5.357813,-0.33074 2.703322,1e-5 4.431775,-1.38623 4.43177,0.33074 z"
         sodipodi:nodetypes="sssss" />
      <path
         id="path1876-7-7"
         style="opacity:1;fill:#714c1a;fill-opacity:0.368056;stroke:none;stroke-width:0.79375;stroke-miterlimit:4;stroke-dasharray:none;stroke-opacity:1"
         d="m 97.963889,140.89851 c -0.0448,1.57007 -1.19326,2.36619 -4.82497,0.53777 -1.3398,-0.67453 -1.51651,3.3933 -2.08727,3.7617 -2.11693,1.36638 -4.421,-2.7809 -3.24115,-3.4065 1.51693,-0.80433 1.46386,-3.83647 4.16719,-3.83647 2.70332,1e-5 6.03514,1.22722 5.9862,2.9435 z"
         sodipodi:nodetypes="ssssss" />
      <path
         id="path1939"
         style="opacity:1;fill:#714c1a;fill-opacity:0.368056;stroke:none;stroke-width:0.79375;stroke-miterlimit:4;stroke-dasharray:none;stroke-opacity:1"
         d="m 151.23904,153.17064 c -1.56231,-0.16226 -2.27018,-1.36712 -0.17492,-4.8517 0.77298,-1.28552 -3.2702,-1.76638 -3.59482,-2.36312 -1.204,-2.21332 3.10418,-4.20032 3.63967,-2.97694 0.68846,1.57291 3.71606,1.74707 3.51361,4.44281 -0.20246,2.69572 -1.67575,5.92628 -3.38354,5.74895 z"
         sodipodi:nodetypes="ssssss" />
      <path
         id="path1941"
         style="opacity:1;fill:#714c1a;fill-opacity:0.368056;stroke:none;stroke-width:0.79375;stroke-miterlimit:4;stroke-dasharray:none;stroke-opacity:1"
         d="m 121.01979,134.82183 c 1.53245,0.77433 1.78643,3.35801 0.56727,5.7708 -1.21916,2.4128 -3.44978,3.74104 -4.98223,2.96671 -1.53246,-0.77433 0.90194,-2.51837 2.1211,-4.93117 1.21917,-2.4128 0.76142,-4.58067 2.29386,-3.80634 z"
         sodipodi:nodetypes="sssss"
         inkscape:transform-center-x="9.8221551"
         inkscape:transform-center-y="6.6416477" />
      <path
         id="path1943"
         style="opacity:1;fill:#714c1a;fill-opacity:0.368056;stroke:none;stroke-width:0.79375;stroke-miterlimit:4;stroke-dasharray:none;stroke-opacity:1"
         d="m 133.95549,152.57079 c -0.53534,1.58295 -6.40866,-1.66369 -7.34323,2.43216 -1.28743,5.64227 -4.80589,4.76428 -7.34323,-2.43216 -0.40522,-1.14929 4.03695,0.26521 7.34323,-2.43215 3.14244,-2.5637 7.77356,1.15971 7.34323,2.43215 z"
         sodipodi:nodetypes="sssss" />
      <path
         id="path938"
         style="color:#000000;font-style:normal;font-variant:normal;font-weight:normal;font-stretch:normal;font-size:medium;line-height:normal;font-family:sans-serif;font-variant-ligatures:normal;font-variant-position:normal;font-variant-caps:normal;font-variant-numeric:normal;font-variant-alternates:normal;font-variant-east-asian:normal;font-feature-settings:normal;font-variation-settings:normal;text-indent:0;text-align:start;text-decoration:none;text-decoration-line:none;text-decoration-style:solid;text-decoration-color:#000000;letter-spacing:normal;word-spacing:normal;text-transform:none;writing-mode:lr-tb;direction:ltr;text-orientation:mixed;dominant-baseline:auto;baseline-shift:baseline;text-anchor:start;white-space:normal;shape-padding:0;shape-margin:0;inline-size:0;clip-rule:nonzero;display:inline;overflow:visible;visibility:visible;opacity:0.999;isolation:auto;mix-blend-mode:normal;color-interpolation:sRGB;color-interpolation-filters:linearRGB;solid-color:#000000;solid-opacity:1;vector-effect:none;fill:#241c1c;fill-opacity:1;fill-rule:nonzero;stroke:#241c1c;stroke-width:5;stroke-linecap:butt;stroke-linejoin:miter;stroke-miterlimit:4;stroke-dasharray:none;stroke-dashoffset:0;stroke-opacity:1;color-rendering:auto;image-rendering:auto;shape-rendering:auto;text-rendering:auto;enable-background:accumulate;stop-color:#000000"
         d="m 411.13477,445.86523 c -60.3737,0 -115.04267,10.56929 -154.82032,27.79297 -19.88882,8.61185 -36.07262,18.88645 -47.37695,30.45899 -11.30433,11.57253 -17.75391,24.5517 -17.75391,38.27539 1e-5,13.72373 6.44957,26.7009 17.75391,38.27344 11.30434,11.57249 27.48813,21.84714 47.37695,30.45898 39.77765,17.22369 94.44664,27.79297 154.82032,27.79297 60.37364,-4e-5 115.03486,-10.56928 154.8125,-27.79297 19.88881,-8.61184 36.07261,-18.88649 47.37695,-30.45898 11.30434,-11.57254 17.75387,-24.54971 17.7539,-38.27344 0,-13.72369 -6.44956,-26.70286 -17.7539,-38.27539 -11.30434,-11.57254 -27.48814,-21.84714 -47.37695,-30.45899 -20.89299,-9.04664 -43.29001,-15.67836 -71.06637,-20.48602 l -2.58985,4.18945 c 28.2075,4.75552 50.91037,11.41047 71.84762,20.47626 19.50127,8.44403 35.19705,18.48168 45.92188,29.46094 10.72482,10.97926 16.46289,22.79108 16.46289,35.09375 0,12.30266 -5.73807,24.11253 -16.46289,35.0918 -10.72483,10.97926 -26.42061,21.01885 -45.92188,29.46289 -39.00253,16.88806 -93.1631,27.41601 -153.0039,27.41601 -59.84083,0 -114.00919,-10.52795 -153.01172,-27.41601 -19.50127,-8.44404 -35.199,-18.48363 -45.92383,-29.46289 -10.72483,-10.97927 -16.46093,-22.78914 -16.46094,-35.0918 0,-12.30267 5.73612,-24.11449 16.46094,-35.09375 10.72482,-10.97926 26.42256,-21.01691 45.92383,-29.46094 39.00253,-16.88802 93.17088,-27.41797 153.01172,-27.41797 15.48964,0 27.78156,0.77475 42.3457,2.11328 l -2.99024,-4.84179 c -13.64824,-1.15342 -24.92989,-1.82618 -39.35546,-1.82618 z"
         sodipodi:nodetypes="ssssssssssssccssssssssssssccs"
         transform="scale(0.26458333)" />
      <path
         id="path1876-7-6"
         style="opacity:1;fill:#714c1a;fill-opacity:0.368056;stroke:none;stroke-width:0.750141;stroke-miterlimit:4;stroke-dasharray:none;stroke-opacity:1"
         d="m 99.08775,154.49425 c 0,2.27643 -1.47626,4.12185 -3.29731,4.12185 -1.821059,0 -3.297316,-1.84542 -3.297323,-4.12185 0,-2.27645 1.788165,-0.43851 3.609233,-0.43851 1.82106,0 2.9854,-1.83793 2.9854,0.43851 z"
         sodipodi:nodetypes="sssss" />
      <rect
         style="opacity:1;fill:#f2f2f2;fill-opacity:0.113426;stroke:none;stroke-width:0.79375;stroke-miterlimit:4;stroke-dasharray:none;stroke-opacity:1"
         id="rect1956"
         width="1.0583333"
         height="9.5249996"
         x="161.13124"
         y="191.29375" />
      <path
         style="fill:#763f31;fill-opacity:1;stroke:none;stroke-width:0.264583px;stroke-linecap:butt;stroke-linejoin:miter;stroke-opacity:1"
         d="m 136.11159,244.27656 c 4.09696,-2.02601 4.96407,-4.6221 5.88698,-7.67292 l 2.14974,7.87136 z"
         id="path1977"
         sodipodi:nodetypes="cccc" />
      <path
         id="path1979"
         style="opacity:1;fill:#714c1a;fill-opacity:0.368056;stroke:none;stroke-width:0.262951;stroke-miterlimit:4;stroke-dasharray:none;stroke-opacity:1"
         d="m 108.81217,145.80928 c -0.0148,0.52013 -0.3953,0.78386 -1.5984,0.17815 -0.44385,-0.22346 -0.50239,1.12412 -0.69147,1.24616 -0.70129,0.45265 -1.46458,-0.92124 -1.07372,-1.12849 0.50252,-0.26646 0.48495,-1.27094 1.3805,-1.27094 0.89554,1e-5 1.9993,0.40655 1.98309,0.97512 z"
         sodipodi:nodetypes="ssssss" />
      <path
         id="path1987"
         style="opacity:1;fill:#714c1a;fill-opacity:0.368056;stroke:none;stroke-width:0.325736;stroke-miterlimit:4;stroke-dasharray:none;stroke-opacity:1"
         d="m 79.507841,139.90184 c -0.219691,0.6496 -2.629963,-0.68274 -3.013488,0.9981 -0.528331,2.31545 -1.972224,1.95515 -3.013488,-0.9981 -0.166293,-0.47165 1.656669,0.10883 3.013488,-0.9981 1.289583,-1.05208 3.190085,0.47592 3.013488,0.9981 z"
         sodipodi:nodetypes="sssss" />
      <path
         id="path1991"
         style="opacity:1;fill:#714c1a;fill-opacity:0.368056;stroke:none;stroke-width:0.494371;stroke-miterlimit:4;stroke-dasharray:none;stroke-opacity:1"
         d="m 141.68158,140.81606 c -0.48052,0.95536 -2.08941,1.11649 -3.59357,0.35993 -1.50416,-0.75656 -2.33399,-2.14432 -1.85347,-3.09967 0.48051,-0.95535 1.56956,0.55887 3.07372,1.31543 1.50414,0.75657 2.85384,0.46897 2.37332,1.42431 z"
         sodipodi:nodetypes="sssss" />
    </g>
  </g>
</svg>
