<?xml version="1.0" encoding="UTF-8" standalone="no"?>
<svg
   xmlns:dc="http://purl.org/dc/elements/1.1/"
   xmlns:cc="http://creativecommons.org/ns#"
   xmlns:rdf="http://www.w3.org/1999/02/22-rdf-syntax-ns#"
   xmlns:svg="http://www.w3.org/2000/svg"
   xmlns="http://www.w3.org/2000/svg"
   xmlns:sodipodi="http://sodipodi.sourceforge.net/DTD/sodipodi-0.dtd"
   xmlns:inkscape="http://www.inkscape.org/namespaces/inkscape"
   width="2000"
   height="2000"
   viewBox="0 0 529.16665 529.16668"
   version="1.1"
   id="svg8"
   sodipodi:docname="konwalia.svg"
   inkscape:version="1.0.1 (0767f8302a, 2020-10-17)">
  <defs
     id="defs2" />
  <sodipodi:namedview
     id="base"
     pagecolor="#ffffff"
     bordercolor="#666666"
     borderopacity="1.0"
     inkscape:pageopacity="0.0"
     inkscape:pageshadow="2"
     inkscape:zoom="0.35"
     inkscape:cx="386.83964"
     inkscape:cy="967.7029"
     inkscape:document-units="mm"
     inkscape:current-layer="layer1"
     inkscape:document-rotation="0"
     showgrid="false"
     units="px"
     showguides="false"
     inkscape:object-nodes="false"
     inkscape:window-width="1920"
     inkscape:window-height="1016"
     inkscape:window-x="0"
     inkscape:window-y="27"
     inkscape:window-maximized="1" />
  <metadata
     id="metadata5">
    <rdf:RDF>
      <cc:Work
         rdf:about="">
        <dc:format>image/svg+xml</dc:format>
        <dc:type
           rdf:resource="http://purl.org/dc/dcmitype/StillImage" />
        <dc:title></dc:title>
      </cc:Work>
    </rdf:RDF>
  </metadata>
  <g
     inkscape:label="Layer 1"
     inkscape:groupmode="layer"
     id="layer1">
    <path
       id="path984"
       style="fill:#d3cccc;fill-opacity:1;fill-rule:nonzero;stroke:#aeaeae;stroke-width:4.08731;stroke-linecap:round;stroke-linejoin:round;stroke-miterlimit:4;stroke-dasharray:none;stroke-opacity:1"
       d="m 294.555,139.96127 c -7.07314,-2.81566 -17.03693,5.16106 -22.27478,17.83258 -2.89724,6.25614 -7.84531,8.59041 -12.90268,10.67049 l 5.52493,2.2281 a 5.4848368,6.1738529 24.311781 0 1 4.95418,-0.63708 5.4848368,6.1738529 24.311781 0 1 0.0334,0.014 5.4848368,6.1738529 24.311781 0 1 3.12044,3.89345 l 1.77582,0.71619 a 6.0059444,6.760423 24.311781 0 1 6.15407,-1.21095 6.0059444,6.760423 24.311781 0 1 3.53764,5.11948 l 1.37245,0.55347 a 5.4848368,6.1738529 24.311781 0 1 5.36571,-0.89663 5.4848368,6.1738529 24.311781 0 1 3.19699,4.34984 l 4.35592,1.7567 c -2.29633,-5.97745 -2.90014,-11.33316 -0.87698,-16.22761 5.24701,-12.69388 3.76711,-25.29645 -3.30548,-28.14866 -0.0108,-0.004 -0.0215,-0.008 -0.032,-0.0126 z"
       inkscape:transform-center-x="7.6922522"
       inkscape:transform-center-y="-3.8134481"
       inkscape:export-filename="/home/pangolingila/snap/inkscape/8049/path984.png"
       inkscape:export-xdpi="95.370003"
       inkscape:export-ydpi="95.370003" />
    <path
       id="path833"
       style="fill:#5bb529;fill-opacity:1;fill-rule:nonzero;stroke:#008000;stroke-width:3.452;stroke-linecap:round;stroke-linejoin:round;stroke-miterlimit:4;stroke-dasharray:none;stroke-opacity:1"
       d="M 222.83957,64.552837 C 180.23704,59.697547 133.21288,76.85776 132.681,102.50264 138.09117,84.895583 182.18079,72.024281 202.70013,72.184778 306.33121,74.420298 312.66112,140.2198 321.90895,322.67169 l 9.23505,0.81698 C 323.23498,135.31654 310.96838,74.596627 222.83957,64.552837 Z"
       sodipodi:nodetypes="sccccs"
       inkscape:export-filename="/home/pangolingila/snap/inkscape/8049/path984.png"
       inkscape:export-xdpi="95.370003"
       inkscape:export-ydpi="95.370003" />
    <path
       id="path857"
       style="fill:#d3cccc;fill-opacity:1;fill-rule:nonzero;stroke:#aeaeae;stroke-width:4.08731;stroke-linecap:round;stroke-linejoin:round;stroke-miterlimit:4;stroke-dasharray:none;stroke-opacity:1"
       d="m 155.80233,87.300503 c -7.59028,0.587485 -13.02223,12.137333 -12.14352,25.820567 0.15443,6.89274 -3.25974,11.16774 -6.88397,15.2627 l 5.94154,-0.43307 a 6.1738529,5.4848368 88.179381 0 1 4.16714,-2.75402 6.1738529,5.4848368 88.179381 0 1 0.0362,-0.002 6.1738529,5.4848368 88.179381 0 1 4.51632,2.12107 l 1.90973,-0.13938 a 6.760423,6.0059444 88.179381 0 1 4.99163,-3.79771 6.760423,6.0059444 88.179381 0 1 5.43088,3.03801 l 1.4759,-0.10808 a 6.1738529,5.4848368 88.179381 0 1 4.42225,-3.16832 6.1738529,5.4848368 88.179381 0 1 4.78608,2.49712 l 4.68439,-0.34147 c -4.69435,-4.35502 -7.59533,-8.89731 -7.93472,-14.18255 -0.88037,-13.707338 -7.75973,-24.369832 -15.3656,-23.815402 -0.0114,8.1e-4 -0.0229,0.0017 -0.0344,0.0025 z"
       inkscape:export-filename="/home/pangolingila/snap/inkscape/8049/path984.png"
       inkscape:export-xdpi="95.370003"
       inkscape:export-ydpi="95.370003" />
    <path
       id="path924"
       style="fill:#d3cccc;fill-opacity:1;fill-rule:nonzero;stroke:#aeaeae;stroke-width:4.35862;stroke-linecap:round;stroke-linejoin:round;stroke-miterlimit:4;stroke-dasharray:none;stroke-opacity:1"
       d="m 225.69207,76.014642 c -7.68808,-2.367064 -17.60728,7.073853 -22.17503,21.105901 -2.58401,6.956247 -7.63401,9.904257 -12.81889,12.590337 l 6.00746,1.87971 a 5.7949059,6.64502 20.118922 0 1 5.1859,-1.13313 5.7949059,6.64502 20.118922 0 1 0.0363,0.0124 5.7949059,6.64502 20.118922 0 1 3.59396,3.88029 l 1.93093,0.60422 a 6.3454728,7.2763551 20.118922 0 1 6.40992,-1.85637 6.3454728,7.2763551 20.118922 0 1 4.12828,5.15372 l 1.4923,0.46693 a 5.7949059,6.64502 20.118922 0 1 5.6009,-1.44832 5.7949059,6.64502 20.118922 0 1 3.70964,4.36152 l 4.7364,1.48202 c -2.88218,-6.18465 -3.92861,-11.85854 -2.16429,-17.2785 4.57573,-14.056795 2.05089,-27.402654 -5.63942,-29.808872 -0.0115,-0.0036 -0.0233,-0.0074 -0.0346,-0.01077 z"
       inkscape:export-filename="/home/pangolingila/snap/inkscape/8049/path984.png"
       inkscape:export-xdpi="95.370003"
       inkscape:export-ydpi="95.370003" />
    <path
       id="path926"
       style="fill:#d3cccc;fill-opacity:1;fill-rule:nonzero;stroke:#aeaeae;stroke-width:4.01732;stroke-linecap:round;stroke-linejoin:round;stroke-miterlimit:4;stroke-dasharray:none;stroke-opacity:1"
       d="m 254.69172,86.242116 c -7.33884,-0.4631 -14.0039,10.236191 -14.90021,23.919074 -0.72734,6.85285 -4.53763,10.61974 -8.52612,14.17922 l 5.74132,0.38906 a 5.2989994,6.173396 3.3868912 0 1 4.33783,-2.15567 5.2989994,6.173396 3.3868912 0 1 0.035,0.003 5.2989994,6.173396 3.3868912 0 1 4.05304,2.72427 l 1.84539,0.12509 a 5.8024508,6.7599227 3.3868911 0 1 5.25941,-3.07654 5.8024508,6.7599227 3.3868911 0 1 4.81189,3.75903 l 1.42619,0.0966 a 5.2989994,6.173396 3.3868912 0 1 4.63458,-2.53115 5.2989994,6.173396 3.3868912 0 1 4.26347,3.13412 l 4.52654,0.30676 c -3.93979,-4.96292 -6.13946,-9.86447 -5.79324,-15.14957 0.89782,-13.707007 -4.33234,-25.222408 -11.68192,-25.720417 -0.011,-0.0011 -0.0222,-0.0011 -0.0331,-0.0022 z"
       inkscape:export-filename="/home/pangolingila/snap/inkscape/8049/path984.png"
       inkscape:export-xdpi="95.370003"
       inkscape:export-ydpi="95.370003" />
    <path
       id="path922"
       style="fill:#d3cccc;fill-opacity:1;fill-rule:nonzero;stroke:#aeaeae;stroke-width:4.08731;stroke-linecap:round;stroke-linejoin:round;stroke-miterlimit:4;stroke-dasharray:none;stroke-opacity:1"
       d="m 189.33203,77.148912 c -7.55879,-0.906736 -15.14256,9.35931 -16.95405,22.950528 -1.19517,6.79007 -5.37875,10.31569 -9.73317,13.62367 l 5.91164,0.73605 a 5.4848368,6.1738529 9.4456488 0 1 4.62491,-1.88682 5.4848368,6.1738529 9.4456488 0 1 0.036,0.005 5.4848368,6.1738529 9.4456488 0 1 4.01491,2.96254 l 1.90014,0.23662 a 6.0059444,6.760423 9.4456488 0 1 5.63739,-2.74931 6.0059444,6.760423 9.4456488 0 1 4.73269,4.04048 l 1.4685,0.18283 a 5.4848368,6.1738529 9.4456488 0 1 4.95604,-2.24328 5.4848368,6.1738529 9.4456488 0 1 4.206,3.38403 l 4.66083,0.58033 c -3.75307,-5.18822 -5.71072,-10.20974 -5.01101,-15.45944 1.81462,-13.615177 -2.84908,-25.416219 -10.41671,-26.358423 -0.0113,-0.0014 -0.0228,-0.0029 -0.0341,-0.0042 z"
       inkscape:transform-center-x="19.765127"
       inkscape:transform-center-y="-2.7114821"
       inkscape:export-filename="/home/pangolingila/snap/inkscape/8049/path984.png"
       inkscape:export-xdpi="95.370003"
       inkscape:export-ydpi="95.370003" />
    <path
       id="path930"
       style="fill:#5bb529;fill-opacity:1;fill-rule:nonzero;stroke:#008000;stroke-width:4.95199;stroke-linecap:round;stroke-linejoin:round;stroke-miterlimit:4;stroke-dasharray:none;stroke-opacity:1"
       d="m 392.48122,106.45036 c -27.0134,57.89735 -37.87435,67.82568 -56.34828,123.96069 -5.62294,33.84445 -15.47028,66.73502 -8.43687,93.52593 l 6.97263,1.68832 c 33.02988,-36.83975 47.01117,-77.63939 53.49939,-94.17609 8.95174,-22.81551 13.97162,-62.36538 12.00921,-128.07294 -0.15078,-5.048225 -3.6597,-3.839175 -7.69608,3.07409 z"
       sodipodi:nodetypes="ccccssc"
       inkscape:export-filename="/home/pangolingila/snap/inkscape/8049/path984.png"
       inkscape:export-xdpi="95.370003"
       inkscape:export-ydpi="95.370003" />
    <path
       id="path939"
       style="fill:#7ec855;fill-opacity:1;fill-rule:nonzero;stroke:none;stroke-width:4.89632;stroke-linecap:round;stroke-linejoin:round;stroke-miterlimit:4;stroke-dasharray:none;stroke-opacity:1"
       d="m 384.33768,156.16631 c -2.47246,0.62998 -10.36512,12.82479 -11.32262,15.01629 -10.47653,20.71961 -21.18947,41.42059 -28.99241,63.3641 -2.51459,6.93972 -4.99219,13.9166 -6.7495,21.09951 -1.1743,5.27497 -2.03216,10.59284 -3.05973,15.89086 -2.52952,13.95782 -5.43785,27.89029 -6.53009,42.06629 -0.0838,1.89247 1.07794,5.12884 1.19799,7.02097 0.52701,3.09322 1.3407,3.15594 4.28921,2.65125 0,0 9.02657,-8.95087 9.95657,-10.68698 4.51053,-6.68588 5.71771,-6.86053 9.5793,-13.95363 8.98154,-16.25935 15.10537,-32.36196 21.35997,-49.86513 3.41943,-9.86976 5.94598,-20.09232 7.26112,-30.46487 2.31192,-15.64919 3.27814,-31.47504 3.64715,-47.28967 -0.27042,-3.35974 2.58694,-15.75756 -0.63696,-14.84899 z"
       sodipodi:nodetypes="cccccccccccccc"
       inkscape:export-filename="/home/pangolingila/snap/inkscape/8049/path984.png"
       inkscape:export-xdpi="95.370003"
       inkscape:export-ydpi="95.370003" />
    <path
       style="fill:none;stroke:#189718;stroke-width:2.89314;stroke-linecap:round;stroke-linejoin:miter;stroke-miterlimit:4;stroke-dasharray:none;stroke-opacity:1"
       d="m 330.49966,323.10362 c 0,0 19.95967,-49.09463 28.59892,-71.15441 8.46982,-21.62721 18.17218,-66.67132 18.17218,-66.67132"
       id="path937"
       sodipodi:nodetypes="csc"
       inkscape:export-filename="/home/pangolingila/snap/inkscape/8049/path984.png"
       inkscape:export-xdpi="95.370003"
       inkscape:export-ydpi="95.370003" />
    <path
       id="path978"
       style="fill:#5bb529;fill-opacity:1;fill-rule:nonzero;stroke:#008000;stroke-width:3.93271;stroke-linecap:round;stroke-linejoin:round;stroke-miterlimit:4;stroke-dasharray:none;stroke-opacity:1"
       d="m 441.85522,183.30633 c -38.41158,34.54918 -49.9062,38.96673 -81.06796,74.33143 -14.44222,22.65619 -31.93077,43.61342 -34.31413,64.32648 l 4.99448,2.88508 c 36.92297,-18.15065 60.00841,-43.72008 70.01246,-53.88503 13.80253,-14.02446 29.45735,-40.87521 47.34848,-87.97734 1.37454,-3.61878 -1.7479,-3.60981 -6.97333,0.31938 z"
       sodipodi:nodetypes="ccccssc"
       inkscape:export-filename="/home/pangolingila/snap/inkscape/8049/path984.png"
       inkscape:export-xdpi="95.370003"
       inkscape:export-ydpi="95.370003" />
    <path
       id="path980"
       style="fill:#7ec855;fill-opacity:1;fill-rule:nonzero;stroke:none;stroke-width:3.8885;stroke-linecap:round;stroke-linejoin:round;stroke-miterlimit:4;stroke-dasharray:none;stroke-opacity:1"
       d="m 420.73191,216.61537 c -2.13448,-0.15116 -11.96074,6.59289 -13.36345,7.91636 -14.38396,12.16824 -28.94869,24.26607 -41.58808,37.94968 -4.03418,4.31615 -8.05023,8.66762 -11.55969,13.33957 -2.48569,3.45909 -4.73472,7.0252 -7.11161,10.53616 -6.12204,9.29271 -12.53505,18.47579 -17.58915,28.27106 -0.62584,1.32267 -0.66784,3.90033 -1.13298,5.27208 -0.49978,2.32251 0.12279,2.56388 2.59531,2.91914 0,0 9.76007,-4.16775 11.00645,-5.17471 5.53174,-3.6531 6.53457,-3.48496 11.6755,-7.58404 11.88658,-9.36487 21.47513,-19.30994 31.58102,-30.21723 5.61389,-6.17644 10.62865,-12.81926 14.73324,-19.86161 6.45091,-10.5456 11.89379,-21.54216 16.86274,-32.67523 0.78082,-2.44956 6.69968,-10.55594 3.8907,-10.69123 z"
       sodipodi:nodetypes="cccccccccccccc"
       inkscape:export-filename="/home/pangolingila/snap/inkscape/8049/path984.png"
       inkscape:export-xdpi="95.370003"
       inkscape:export-ydpi="95.370003" />
    <path
       style="fill:none;stroke:#189718;stroke-width:2.29763;stroke-linecap:round;stroke-linejoin:miter;stroke-miterlimit:4;stroke-dasharray:none;stroke-opacity:1"
       d="m 328.92866,322.05118 c 0,0 30.24978,-30.00925 43.58253,-43.57304 13.07128,-13.29781 34.04082,-42.91448 34.04082,-42.91448"
       id="path982"
       sodipodi:nodetypes="csc"
       inkscape:export-filename="/home/pangolingila/snap/inkscape/8049/path984.png"
       inkscape:export-xdpi="95.370003"
       inkscape:export-ydpi="95.370003" />
    <path
       id="path928"
       style="fill:#d3cccc;fill-opacity:1;fill-rule:nonzero;stroke:#aeaeae;stroke-width:4.08731;stroke-linecap:round;stroke-linejoin:round;stroke-miterlimit:4;stroke-dasharray:none;stroke-opacity:1"
       d="m 278.36299,106.52965 c -7.3327,-2.04666 -16.39066,6.94547 -20.24974,20.1026 -2.21474,6.52903 -6.88619,9.3768 -11.69338,11.98347 l 5.73073,1.62726 a 5.4848368,6.1738529 18.200508 0 1 4.85821,-1.16089 5.4848368,6.1738529 18.200508 0 1 0.0347,0.0106 5.4848368,6.1738529 18.200508 0 1 3.5172,3.53911 l 1.84199,0.52308 a 6.0059444,6.760423 18.200508 0 1 5.99017,-1.85923 6.0059444,6.760423 18.200508 0 1 4.06256,4.71377 l 1.42357,0.40421 a 5.4848368,6.1738529 18.200508 0 1 5.23974,-1.4628 5.4848368,6.1738529 18.200508 0 1 3.64191,3.98478 l 4.51819,1.28298 c -2.91965,-5.69901 -4.09018,-10.96 -2.59958,-16.04202 3.8658,-13.18034 1.05264,-25.55374 -6.2834,-27.6368 -0.0109,-0.003 -0.0222,-0.006 -0.0331,-0.009 z"
       inkscape:export-filename="/home/pangolingila/snap/inkscape/8049/path984.png"
       inkscape:export-xdpi="95.370003"
       inkscape:export-ydpi="95.370003" />
  </g>
</svg>
