<?xml version="1.0" encoding="UTF-8" standalone="no"?>
<svg
   xmlns:dc="http://purl.org/dc/elements/1.1/"
   xmlns:cc="http://creativecommons.org/ns#"
   xmlns:rdf="http://www.w3.org/1999/02/22-rdf-syntax-ns#"
   xmlns:svg="http://www.w3.org/2000/svg"
   xmlns="http://www.w3.org/2000/svg"
   xmlns:sodipodi="http://sodipodi.sourceforge.net/DTD/sodipodi-0.dtd"
   xmlns:inkscape="http://www.inkscape.org/namespaces/inkscape"
   width="1448.2289mm"
   height="1197.2661mm"
   viewBox="0 0 1448.2289 1197.2661"
   version="1.1"
   id="svg8"
   inkscape:export-filename="C:\Users\sobgo\Desktop\hitbox.png"
   inkscape:export-xdpi="25"
   inkscape:export-ydpi="25"
   sodipodi:docname="occluder.svg"
   inkscape:version="1.0.1 (3bc2e813f5, 2020-09-07)">
  <defs
     id="defs2" />
  <sodipodi:namedview
     id="base"
     pagecolor="#ffffff"
     bordercolor="#666666"
     borderopacity="1.0"
     inkscape:pageopacity="0.0"
     inkscape:pageshadow="2"
     inkscape:zoom="0.35355339"
     inkscape:cx="2172.7661"
     inkscape:cy="4303.0706"
     inkscape:document-units="mm"
     inkscape:current-layer="layer1"
     inkscape:document-rotation="0"
     showgrid="false"
     inkscape:snap-bbox="true"
     inkscape:bbox-paths="false"
     inkscape:bbox-nodes="false"
     inkscape:snap-bbox-edge-midpoints="false"
     inkscape:snap-bbox-midpoints="false"
     inkscape:snap-object-midpoints="true"
     inkscape:snap-center="true"
     inkscape:snap-text-baseline="true"
     inkscape:snap-page="true"
     inkscape:object-paths="true"
     inkscape:snap-intersection-paths="true"
     inkscape:snap-smooth-nodes="true"
     inkscape:snap-midpoints="true"
     inkscape:window-width="1920"
     inkscape:window-height="1017"
     inkscape:window-x="1432"
     inkscape:window-y="-8"
     inkscape:window-maximized="1"
     inkscape:snap-global="true"
     inkscape:snap-nodes="true"
     inkscape:snap-others="false"
     inkscape:object-nodes="true" />
  <metadata
     id="metadata5">
    <rdf:RDF>
      <cc:Work
         rdf:about="">
        <dc:format>image/svg+xml</dc:format>
        <dc:type
           rdf:resource="http://purl.org/dc/dcmitype/StillImage" />
        <dc:title />
      </cc:Work>
    </rdf:RDF>
  </metadata>
  <g
     inkscape:label="Warstwa 1"
     inkscape:groupmode="layer"
     id="layer1"
     transform="translate(618.28111,450.46637)">
    <path
       id="path1199"
       style="display:inline;fill:#ffd284;fill-opacity:1;stroke:none;stroke-width:7.55906;stroke-linecap:square;stroke-linejoin:round;stroke-miterlimit:4;stroke-dasharray:none;stroke-opacity:1"
       d="M 1185.4453 2105.9277 L 1185.4453 2105.9297 L 1185.5879 2105.9277 L 1185.4453 2105.9277 z "
       transform="matrix(0.26458333,0,0,0.26458333,-618.28111,-450.46637)" />
    <path
       id="path36793"
       style="display:inline;fill:#ffd284;fill-opacity:1;stroke:none;stroke-width:7.55906;stroke-linecap:square;stroke-linejoin:round;stroke-miterlimit:4;stroke-dasharray:none;stroke-opacity:1"
       d="M 4252.9414 2105.9277 L 4252.7988 2105.9277 L 4252.9414 2105.9297 L 4252.9414 2105.9277 z "
       transform="matrix(0.26458333,0,0,0.26458333,-618.28111,-450.46637)" />
    <path
       id="path1505"
       style="color:#000000;font-style:normal;font-variant:normal;font-weight:normal;font-stretch:normal;font-size:medium;line-height:normal;font-family:sans-serif;font-variant-ligatures:normal;font-variant-position:normal;font-variant-caps:normal;font-variant-numeric:normal;font-variant-alternates:normal;font-variant-east-asian:normal;font-feature-settings:normal;font-variation-settings:normal;text-indent:0;text-align:start;text-decoration:none;text-decoration-line:none;text-decoration-style:solid;text-decoration-color:#000000;letter-spacing:normal;word-spacing:normal;text-transform:none;writing-mode:lr-tb;direction:ltr;text-orientation:mixed;dominant-baseline:auto;baseline-shift:baseline;text-anchor:start;white-space:normal;shape-padding:0;shape-margin:0;inline-size:0;clip-rule:nonzero;display:inline;overflow:visible;visibility:visible;opacity:1;isolation:auto;mix-blend-mode:normal;color-interpolation:sRGB;color-interpolation-filters:linearRGB;solid-color:#000000;solid-opacity:1;vector-effect:none;fill:#363636;fill-opacity:1;fill-rule:nonzero;stroke:none;stroke-width:13.2283;stroke-linecap:round;stroke-linejoin:round;stroke-miterlimit:4;stroke-dasharray:none;stroke-dashoffset:0;stroke-opacity:1;color-rendering:auto;image-rendering:auto;shape-rendering:auto;text-rendering:auto;enable-background:accumulate;stop-color:#000000;stop-opacity:1"
       d="M 1151.9277 -0.001953125 A 6.6148145 6.6148145 0 0 0 1147.2559 1.9394531 L 1039.9453 109.24219 A 6.6148145 6.6148145 0 0 0 1038.0117 113.92383 L 1038.0117 686.93555 A 6.6148145 6.6148145 0 0 0 1044.6172 693.54883 L 1175.4551 693.63672 L 1175.4102 985.41406 L 1175.1973 1985.9258 L 1011.7246 1985.9258 L 1011.7246 1985.9277 A 6.6141541 6.6141541 0 0 0 1011.6504 1985.9258 A 6.6141541 6.6141541 0 0 0 1005.043 1992.5469 L 1005.3906 2476.3262 A 6.6141541 6.6141541 0 0 0 1011.9062 2482.9316 L 1011.9062 2482.9336 A 6.6148144 6.6148144 0 0 0 1012.0039 2482.9336 A 6.6148144 6.6148144 0 0 0 1012.0059 2482.9336 L 1175.123 2482.9336 L 1175.668 3505.2227 L 1025.5664 3505.8711 L 1026.1406 3113.8125 A 6.6148144 6.6148144 0 0 0 1024.207 3109.125 L 917.31055 3002.2344 A 6.6148144 6.6148144 0 0 0 912.63086 3000.293 L 120 3000.293 A 6.6148144 6.6148144 0 0 0 115.32617 3002.2344 L 1.9414062 3115.6211 A 6.6148144 6.6148144 0 0 0 0 3120.293 L 0 4290.8027 A 6.6148144 6.6148144 0 0 0 1.9414062 4295.4766 L 108.91211 4402.4531 A 6.6148144 6.6148144 0 0 0 113.5918 4404.3887 L 912.4668 4404.3887 A 6.6148144 6.6148144 0 0 0 917.14062 4402.4531 L 1024.207 4295.3945 A 6.6148144 6.6148144 0 0 0 1026.1406 4290.7148 L 1026.1406 3795.832 L 1866.0312 3795.8848 L 1866.0312 4021.8438 A 6.6148144 6.6148144 0 0 0 1872.6445 4028.459 L 2432.0156 4028.459 A 6.6148144 6.6148144 0 0 0 2438.6289 4021.8438 L 2438.6289 3795.9219 L 2953.7676 3795.9727 L 2953.7676 4349.6211 A 6.6148144 6.6148144 0 0 0 2955.7012 4354.2949 L 3068.2754 4466.875 A 6.6148144 6.6148144 0 0 0 3072.9551 4468.8105 L 3708.7051 4468.8105 A 6.6148144 6.6148144 0 0 0 3715.3203 4462.1953 L 3715.3203 3796.0547 L 4139.0762 3795.8398 L 4417.3965 4074.1523 L 4417.3965 4411.8359 A 6.6148144 6.6148144 0 0 0 4419.3379 4416.5156 L 4525.9844 4523.1621 A 6.6148144 6.6148144 0 0 0 4530.6562 4525.0977 L 5065.1133 4525.0977 A 6.6148144 6.6148144 0 0 0 5069.793 4523.1621 L 5177.0371 4415.918 A 6.6148144 6.6148144 0 0 0 5178.9707 4411.2461 L 5178.9707 3843.3652 A 6.6148144 6.6148144 0 0 0 5172.3574 3836.75 L 4541.4121 3836.75 L 4263.0918 3558.4316 L 4262.8711 2845.3633 L 4899.4414 2845.9082 L 4899.7207 2982.5254 A 6.6148144 6.6148144 0 0 0 4901.6562 2987.1914 L 5008.9219 3094.457 A 6.6148144 6.6148144 0 0 0 5013.6016 3096.3906 L 5358.4609 3096.3906 A 6.6148144 6.6148144 0 0 0 5363.1426 3094.457 L 5470.3789 2987.2207 A 6.6148144 6.6148144 0 0 0 5472.3203 2982.5625 L 5473.6191 2525.5938 A 6.6148144 6.6148144 0 0 0 5471.6855 2520.8984 L 5363.0977 2412.3477 A 6.6148144 6.6148144 0 0 0 5358.4238 2410.4141 L 5013.6387 2410.4141 A 6.6148144 6.6148144 0 0 0 5008.9668 2412.3477 L 4897.875 2523.4316 A 6.6148144 6.6148144 0 0 0 4895.9414 2528.1113 L 4895.9414 2557.0547 L 4262.6133 2557.1875 L 4263.2109 2482.9336 L 4426.3711 2482.9336 L 4426.3789 2482.9336 A 6.6148144 6.6148144 0 0 0 4426.4355 2482.9336 L 4426.4355 2482.9316 A 6.6141543 6.6141543 0 0 0 4433.002 2476.3262 L 4433.3418 1992.5469 A 6.6141543 6.6141543 0 0 0 4426.7344 1985.9258 A 6.6141543 6.6141543 0 0 0 4426.6777 1985.9277 L 4426.6777 1985.9258 L 4263.1816 1985.9258 L 4262.7383 1726.291 A 6.6148145 6.6148145 0 0 0 4260.8047 1721.625 L 4147.418 1608.2383 A 6.6148145 6.6148145 0 0 0 4142.7383 1606.2969 L 4100.1074 1606.2969 L 4102.5371 1047.0449 A 6.6148145 6.6148145 0 0 0 4100.5879 1042.3203 L 3992.1992 934.50781 A 6.6148145 6.6148145 0 0 0 3987.5332 932.58984 L 3392.1699 932.58984 A 6.6148145 6.6148145 0 0 0 3387.4961 934.50781 L 3280.416 1041.082 A 6.6148145 6.6148145 0 0 0 3278.4746 1045.7676 L 3278.791 1606.2969 L 2967.0098 1606.2969 L 2969.1797 1046.8828 A 6.6148145 6.6148145 0 0 0 2967.2305 1042.1738 L 2858.2891 933.69727 A 6.6148145 6.6148145 0 0 0 2853.623 931.76953 L 2152.3516 931.80664 A 6.6148145 6.6148145 0 0 0 2151.9316 931.81445 L 1351.7051 931.76953 L 1354.8711 693.54102 L 1490.6094 693.54102 A 6.6148145 6.6148145 0 0 0 1497.2246 686.92773 L 1497.2246 6.6132812 A 6.6148145 6.6148145 0 0 0 1490.6094 -0.001953125 L 1151.9277 -0.001953125 z M 1154.6738 13.226562 L 1483.9961 13.226562 L 1483.9961 680.3125 L 1348.3457 680.3125 L 1293.5586 680.31055 L 1293.5586 693.54102 L 1341.6426 693.54102 L 1338.3887 938.29492 A 6.6148145 6.6148145 0 0 0 1338.3887 938.34766 A 6.6148145 6.6148145 0 0 0 1338.3887 938.37695 L 1337.6641 1612.9043 A 6.6148145 6.6148145 0 0 0 1337.7168 1613.7461 A 6.6148145 6.6148145 0 0 0 1337.8789 1614.5723 A 6.6148145 6.6148145 0 0 0 1337.9961 1614.9707 A 6.6148145 6.6148145 0 0 0 1338.498 1616.1309 A 6.6148145 6.6148145 0 0 0 1338.7129 1616.4844 A 6.6148145 6.6148145 0 0 0 1339.791 1617.7773 A 6.6148145 6.6148145 0 0 0 1340.1074 1618.0488 A 6.6148145 6.6148145 0 0 0 1340.4473 1618.3008 A 6.6148145 6.6148145 0 0 0 1341.1562 1618.7441 A 6.6148145 6.6148145 0 0 0 1341.5332 1618.9277 A 6.6148145 6.6148145 0 0 0 1341.9238 1619.0898 A 6.6148145 6.6148145 0 0 0 1342.7285 1619.3418 A 6.6148145 6.6148145 0 0 0 1343.1348 1619.4297 A 6.6148145 6.6148145 0 0 0 1344.2793 1619.5254 L 2043.4922 1619.5254 L 2043.4922 1606.2969 L 1350.9004 1606.2969 L 1351.6094 944.99805 L 2145.7383 945.04297 L 2145.7148 1606.2969 L 2103.9961 1606.2969 L 2103.9961 1619.5254 L 2851.5391 1619.5254 L 2851.5391 1606.2969 L 2158.9434 1606.2969 L 2158.9668 945.03516 L 2850.8926 944.99805 L 2955.9375 1049.5996 L 2953.7891 1606.2969 L 2912.043 1606.2969 L 2912.043 1619.5254 L 2960.373 1619.5254 L 3285.4121 1619.5254 L 3988.5664 1619.5254 L 3988.5664 1606.2969 L 3292.0195 1606.2969 L 3291.7031 1048.5137 L 3394.8945 945.81836 L 3984.8027 945.81836 L 4089.293 1049.7539 L 4086.8789 1606.2969 L 4049.0723 1606.2969 L 4049.0723 1619.5254 L 4093.4648 1619.5254 L 4140 1619.5254 L 4249.5176 1729.043 L 4249.9668 1992.541 L 4249.9668 1992.5547 L 4249.8418 2358.0176 A 6.6148145 6.6148145 0 0 0 4263.0703 2358.0176 L 4263.1875 1999.1543 L 4420.1094 1999.1543 L 4419.7773 2469.7051 L 4263.3066 2469.7051 L 4263.4473 2447.0586 A 6.6148144 6.6148144 0 0 0 4263.0996 2444.9902 A 6.6148144 6.6148144 0 0 0 4262.9531 2444.5996 A 6.6148144 6.6148144 0 0 0 4262.7832 2444.2168 A 6.6148144 6.6148144 0 0 0 4262.125 2443.1387 A 6.6148144 6.6148144 0 0 0 4261.8672 2442.8125 A 6.6148144 6.6148144 0 0 0 4261.5801 2442.5039 A 6.6148144 6.6148144 0 0 0 4261.2773 2442.209 A 6.6148144 6.6148144 0 0 0 4260.959 2441.9355 A 6.6148144 6.6148144 0 0 0 4258.7363 2440.7754 A 6.6148144 6.6148144 0 0 0 4257.5039 2440.5254 A 6.6148144 6.6148144 0 0 0 4257.084 2440.4961 A 6.6148144 6.6148144 0 0 0 4256.6621 2440.4961 A 6.6148144 6.6148144 0 0 0 4256.2422 2440.5176 A 6.6148144 6.6148144 0 0 0 4255.8281 2440.5684 A 6.6148144 6.6148144 0 0 0 4253.1113 2441.6387 A 6.6148144 6.6148144 0 0 0 4252.4473 2442.1562 A 6.6148144 6.6148144 0 0 0 4251.8574 2442.7539 A 6.6148144 6.6148144 0 0 0 4251.5918 2443.0781 A 6.6148144 6.6148144 0 0 0 4251.3398 2443.418 A 6.6148144 6.6148144 0 0 0 4250.9199 2444.1504 A 6.6148144 6.6148144 0 0 0 4250.7422 2444.5332 A 6.6148144 6.6148144 0 0 0 4250.4688 2445.3223 A 6.6148144 6.6148144 0 0 0 4250.3652 2445.7285 A 6.6148144 6.6148144 0 0 0 4250.293 2446.1426 A 6.6148144 6.6148144 0 0 0 4250.2402 2446.5625 A 6.6148144 6.6148144 0 0 0 4250.2188 2446.9766 L 4250.0332 2476.2598 A 6.6148144 6.6148144 0 0 0 4250.0332 2476.2676 L 4250.0332 2476.2832 L 4249.332 2563.75 A 6.6148144 6.6148144 0 0 0 4255.9473 2570.416 L 4902.5566 2570.2832 A 6.6148144 6.6148144 0 0 0 4909.1699 2563.6699 L 4909.1699 2530.8496 L 5016.377 2423.6426 L 5355.6855 2423.6426 L 5460.3828 2528.3105 L 5459.0996 2979.7949 L 5355.7227 3083.1621 L 5016.3398 3083.1621 L 4912.9414 2979.7637 L 4912.6543 2839.2793 A 6.6148144 6.6148144 0 0 0 4906.0469 2832.6797 L 4256.2637 2832.127 A 6.6148144 6.6148144 0 0 0 4249.6426 2838.748 L 4249.8711 3561.1777 A 6.6148144 6.6148144 0 0 0 4251.8047 3565.8496 L 4534 3848.0449 A 6.6148144 6.6148144 0 0 0 4538.6738 3849.9785 L 5165.7422 3849.9785 L 5165.7422 4408.5078 L 5062.373 4511.8691 L 4533.4023 4511.8691 L 4430.625 4409.0977 L 4430.625 4071.4141 A 6.6148144 6.6148144 0 0 0 4428.6895 4066.7402 L 4146.4961 3784.5449 A 6.6148144 6.6148144 0 0 0 4141.8145 3782.6113 L 3708.7266 3782.8262 L 3708.7051 3782.8262 L 3084.959 3782.7617 L 3084.959 3796.0547 L 3702.0918 3796.0547 L 3702.0918 4455.582 L 3075.6934 4455.582 L 2966.9941 4346.8828 L 2966.9941 3796.0547 L 3024.4551 3796.0547 L 3024.4551 3782.7559 L 2432.0215 3782.6934 A 6.6148144 6.6148144 0 0 0 2432.0156 3782.6934 L 1997.4277 3782.666 L 1997.4277 3795.9219 L 2425.4004 3795.9219 L 2425.4004 4015.2305 L 1879.2598 4015.2305 L 1879.2598 3795.9219 L 1936.9238 3795.9219 L 1936.9238 3782.6621 L 1019.5273 3782.6035 A 6.6148144 6.6148144 0 0 0 1012.9121 3789.2188 L 1012.9121 4287.9766 L 909.72852 4391.1602 L 116.33008 4391.1602 L 13.228516 4288.0566 L 13.228516 3123.0332 L 122.73828 3013.5215 L 909.89062 3013.5215 L 1012.9121 3116.543 L 1012.3301 3512.5078 A 6.6148144 6.6148144 0 0 0 1018.9727 3519.1289 L 1182.3203 3518.4219 A 6.6148144 6.6148144 0 0 0 1188.9043 3511.8066 L 1188.3516 2476.3711 L 1188.3516 2476.3633 L 1188.3516 2476.3203 L 1188.5508 2447.6641 A 6.6148144 6.6148144 0 0 0 1188.418 2446.4082 A 6.6148144 6.6148144 0 0 0 1188.3281 2446.002 A 6.6148144 6.6148144 0 0 0 1188.2031 2445.5957 A 6.6148144 6.6148144 0 0 0 1187.6855 2444.4453 A 6.6148144 6.6148144 0 0 0 1187.4727 2444.0898 A 6.6148144 6.6148144 0 0 0 1187.2285 2443.7441 A 6.6148144 6.6148144 0 0 0 1186.3789 2442.8125 A 6.6148144 6.6148144 0 0 0 1186.0625 2442.541 A 6.6148144 6.6148144 0 0 0 1185.7227 2442.2891 A 6.6148144 6.6148144 0 0 0 1184.6309 2441.6699 A 6.6148144 6.6148144 0 0 0 1183.8398 2441.373 A 6.6148144 6.6148144 0 0 0 1183.0215 2441.1816 A 6.6148144 6.6148144 0 0 0 1182.1875 2441.1016 A 6.6148144 6.6148144 0 0 0 1181.3457 2441.123 A 6.6148144 6.6148144 0 0 0 1180.5195 2441.248 A 6.6148144 6.6148144 0 0 0 1179.707 2441.4766 A 6.6148144 6.6148144 0 0 0 1179.3145 2441.6328 A 6.6148144 6.6148144 0 0 0 1178.5703 2442.0156 A 6.6148144 6.6148144 0 0 0 1178.2148 2442.2383 A 6.6148144 6.6148144 0 0 0 1177.2402 2443.043 A 6.6148144 6.6148144 0 0 0 1176.9609 2443.3516 A 6.6148144 6.6148144 0 0 0 1176.6875 2443.6777 A 6.6148144 6.6148144 0 0 0 1176.4434 2444.0176 A 6.6148144 6.6148144 0 0 0 1176.2227 2444.3711 A 6.6148144 6.6148144 0 0 0 1176.0234 2444.748 A 6.6148144 6.6148144 0 0 0 1175.6914 2445.5156 A 6.6148144 6.6148144 0 0 0 1175.3887 2446.7402 A 6.6148144 6.6148144 0 0 0 1175.3223 2447.5664 L 1175.166 2469.7051 L 1018.6152 2469.7051 L 1018.2754 1999.1543 L 1175.1973 1999.1543 L 1175.2188 2367.2676 A 6.6148145 6.6148145 0 0 0 1188.4473 2367.2676 L 1188.6172 1182.8203 L 1188.7266 693.54102 L 1233.0547 693.54102 L 1233.0547 680.30859 L 1182.1133 680.30664 A 6.6148145 6.6148145 0 0 0 1181.8984 680.3125 L 1178.2676 680.3125 L 1051.2402 680.3125 L 1051.2402 116.66211 L 1154.6738 13.226562 z "
       transform="matrix(0.26458333,0,0,0.26458333,-618.28111,-450.46637)" />
    <g
       id="g7147-4-1-6"
       transform="rotate(-90,272.79812,-82.697199)" />
    <path
       id="path1328"
       style="color:#000000;font-style:normal;font-variant:normal;font-weight:normal;font-stretch:normal;font-size:medium;line-height:normal;font-family:sans-serif;font-variant-ligatures:normal;font-variant-position:normal;font-variant-caps:normal;font-variant-numeric:normal;font-variant-alternates:normal;font-variant-east-asian:normal;font-feature-settings:normal;font-variation-settings:normal;text-indent:0;text-align:start;text-decoration:none;text-decoration-line:none;text-decoration-style:solid;text-decoration-color:#000000;letter-spacing:normal;word-spacing:normal;text-transform:none;writing-mode:lr-tb;direction:ltr;text-orientation:mixed;dominant-baseline:auto;baseline-shift:baseline;text-anchor:start;white-space:normal;shape-padding:0;shape-margin:0;inline-size:0;clip-rule:nonzero;display:inline;overflow:visible;visibility:visible;opacity:1;isolation:auto;mix-blend-mode:normal;color-interpolation:sRGB;color-interpolation-filters:linearRGB;solid-color:#000000;solid-opacity:1;vector-effect:none;fill:#363636;fill-opacity:1;fill-rule:nonzero;stroke:none;stroke-width:13.2283;stroke-linecap:round;stroke-linejoin:round;stroke-miterlimit:4;stroke-dasharray:none;stroke-dashoffset:0;stroke-opacity:1;color-rendering:auto;image-rendering:auto;shape-rendering:auto;text-rendering:auto;enable-background:accumulate;stop-color:#000000;stop-opacity:1"
       d="M 1344.2793 2833.6406 A 6.6148155 6.6148155 0 0 0 1337.6641 2840.2539 L 1337.6641 3514.4062 A 6.6148155 6.6148155 0 0 0 1344.2793 3521.0195 L 1404.8945 3521.0195 L 1404.8945 3507.791 L 1350.8926 3507.791 L 1350.8926 2846.8691 L 2145.4062 2846.8691 L 2145.7148 3507.791 L 1465.3984 3507.791 L 1465.3984 3521.0195 L 2152.3301 3521.0195 L 2212.9434 3521.0195 L 2212.9434 3507.791 L 2158.9434 3507.791 L 2158.6348 2846.8691 L 2953.7598 2846.8691 L 2953.7598 3507.791 L 2273.4473 3507.791 L 2273.4473 3521.0195 L 2960.373 3521.0195 A 6.6148155 6.6148155 0 0 0 2966.9883 3514.4062 L 2966.9883 2840.2539 A 6.6148155 6.6148155 0 0 0 2960.373 2833.6406 L 1344.2793 2833.6406 z "
       transform="matrix(0.26458333,0,0,0.26458333,-618.28111,-450.46637)" />
    <path
       id="path1346"
       style="color:#000000;font-style:normal;font-variant:normal;font-weight:normal;font-stretch:normal;font-size:medium;line-height:normal;font-family:sans-serif;font-variant-ligatures:normal;font-variant-position:normal;font-variant-caps:normal;font-variant-numeric:normal;font-variant-alternates:normal;font-variant-east-asian:normal;font-feature-settings:normal;font-variation-settings:normal;text-indent:0;text-align:start;text-decoration:none;text-decoration-line:none;text-decoration-style:solid;text-decoration-color:#000000;letter-spacing:normal;word-spacing:normal;text-transform:none;writing-mode:lr-tb;direction:ltr;text-orientation:mixed;dominant-baseline:auto;baseline-shift:baseline;text-anchor:start;white-space:normal;shape-padding:0;shape-margin:0;inline-size:0;clip-rule:nonzero;display:inline;overflow:visible;visibility:visible;opacity:1;isolation:auto;mix-blend-mode:normal;color-interpolation:sRGB;color-interpolation-filters:linearRGB;solid-color:#000000;solid-opacity:1;vector-effect:none;fill:#363636;fill-opacity:1;fill-rule:nonzero;stroke:none;stroke-width:13.2283;stroke-linecap:round;stroke-linejoin:round;stroke-miterlimit:4;stroke-dasharray:none;stroke-dashoffset:0;stroke-opacity:1;color-rendering:auto;image-rendering:auto;shape-rendering:auto;text-rendering:auto;enable-background:accumulate;stop-color:#000000;stop-opacity:1"
       d="M 3285.4121 2832.5098 A 6.6148157 6.6148157 0 0 0 3278.7988 2839.125 L 3278.7988 3513.2754 A 6.6148157 6.6148157 0 0 0 3285.4121 3519.8906 L 3988.5664 3519.8906 L 3988.5664 3506.6621 L 3292.0273 3506.6621 L 3292.0273 2845.7383 L 4087.1387 2845.7383 L 4086.8496 3506.6621 L 4049.0723 3506.6621 L 4049.0723 3519.8906 L 4093.4648 3519.8906 A 6.6148157 6.6148157 0 0 0 4100.0781 3513.2754 L 4100.3652 2839.1328 A 6.6148157 6.6148157 0 0 0 4093.752 2832.5098 L 3285.4121 2832.5098 z "
       transform="matrix(0.26458333,0,0,0.26458333,-618.28111,-450.46637)" />
    <path
       id="path1259"
       style="color:#000000;font-style:normal;font-variant:normal;font-weight:normal;font-stretch:normal;font-size:medium;line-height:normal;font-family:sans-serif;font-variant-ligatures:normal;font-variant-position:normal;font-variant-caps:normal;font-variant-numeric:normal;font-variant-alternates:normal;font-variant-east-asian:normal;font-feature-settings:normal;font-variation-settings:normal;text-indent:0;text-align:start;text-decoration:none;text-decoration-line:none;text-decoration-style:solid;text-decoration-color:#000000;letter-spacing:normal;word-spacing:normal;text-transform:none;writing-mode:lr-tb;direction:ltr;text-orientation:mixed;dominant-baseline:auto;baseline-shift:baseline;text-anchor:start;white-space:normal;shape-padding:0;shape-margin:0;inline-size:0;clip-rule:nonzero;display:inline;overflow:visible;visibility:visible;opacity:1;isolation:auto;mix-blend-mode:normal;color-interpolation:sRGB;color-interpolation-filters:linearRGB;solid-color:#000000;solid-opacity:1;vector-effect:none;fill:#363636;fill-opacity:1;fill-rule:nonzero;stroke:none;stroke-width:13.2283;stroke-linecap:round;stroke-linejoin:round;stroke-miterlimit:4;stroke-dasharray:none;stroke-dashoffset:0;stroke-opacity:1;color-rendering:auto;image-rendering:auto;shape-rendering:auto;text-rendering:auto;enable-background:accumulate;stop-color:#000000;stop-opacity:1"
       d="M 1344.2793 1878.4238 A 6.6148155 6.6148155 0 0 0 1337.6641 1885.0371 L 1337.6641 2562.9688 A 6.6148155 6.6148155 0 0 0 1344.2793 2569.582 L 1404.8945 2569.582 L 1404.8945 2556.3535 L 1350.8926 2556.3535 L 1350.8926 1891.6523 L 2145.4062 1891.6523 L 2145.7148 2556.3535 L 1465.3984 2556.3535 L 1465.3984 2569.582 L 2152.3301 2569.582 L 2212.9434 2569.582 L 2212.9434 2556.3535 L 2158.9434 2556.3535 L 2158.6348 1891.6523 L 2953.7598 1891.6523 L 2953.7598 2556.3535 L 2273.4473 2556.3535 L 2273.4473 2569.582 L 2960.373 2569.582 A 6.6148155 6.6148155 0 0 0 2966.9883 2562.9688 L 2966.9883 1885.0371 A 6.6148155 6.6148155 0 0 0 2960.373 1878.4238 L 1344.2793 1878.4238 z "
       transform="matrix(0.26458333,0,0,0.26458333,-618.28111,-450.46637)" />
    <path
       id="path1287"
       style="color:#000000;font-style:normal;font-variant:normal;font-weight:normal;font-stretch:normal;font-size:medium;line-height:normal;font-family:sans-serif;font-variant-ligatures:normal;font-variant-position:normal;font-variant-caps:normal;font-variant-numeric:normal;font-variant-alternates:normal;font-variant-east-asian:normal;font-feature-settings:normal;font-variation-settings:normal;text-indent:0;text-align:start;text-decoration:none;text-decoration-line:none;text-decoration-style:solid;text-decoration-color:#000000;letter-spacing:normal;word-spacing:normal;text-transform:none;writing-mode:lr-tb;direction:ltr;text-orientation:mixed;dominant-baseline:auto;baseline-shift:baseline;text-anchor:start;white-space:normal;shape-padding:0;shape-margin:0;inline-size:0;clip-rule:nonzero;display:inline;overflow:visible;visibility:visible;opacity:1;isolation:auto;mix-blend-mode:normal;color-interpolation:sRGB;color-interpolation-filters:linearRGB;solid-color:#000000;solid-opacity:1;vector-effect:none;fill:#363636;fill-opacity:1;fill-rule:nonzero;stroke:none;stroke-width:13.2283;stroke-linecap:round;stroke-linejoin:round;stroke-miterlimit:4;stroke-dasharray:none;stroke-dashoffset:0;stroke-opacity:1;color-rendering:auto;image-rendering:auto;shape-rendering:auto;text-rendering:auto;enable-background:accumulate;stop-color:#000000;stop-opacity:1"
       d="M 3285.4121 1878.4238 A 6.6148157 6.6148157 0 0 0 3278.7988 1885.0371 L 3278.7988 2562.9688 A 6.6148157 6.6148157 0 0 0 3285.4121 2569.582 L 3988.5664 2569.582 L 3988.5664 2556.3535 L 3292.0273 2556.3535 L 3292.0273 1891.6523 L 4087.1387 1891.6523 L 4086.8496 2556.3535 L 4049.0723 2556.3535 L 4049.0723 2569.582 L 4093.4648 2569.582 A 6.6148157 6.6148157 0 0 0 4100.0781 2562.9688 L 4100.3652 1885.0371 A 6.6148157 6.6148157 0 0 0 4093.752 1878.4238 L 3285.4121 1878.4238 z "
       transform="matrix(0.26458333,0,0,0.26458333,-618.28111,-450.46637)" />
  </g>
</svg>
