<?xml version="1.0" encoding="UTF-8" standalone="no"?>
<svg
   xmlns:dc="http://purl.org/dc/elements/1.1/"
   xmlns:cc="http://creativecommons.org/ns#"
   xmlns:rdf="http://www.w3.org/1999/02/22-rdf-syntax-ns#"
   xmlns:svg="http://www.w3.org/2000/svg"
   xmlns="http://www.w3.org/2000/svg"
   xmlns:sodipodi="http://sodipodi.sourceforge.net/DTD/sodipodi-0.dtd"
   xmlns:inkscape="http://www.inkscape.org/namespaces/inkscape"
   width="25.262751mm"
   height="21.660179mm"
   viewBox="0 0 25.262751 21.660179"
   version="1.1"
   id="svg8"
   inkscape:version="1.0.1 (3bc2e813f5, 2020-09-07)"
   sodipodi:docname="okno1.svg">
  <defs
     id="defs2" />
  <sodipodi:namedview
     id="base"
     pagecolor="#ffffff"
     bordercolor="#666666"
     borderopacity="1.0"
     inkscape:pageopacity="0.0"
     inkscape:pageshadow="2"
     inkscape:zoom="0.35"
     inkscape:cx="142.02634"
     inkscape:cy="183.78976"
     inkscape:document-units="mm"
     inkscape:current-layer="layer1"
     inkscape:document-rotation="0"
     showgrid="false"
     inkscape:window-width="1076"
     inkscape:window-height="736"
     inkscape:window-x="210"
     inkscape:window-y="174"
     inkscape:window-maximized="0" />
  <metadata
     id="metadata5">
    <rdf:RDF>
      <cc:Work
         rdf:about="">
        <dc:format>image/svg+xml</dc:format>
        <dc:type
           rdf:resource="http://purl.org/dc/dcmitype/StillImage" />
        <dc:title></dc:title>
      </cc:Work>
    </rdf:RDF>
  </metadata>
  <g
     inkscape:label="Warstwa 1"
     inkscape:groupmode="layer"
     id="layer1"
     transform="translate(-68.25553,-99.53896)">
    <g
       transform="translate(-270.50709,993.77873)"
       style="display:inline"
       id="g3369"
       inkscape:export-xdpi="67.380684"
       inkscape:export-ydpi="67.380684">
      <path
         style="fill:#0060a2;fill-opacity:1;stroke:#dddddd;stroke-width:1.5;stroke-linecap:round;stroke-linejoin:round;stroke-miterlimit:4;stroke-dasharray:none;stroke-opacity:1"
         d="m 341.60317,-893.48977 h 9.76689 9.76688 v 13.02427 h -9.76688 v -13.02427 13.02427 h 9.76688 v 4.27903 h -9.76688 v -4.27903 4.27903 h -9.76689 v -4.27903 h 9.76689 -9.76689 z"
         id="path3347"
         inkscape:connector-curvature="0" />
      <path
         inkscape:connector-curvature="0"
         style="opacity:1;fill:#004879;fill-opacity:1;stroke:none;stroke-width:3;stroke-linecap:round;stroke-linejoin:round;stroke-miterlimit:4;stroke-dasharray:none;stroke-dashoffset:0;stroke-opacity:1;paint-order:markers fill stroke"
         d="m 342.14643,-892.86958 v 11.78139 h 0.29511 l 2.59918,-11.78139 z m 3.3035,0 -2.59919,11.78139 h 0.25958 l 2.60929,-11.78139 z m 4.70502,0 -2.60965,11.78139 h 3.28254 v -11.78139 z"
         id="path3349" />
      <path
         id="path3351"
         d="m 351.91351,-892.86787 v 11.78139 h 0.29511 l 2.59918,-11.78139 z m 3.3035,0 -2.59919,11.78139 h 0.25959 l 2.60929,-11.78139 z m 4.70502,0 -2.60965,11.78139 h 3.28255 v -11.78139 z"
         style="opacity:1;fill:#004879;fill-opacity:1;stroke:none;stroke-width:3;stroke-linecap:round;stroke-linejoin:round;stroke-miterlimit:4;stroke-dasharray:none;stroke-dashoffset:0;stroke-opacity:1;paint-order:markers fill stroke"
         inkscape:connector-curvature="0" />
      <path
         inkscape:connector-curvature="0"
         style="opacity:1;fill:#004879;fill-opacity:1;stroke:none;stroke-width:3;stroke-linecap:round;stroke-linejoin:round;stroke-miterlimit:4;stroke-dasharray:none;stroke-dashoffset:0;stroke-opacity:1;paint-order:markers fill stroke"
         d="m 351.91367,-879.84664 v 3.03033 h 2.22591 l 0.6684,-3.03033 z m 3.30351,0 -0.6684,3.03033 h 0.26706 l 0.67102,-3.03033 z m 4.70503,0 -0.67141,3.03033 h 1.34429 v -3.03033 z"
         id="path3353" />
      <path
         id="path3355"
         d="m 342.14679,-879.84544 v 3.03034 h 2.22591 l 0.6684,-3.03034 z m 3.3035,0 -0.6684,3.03034 h 0.26707 l 0.67102,-3.03034 z m 4.70504,0 -0.67141,3.03034 h 1.34429 v -3.03034 z"
         style="opacity:1;fill:#004879;fill-opacity:1;stroke:none;stroke-width:3;stroke-linecap:round;stroke-linejoin:round;stroke-miterlimit:4;stroke-dasharray:none;stroke-dashoffset:0;stroke-opacity:1;paint-order:markers fill stroke"
         inkscape:connector-curvature="0" />
      <path
         inkscape:connector-curvature="0"
         id="path3357"
         d="m 340.26262,-876.03288 h 22.26275 v 1.95329 h -22.26275 z"
         style="fill:#616161;fill-opacity:1;stroke:#616161;stroke-width:3;stroke-linecap:round;stroke-linejoin:round;stroke-miterlimit:4;stroke-dasharray:none;stroke-opacity:1" />
      <path
         inkscape:connector-curvature="0"
         id="path3359"
         d="m 341.60317,-893.48977 h 9.76689 9.76688 v 13.02427 h -9.76688 v -13.02427 13.02427 h 9.76688 v 4.27903 h -9.76688 v -4.27903 4.27903 h -9.76689 v -4.27903 h 9.76689 -9.76689 z"
         style="fill:#0060a2;fill-opacity:1;stroke:#dddddd;stroke-width:1.5;stroke-linecap:round;stroke-linejoin:round;stroke-miterlimit:4;stroke-dasharray:none;stroke-opacity:1" />
      <path
         inkscape:connector-curvature="0"
         id="path3361"
         d="m 342.30533,-892.68769 v 11.41825 h 0.28429 l 2.50396,-11.41825 z m 3.18247,0 -2.50398,11.41825 h 0.25009 l 2.5137,-11.41825 z m 4.53264,0 -2.51405,11.41825 h 3.1623 v -11.41825 z"
         style="opacity:1;fill:#004879;fill-opacity:1;stroke:none;stroke-width:3;stroke-linecap:round;stroke-linejoin:round;stroke-miterlimit:4;stroke-dasharray:none;stroke-dashoffset:0;stroke-opacity:1;paint-order:markers fill stroke" />
      <path
         inkscape:connector-curvature="0"
         style="opacity:1;fill:#004879;fill-opacity:1;stroke:none;stroke-width:3;stroke-linecap:round;stroke-linejoin:round;stroke-miterlimit:4;stroke-dasharray:none;stroke-dashoffset:0;stroke-opacity:1;paint-order:markers fill stroke"
         d="m 352.07164,-892.68935 v 11.42163 h 0.28427 l 2.5037,-11.42163 z m 3.18215,0 -2.50372,11.42163 h 0.25006 l 2.51344,-11.42163 z m 4.53218,0 -2.51378,11.42163 h 3.16196 v -11.42163 z"
         id="path3363" />
      <path
         id="path3365"
         d="m 360.43833,-876.98824 v -2.67611 h -2.14552 l -0.64426,2.67611 z m -3.18419,0 0.64425,-2.67611 h -0.25742 l -0.64678,2.67611 z m -4.53514,0 0.64716,-2.67611 h -1.29575 v 2.67611 z"
         style="opacity:1;fill:#004879;fill-opacity:1;stroke:none;stroke-width:3;stroke-linecap:round;stroke-linejoin:round;stroke-miterlimit:4;stroke-dasharray:none;stroke-dashoffset:0;stroke-opacity:1;paint-order:markers fill stroke"
         inkscape:connector-curvature="0" />
      <path
         inkscape:connector-curvature="0"
         style="opacity:1;fill:#004879;fill-opacity:1;stroke:none;stroke-width:3;stroke-linecap:round;stroke-linejoin:round;stroke-miterlimit:4;stroke-dasharray:none;stroke-dashoffset:0;stroke-opacity:1;paint-order:markers fill stroke"
         d="m 350.66467,-876.99049 v -2.6737 h -2.14429 l -0.6439,2.6737 z m -3.18238,0 0.64389,-2.6737 h -0.25726 l -0.64642,2.6737 z m -4.53251,0 0.64678,-2.6737 h -1.29499 v 2.6737 z"
         id="path3367" />
    </g>
  </g>
</svg>
