<?xml version="1.0" encoding="UTF-8" standalone="no"?>
<svg
   xmlns:dc="http://purl.org/dc/elements/1.1/"
   xmlns:cc="http://creativecommons.org/ns#"
   xmlns:rdf="http://www.w3.org/1999/02/22-rdf-syntax-ns#"
   xmlns:svg="http://www.w3.org/2000/svg"
   xmlns="http://www.w3.org/2000/svg"
   xmlns:sodipodi="http://sodipodi.sourceforge.net/DTD/sodipodi-0.dtd"
   xmlns:inkscape="http://www.inkscape.org/namespaces/inkscape"
   width="106.38901mm"
   height="166.83961mm"
   viewBox="0 0 106.38901 166.83961"
   version="1.1"
   id="svg8"
   sodipodi:docname="probowka-top.svg"
   inkscape:version="1.0.1 (3bc2e813f5, 2020-09-07)">
  <defs
     id="defs2" />
  <sodipodi:namedview
     id="base"
     pagecolor="#ffffff"
     bordercolor="#666666"
     borderopacity="1.0"
     inkscape:pageopacity="0.0"
     inkscape:pageshadow="2"
     inkscape:zoom="0.70710678"
     inkscape:cx="70.756237"
     inkscape:cy="348.45207"
     inkscape:document-units="mm"
     inkscape:current-layer="layer1"
     inkscape:document-rotation="0"
     showgrid="false"
     inkscape:snap-intersection-paths="true"
     inkscape:object-paths="true"
     inkscape:snap-smooth-nodes="true"
     inkscape:snap-nodes="true"
     showguides="false"
     inkscape:window-width="1920"
     inkscape:window-height="1017"
     inkscape:window-x="1432"
     inkscape:window-y="-8"
     inkscape:window-maximized="1" />
  <metadata
     id="metadata5">
    <rdf:RDF>
      <cc:Work
         rdf:about="">
        <dc:format>image/svg+xml</dc:format>
        <dc:type
           rdf:resource="http://purl.org/dc/dcmitype/StillImage" />
        <dc:title />
      </cc:Work>
    </rdf:RDF>
  </metadata>
  <g
     inkscape:label="Warstwa 1"
     inkscape:groupmode="layer"
     id="layer1"
     transform="translate(-1012.8121,-8.6409252)">
    <path
       id="ellipse914"
       style="fill:#addde9;fill-opacity:0.50463;stroke-width:0.399096"
       d="m 1026.1668,31.174165 a 49.325901,11.735567 0 0 1 -0.1214,-0.03875 49.325901,11.735567 0 0 1 -0.1349,-0.04315 49.325901,11.735567 0 0 0 0.2563,0.08191 z" />
    <path
       id="path1047"
       style="fill:#addde9;fill-opacity:0.50463;stroke-width:0.399096"
       d="m 1034.5759,33.244839 a 49.325901,11.735567 0 0 1 -0.1871,-0.03643 49.325901,11.735567 0 0 1 -0.1343,-0.0261 49.325901,11.735567 0 0 0 0.3214,0.06253 z" />
    <path
       id="path1045"
       style="fill:#addde9;fill-opacity:0.50463;stroke-width:0.399096"
       d="m 1040.805,34.264672 a 49.325901,11.735567 0 0 1 -0.2176,-0.03023 49.325901,11.735567 0 0 1 -0.2168,-0.03049 49.325901,11.735567 0 0 1 -0.2162,-0.03075 49.325901,11.735567 0 0 1 -0.2155,-0.03101 49.325901,11.735567 0 0 0 0.8661,0.122473 z" />
    <path
       id="path1043"
       style="fill:#addde9;fill-opacity:0.50463;stroke-width:0.399096"
       d="m 1044.5489,34.732344 a 49.325901,11.735567 0 0 1 -0.179,-0.02041 49.325901,11.735567 0 0 1 -0.2272,-0.02584 49.325901,11.735567 0 0 0 0.4062,0.04625 z" />
    <path
       id="path1041"
       style="fill:#addde9;fill-opacity:0.50463;stroke-width:0.399096"
       d="m 1046.6258,34.951193 a 49.325901,11.735567 0 0 1 -0.1868,-0.01861 49.325901,11.735567 0 0 1 -0.1336,-0.01344 49.325901,11.735567 0 0 0 0.3204,0.03204 z" />
    <path
       id="path1039"
       style="fill:#addde9;fill-opacity:0.50463;stroke-width:0.399096"
       d="m 1048.482,35.124568 a 49.325901,11.735567 0 0 1 -0.1697,-0.01498 49.325901,11.735567 0 0 1 -0.1186,-0.0106 49.325901,11.735567 0 0 0 0.2883,0.02558 z" />
    <path
       id="path1037"
       style="fill:#addde9;fill-opacity:0.50463;stroke-width:0.399096"
       d="m 1056.7466,35.66226 a 49.325901,11.735567 0 0 1 -0.1902,-0.0083 49.325901,11.735567 0 0 1 -0.2475,-0.01111 49.325901,11.735567 0 0 0 0.4377,0.01938 z" />
    <path
       id="path1035"
       style="fill:#addde9;fill-opacity:0.50463;stroke-width:0.399096"
       d="m 1061.0017,35.801269 a 49.325901,11.735567 0 0 1 -0.2055,-0.0046 49.325901,11.735567 0 0 1 -0.2508,-0.0059 49.325901,11.735567 0 0 0 0.4563,0.0106 z" />
    <path
       id="path1033"
       style="fill:#addde9;fill-opacity:0.50463;stroke-width:0.399096"
       d="m 1062.9979,35.835893 a 49.325901,11.735567 0 0 1 -0.1922,-0.0026 49.325901,11.735567 0 0 1 -0.1398,-0.0018 49.325901,11.735567 0 0 0 0.332,0.0044 z" />
    <path
       id="path1031"
       style="fill:#addde9;fill-opacity:0.50463;stroke-width:0.399096"
       d="m 1065.5758,35.851913 a 49.325901,11.735567 0 0 1 -0.2519,-2.64e-4 49.325901,11.735567 0 0 1 -0.2003,-2.65e-4 49.325901,11.735567 0 0 0 0.4522,5.5e-4 z" />
    <path
       id="path1029"
       style="fill:#addde9;fill-opacity:0.50463;stroke-width:0.399096"
       d="m 1077.919,35.478551 a 49.325901,11.735567 0 0 1 -0.2442,0.01473 49.325901,11.735567 0 0 1 -0.2039,0.01239 49.325901,11.735567 0 0 0 0.4481,-0.02713 z" />
    <path
       id="path1027"
       style="fill:#addde9;fill-opacity:0.50463;stroke-width:0.399096"
       d="m 1078.3567,35.451163 a 49.325901,11.735567 0 0 1 -0.1941,0.01214 49.325901,11.735567 0 0 1 -0.2436,0.01525 49.325901,11.735567 0 0 0 0.4377,-0.02739 z" />
    <path
       id="path1025"
       style="fill:#addde9;fill-opacity:0.50463;stroke-width:0.399096"
       d="m 1084.0902,34.993826 a 49.325901,11.735567 0 0 1 -0.1899,0.01808 49.325901,11.735567 0 0 1 -0.2341,0.02222 49.325901,11.735567 0 0 0 0.424,-0.04031 z" />
    <path
       id="path963"
       style="fill:#addde9;fill-opacity:0.50463;stroke-width:0.399096"
       d="m 1114.2909,31.497918 c 0.021,-0.01377 0.043,-0.02568 0.064,-0.03953 0.082,-0.05454 0.1572,-0.115801 0.2382,-0.171566 -0.1014,0.06985 -0.1992,0.143169 -0.3025,0.211099 z" />
    <path
       id="path961"
       style="fill:#addde9;fill-opacity:0.50463;stroke-width:0.399096"
       d="m 1017.6087,31.422211 c 0.018,0.01153 0.033,0.02469 0.05,0.03618 0.3506,0.232568 0.7119,0.453999 1.0798,0.665334 -0.386,-0.221739 -0.7633,-0.456218 -1.1299,-0.701508 z" />
    <path
       id="path959"
       style="fill:#addde9;fill-opacity:0.25;stroke-width:0.39885"
       d="m 1015.9597,30.156461 c -0.026,-0.02094 -0.056,-0.03911 -0.082,-0.0602 V 162.56872 h 0.01 c 4e-4,0.0196 0,0.0392 0,0.0586 l 0.1067,-0.024 c -0.01,0.0342 -0.026,0.10603 -0.024,0.14075 0.058,1.87161 1.427,3.48648 3.9998,4.91441 2.5729,1.42793 6.2145,2.68774 10.6918,3.74705 8.9547,2.11865 21.2449,3.42099 34.8165,3.42099 13.5716,0 25.861,-1.30234 34.8153,-3.42099 4.4773,-1.05931 8.1202,-2.31912 10.6929,-3.74705 2.5728,-1.42793 4.1516,-3.056 4.2099,-4.92761 3e-4,-0.0246 0,-0.0491 -0.01,-0.0734 h 0.1207 c 0.01,-0.0341 0.01,-0.0689 0.01,-0.10361 -0.025,-0.82235 -0.3452,-1.59758 -0.9133,-2.32958 V 30.422337 c -0.1712,0.12882 -0.3528,0.248318 -0.5308,0.371035 -0.081,0.05576 -0.1558,0.117024 -0.2379,0.171567 -0.021,0.01384 -0.043,0.02576 -0.064,0.03953 -0.3305,0.217479 -0.6683,0.427021 -1.0139,0.625801 -2.9394,1.690676 -6.8313,3.035156 -11.5863,4.16796 -9.5101,2.265606 -22.514,3.530228 -35.6239,3.530272 -13.1101,1.8e-5 -26.1138,-1.264663 -35.6241,-3.530272 -4.7552,-1.132805 -8.6469,-2.477274 -11.5864,-4.16796 -0.3674,-0.211336 -0.7282,-0.432767 -1.0784,-0.665334 -0.018,-0.01149 -0.033,-0.02463 -0.05,-0.03618 -0.1,-0.06681 -0.1919,-0.140133 -0.2898,-0.208772 -0.2278,-0.159643 -0.4586,-0.316927 -0.6746,-0.486792 -0.031,-0.02442 -0.058,-0.0521 -0.089,-0.07674 z"
       sodipodi:nodetypes="cccccccsssssccccccscccsssscccccc" />
    <path
       id="path957"
       style="fill:#addde9;fill-opacity:0.50463;stroke-width:0.399096"
       d="m 1016.5545,30.649908 c 0.031,0.02464 0.058,0.05232 0.089,0.07674 0.2163,0.169865 0.4473,0.327149 0.6754,0.486792 -0.2607,-0.182608 -0.519,-0.367598 -0.764,-0.563532 z" />
    <path
       id="ellipse862"
       style="fill:#5facd3;fill-opacity:0.50463;stroke-width:0.399096"
       d="m 1118.6955,24.215421 h -3.7959 a 49.325901,11.735567 0 0 1 -49.3238,11.636492 49.325901,11.735567 0 0 1 -49.3241,-11.636492 h -2.9337 c -0.011,0.155823 -0.043,0.302518 -0.043,0.46302 0,3.410254 2.5207,5.75459 5.4638,7.445278 2.943,1.690687 6.8395,3.035156 11.6005,4.167961 9.5221,2.265608 22.5419,3.53029 35.6681,3.530272 13.1261,-4.4e-5 26.1461,-1.264666 35.6678,-3.530272 4.761,-1.132804 8.6576,-2.477285 11.6006,-4.167961 2.9427,-1.690508 5.4634,-4.034587 5.463,-7.444244 0,-0.160866 -0.032,-0.307891 -0.043,-0.464054 z" />
    <path
       id="path892"
       style="color:#000000;font-style:normal;font-variant:normal;font-weight:normal;font-stretch:normal;font-size:medium;line-height:normal;font-family:sans-serif;font-variant-ligatures:normal;font-variant-position:normal;font-variant-caps:normal;font-variant-numeric:normal;font-variant-alternates:normal;font-variant-east-asian:normal;font-feature-settings:normal;font-variation-settings:normal;text-indent:0;text-align:start;text-decoration:none;text-decoration-line:none;text-decoration-style:solid;text-decoration-color:#000000;letter-spacing:normal;word-spacing:normal;text-transform:none;writing-mode:lr-tb;direction:ltr;text-orientation:mixed;dominant-baseline:auto;baseline-shift:baseline;text-anchor:start;white-space:normal;shape-padding:0;shape-margin:0;inline-size:0;clip-rule:nonzero;display:inline;overflow:visible;visibility:visible;isolation:auto;mix-blend-mode:normal;color-interpolation:sRGB;color-interpolation-filters:linearRGB;solid-color:#000000;solid-opacity:1;vector-effect:none;fill:#1a1a1a;fill-opacity:1;fill-rule:nonzero;stroke:none;stroke-width:0.926039;stroke-linecap:butt;stroke-linejoin:miter;stroke-miterlimit:4;stroke-dasharray:none;stroke-dashoffset:0;stroke-opacity:1;color-rendering:auto;image-rendering:auto;shape-rendering:auto;text-rendering:auto;enable-background:accumulate;stop-color:#000000"
       d="m 1015.8222,24.215421 c 0.016,1.8691 1.5655,3.507533 4.1088,4.938196 2.5589,1.439359 6.2027,2.709298 10.6916,3.777288 8.9778,2.135993 21.3345,3.450175 34.9852,3.450175 13.6508,0 26.0084,-1.314182 34.9862,-3.450175 4.4889,-1.06799 8.1317,-2.337929 10.6906,-3.777288 2.5434,-1.430664 4.0902,-3.069095 4.1088,-4.938196 h -0.9258 c -0.017,1.347613 -1.2242,2.774041 -3.6375,4.131529 -2.4332,1.368675 -6.0137,2.627767 -10.451,3.683494 -8.8746,2.111439 -21.1801,3.424854 -34.7713,3.424853 -13.5912,0 -25.8971,-1.313414 -34.7717,-3.424853 -4.4373,-1.055727 -8.0176,-2.314806 -10.4508,-3.683494 -2.4133,-1.35748 -3.6174,-2.783924 -3.6368,-4.131529 z" />
    <path
       id="path1131"
       style="color:#000000;font-style:normal;font-variant:normal;font-weight:normal;font-stretch:normal;font-size:medium;line-height:normal;font-family:sans-serif;font-variant-ligatures:normal;font-variant-position:normal;font-variant-caps:normal;font-variant-numeric:normal;font-variant-alternates:normal;font-variant-east-asian:normal;font-feature-settings:normal;font-variation-settings:normal;text-indent:0;text-align:start;text-decoration:none;text-decoration-line:none;text-decoration-style:solid;text-decoration-color:#000000;letter-spacing:normal;word-spacing:normal;text-transform:none;writing-mode:lr-tb;direction:ltr;text-orientation:mixed;dominant-baseline:auto;baseline-shift:baseline;text-anchor:start;white-space:normal;shape-padding:0;shape-margin:0;inline-size:0;clip-rule:nonzero;display:inline;overflow:visible;visibility:visible;isolation:auto;mix-blend-mode:normal;color-interpolation:sRGB;color-interpolation-filters:linearRGB;solid-color:#000000;solid-opacity:1;vector-effect:none;fill:#1a1a1a;fill-opacity:1;fill-rule:nonzero;stroke:none;stroke-width:0.926039;stroke-linecap:butt;stroke-linejoin:miter;stroke-miterlimit:4;stroke-dasharray:none;stroke-dashoffset:0;stroke-opacity:1;color-rendering:auto;image-rendering:auto;shape-rendering:auto;text-rendering:auto;enable-background:accumulate;stop-color:#000000"
       d="m 1115.3936,44.059159 h -0.9214 V 161.67801 c 0,0.61265 0,1.06481 0,1.59938 0,0.001 0,0.001 0,0.002 v 0.002 c 0,0 0,0.001 0,0.001 0,1.35718 -1.208,2.79488 -3.6408,4.16331 -2.4332,1.36868 -6.0137,2.62778 -10.4511,3.6835 -8.8746,2.11145 -21.18,3.42484 -34.7712,3.42484 -13.5912,0 -25.8971,-1.31339 -34.7718,-3.42484 -4.4373,-1.05572 -8.0175,-2.31482 -10.4507,-3.6835 -2.4332,-1.36869 -3.6406,-2.80669 -3.6406,-4.16409 0,0 -10e-5,0 0,0 0,-0.001 0,-0.003 0,-0.004 v 0 -1.5994 -117.619613 h -0.9258 V 163.1936 l 0.01,0.0842 h -0.01 c 0,10e-4 0,0.003 0,0.005 0,1.88329 1.5533,3.53139 4.1121,4.97075 2.5589,1.43937 6.2027,2.70928 10.6916,3.77728 8.9778,2.13599 21.3345,3.45018 34.9852,3.45018 13.6507,0 26.0084,-1.31419 34.9862,-3.45018 4.4889,-1.068 8.1317,-2.33791 10.6906,-3.77728 2.1977,-1.23621 3.6526,-2.62665 4.0199,-4.1876 v -0.007 c 0.059,-0.25408 0.091,-0.51247 0.091,-0.77567 0,-0.001 0,-0.003 0,-0.004 h -0.01 l 0.01,-0.085 z" />
    <path
       id="path1129"
       style="color:#000000;font-style:normal;font-variant:normal;font-weight:normal;font-stretch:normal;font-size:medium;line-height:normal;font-family:sans-serif;font-variant-ligatures:normal;font-variant-position:normal;font-variant-caps:normal;font-variant-numeric:normal;font-variant-alternates:normal;font-variant-east-asian:normal;font-feature-settings:normal;font-variation-settings:normal;text-indent:0;text-align:start;text-decoration:none;text-decoration-line:none;text-decoration-style:solid;text-decoration-color:#000000;letter-spacing:normal;word-spacing:normal;text-transform:none;writing-mode:lr-tb;direction:ltr;text-orientation:mixed;dominant-baseline:auto;baseline-shift:baseline;text-anchor:start;white-space:normal;shape-padding:0;shape-margin:0;inline-size:0;clip-rule:nonzero;display:inline;overflow:visible;visibility:visible;isolation:auto;mix-blend-mode:normal;color-interpolation:sRGB;color-interpolation-filters:linearRGB;solid-color:#000000;solid-opacity:1;vector-effect:none;fill:#1a1a1a;fill-opacity:1;fill-rule:nonzero;stroke:none;stroke-width:0.926039;stroke-linecap:butt;stroke-linejoin:miter;stroke-miterlimit:4;stroke-dasharray:none;stroke-dashoffset:0;stroke-opacity:1;color-rendering:auto;image-rendering:auto;shape-rendering:auto;text-rendering:auto;enable-background:accumulate;stop-color:#000000"
       d="m 1119.1981,24.215421 h -0.9222 c 0,3.97e-4 0,6.5e-4 0,0.001 0,3.181438 -2.3493,5.387678 -5.2307,7.042976 -2.8819,1.65556 -6.7415,2.992247 -11.4776,4.119127 -9.467,2.252583 -22.464,3.517568 -35.5603,3.517613 -13.0965,1.9e-5 -26.093,-1.265025 -35.5604,-3.517613 -4.7361,-1.12688 -8.5956,-2.463547 -11.4776,-4.119127 -2.8818,-1.655505 -5.2324,-3.862071 -5.2314,-7.044009 h -0.9258 c 0,2.484649 1.2553,4.42986 3.0083,5.963456 v 13.880257 h 0.9258 V 30.919918 c 0.5618,0.413605 1.1553,0.79371 1.7622,1.142306 3.0042,1.725803 6.9374,3.07806 11.7233,4.216794 9.5768,2.278624 22.6197,3.542954 35.7756,3.542934 13.1558,-4.4e-5 26.1987,-1.26431 35.7753,-3.542934 4.7858,-1.138734 8.7194,-2.491 11.7236,-4.216794 0.3272,-0.187972 0.6494,-0.386808 0.966,-0.593245 v 12.59018 h 0.9214 V 30.824833 c 2.1563,-1.622637 3.8048,-3.76168 3.8045,-6.608379 0,-3.97e-4 0,-6.5e-4 0,-10e-4 z" />
  </g>
</svg>
