<?xml version="1.0" encoding="UTF-8" standalone="no"?>
<svg
   xmlns:dc="http://purl.org/dc/elements/1.1/"
   xmlns:cc="http://creativecommons.org/ns#"
   xmlns:rdf="http://www.w3.org/1999/02/22-rdf-syntax-ns#"
   xmlns:svg="http://www.w3.org/2000/svg"
   xmlns="http://www.w3.org/2000/svg"
   xmlns:sodipodi="http://sodipodi.sourceforge.net/DTD/sodipodi-0.dtd"
   xmlns:inkscape="http://www.inkscape.org/namespaces/inkscape"
   width="76.865074mm"
   height="243.07823mm"
   viewBox="0 0 76.865074 243.07823"
   version="1.1"
   id="svg8"
   sodipodi:docname="probowka2-bottom.svg"
   inkscape:version="1.0.1 (3bc2e813f5, 2020-09-07)">
  <defs
     id="defs2" />
  <sodipodi:namedview
     id="base"
     pagecolor="#ffffff"
     bordercolor="#666666"
     borderopacity="1.0"
     inkscape:pageopacity="0.0"
     inkscape:pageshadow="2"
     inkscape:zoom="0.175"
     inkscape:cx="1806.2018"
     inkscape:cy="954.30562"
     inkscape:document-units="mm"
     inkscape:current-layer="layer1"
     inkscape:document-rotation="0"
     showgrid="false"
     inkscape:snap-nodes="true"
     inkscape:object-paths="true"
     inkscape:snap-intersection-paths="true"
     inkscape:snap-smooth-nodes="true"
     inkscape:window-width="1920"
     inkscape:window-height="1017"
     inkscape:window-x="1432"
     inkscape:window-y="-8"
     inkscape:window-maximized="1" />
  <metadata
     id="metadata5">
    <rdf:RDF>
      <cc:Work
         rdf:about="">
        <dc:format>image/svg+xml</dc:format>
        <dc:type
           rdf:resource="http://purl.org/dc/dcmitype/StillImage" />
        <dc:title />
      </cc:Work>
    </rdf:RDF>
  </metadata>
  <g
     inkscape:label="Warstwa 1"
     inkscape:groupmode="layer"
     id="layer1"
     transform="translate(-97.607478,-45.623014)">
    <g
       id="g872">
      <path
         id="path880"
         style="color:#000000;font-style:normal;font-variant:normal;font-weight:normal;font-stretch:normal;font-size:medium;line-height:normal;font-family:sans-serif;font-variant-ligatures:normal;font-variant-position:normal;font-variant-caps:normal;font-variant-numeric:normal;font-variant-alternates:normal;font-variant-east-asian:normal;font-feature-settings:normal;font-variation-settings:normal;text-indent:0;text-align:start;text-decoration:none;text-decoration-line:none;text-decoration-style:solid;text-decoration-color:#000000;letter-spacing:normal;word-spacing:normal;text-transform:none;writing-mode:lr-tb;direction:ltr;text-orientation:mixed;dominant-baseline:auto;baseline-shift:baseline;text-anchor:start;white-space:normal;shape-padding:0;shape-margin:0;inline-size:0;clip-rule:nonzero;display:inline;overflow:visible;visibility:visible;opacity:0.997;isolation:auto;mix-blend-mode:normal;color-interpolation:sRGB;color-interpolation-filters:linearRGB;solid-color:#000000;solid-opacity:1;vector-effect:none;fill:#1a1a1a;fill-opacity:1;fill-rule:nonzero;stroke:none;stroke-width:1.5853;stroke-linecap:butt;stroke-linejoin:miter;stroke-miterlimit:4;stroke-dasharray:none;stroke-dashoffset:0;stroke-opacity:1;color-rendering:auto;image-rendering:auto;shape-rendering:auto;text-rendering:auto;enable-background:accumulate;stop-color:#000000"
         d="m 135.81444,257.82043 c -9.23566,0 -17.60117,1.63972 -23.72859,4.33932 -3.0637,1.34981 -5.57336,2.9634 -7.34785,4.81181 -1.7745,1.84838 -2.81761,3.96596 -2.81761,6.21642 h 1.59661 c 0,-1.77595 0.8083,-3.49635 2.38322,-5.13685 1.57491,-1.64049 3.91318,-3.16667 6.83853,-4.45552 5.85068,-2.57768 14.0334,-4.20213 23.07569,-4.20213 9.04229,0 17.22346,1.62445 23.07414,4.20213 2.92534,1.28885 5.26362,2.81503 6.83853,4.45552 1.57491,1.6405 2.38322,3.3609 2.38322,5.13685 h 1.59869 c 0,-2.25046 -1.04519,-4.36804 -2.81969,-6.21642 -1.77449,-1.84841 -4.28415,-3.462 -7.34785,-4.81181 -6.12742,-2.6996 -14.49138,-4.33932 -23.72704,-4.33932 z" />
      <g
         id="g864">
        <path
           id="path938"
           style="color:#000000;font-style:normal;font-variant:normal;font-weight:normal;font-stretch:normal;font-size:medium;line-height:normal;font-family:sans-serif;font-variant-ligatures:normal;font-variant-position:normal;font-variant-caps:normal;font-variant-numeric:normal;font-variant-alternates:normal;font-variant-east-asian:normal;font-feature-settings:normal;font-variation-settings:normal;text-indent:0;text-align:start;text-decoration:none;text-decoration-line:none;text-decoration-style:solid;text-decoration-color:#000000;letter-spacing:normal;word-spacing:normal;text-transform:none;writing-mode:lr-tb;direction:ltr;text-orientation:mixed;dominant-baseline:auto;baseline-shift:baseline;text-anchor:start;white-space:normal;shape-padding:0;shape-margin:0;inline-size:0;clip-rule:nonzero;display:inline;overflow:visible;visibility:visible;opacity:0.997;isolation:auto;mix-blend-mode:normal;color-interpolation:sRGB;color-interpolation-filters:linearRGB;solid-color:#000000;solid-opacity:1;vector-effect:none;fill:#addde9;fill-opacity:0.501961;fill-rule:nonzero;stroke:none;stroke-width:6;stroke-linecap:butt;stroke-linejoin:miter;stroke-miterlimit:4;stroke-dasharray:none;stroke-dashoffset:0;stroke-opacity:1;color-rendering:auto;image-rendering:auto;shape-rendering:auto;text-rendering:auto;enable-background:accumulate;stop-color:#000000"
           d="M 144.66211 25.998047 C 126.74749 26.034708 108.90948 27.946505 92.816406 31.371094 C 80.29846 34.035245 68.836954 37.614999 59.214844 41.943359 C 48.218157 46.890069 39.61538 52.761253 34.050781 58.796875 C 28.486183 64.832482 25.965814 70.839463 25.966797 76.646484 L 25.998047 76.646484 C 25.998954 82.469935 28.53348 88.495043 34.132812 94.546875 C 39.732145 100.59869 48.389287 106.47971 59.445312 111.42969 C 81.557325 121.32965 113.31735 127.28553 145.25977 127.28516 C 177.20093 127.28468 208.96372 121.32955 231.07422 111.42969 C 242.12941 106.47976 250.78194 100.59847 256.38086 94.546875 C 261.97974 88.495266 264.51472 82.469716 264.51562 76.646484 L 264.51562 76.644531 L 264.50781 76.644531 C 264.50864 70.820831 261.97872 64.796332 256.38086 58.744141 C 252.88219 54.961529 248.18697 51.246433 242.45898 47.783203 C 241.31511 47.091572 240.13127 46.408312 238.90625 45.738281 C 238.90425 45.737321 238.90222 45.737326 238.89844 45.736328 C 237.67323 45.066286 236.4073 44.407228 235.10352 43.761719 C 235.10151 43.760827 235.09948 43.760763 235.0957 43.759766 C 233.79177 43.114264 232.45022 42.481279 231.07031 41.863281 C 231.06831 41.86245 231.06823 41.862326 231.06445 41.861328 C 229.68436 41.243315 228.26742 40.639555 226.81445 40.052734 C 226.81245 40.051975 226.81042 40.051779 226.80664 40.050781 C 223.89848 38.876391 220.8482 37.766188 217.67578 36.722656 C 217.67378 36.722025 217.67175 36.721701 217.66797 36.720703 C 216.08265 36.199283 214.4667 35.694303 212.82227 35.207031 C 212.82026 35.206472 212.81823 35.20608 212.81445 35.205078 C 211.16991 34.717837 209.49589 34.248975 207.79688 33.796875 C 207.79487 33.796353 207.79284 33.79592 207.78906 33.794922 C 206.08994 33.342841 204.36616 32.90814 202.61719 32.492188 C 202.61518 32.491719 202.61315 32.491236 202.60938 32.490234 C 200.86029 32.074316 199.0873 31.677639 197.29297 31.298828 C 197.291 31.298409 197.28894 31.296875 197.28516 31.296875 C 195.49075 30.918095 193.67293 30.559429 191.83789 30.21875 C 191.83589 30.218387 191.83386 30.216797 191.83008 30.216797 C 189.99497 29.876148 188.14066 29.555467 186.26953 29.253906 C 186.26753 29.253585 186.26745 29.251953 186.26367 29.251953 C 184.39247 28.950422 182.50418 28.669656 180.60156 28.408203 C 179.41456 28.245079 178.2134 28.104259 177.01562 27.957031 C 176.29143 27.868023 175.57548 27.766706 174.84766 27.683594 C 174.84565 27.683371 174.84362 27.683813 174.83984 27.683594 C 172.91024 27.463247 170.96745 27.262265 169.01562 27.083984 C 169.01362 27.083803 169.01159 27.084154 169.00781 27.083984 C 167.05599 26.905742 165.09444 26.748471 163.125 26.613281 C 163.123 26.613138 163.12097 26.613398 163.11719 26.613281 C 161.14775 26.478125 159.1699 26.3646 157.1875 26.273438 C 157.1855 26.273347 157.18347 26.273528 157.17969 26.273438 C 155.19725 26.182351 153.2095 26.11447 151.21875 26.068359 C 151.21675 26.068322 151.21472 26.068409 151.21094 26.068359 C 149.22015 26.022249 147.22695 25.99816 145.23242 25.998047 A 4.990636 4.990636 0 0 1 145.22461 25.998047 A 4.990636 4.990636 0 0 1 145.22266 25.998047 L 145.21484 25.998047 C 145.02889 25.997858 144.84787 25.997858 144.66211 25.998047 z "
           transform="matrix(0.26458333,0,0,0.26458333,97.607478,45.623014)" />
        <path
           id="path944"
           style="opacity:0.997;fill:#1a1a1a;stroke-width:3.36984"
           d="m 97.607479,65.902437 h 1.429885 c -0.0011,-6.24981 5.219796,-11.09626 12.009606,-14.150557 6.7898,-3.054297 15.77125,-4.680479 24.83569,-4.698939 a 4.1291988,4.1291988 0 0 1 0.004,0 c 0.053,-5.3e-5 0.10523,-5.3e-5 0.15813,0 9.08927,5.29e-4 18.10927,1.617311 24.92974,4.67155 6.82145,3.05468 12.06941,7.91016 12.06852,14.177946 h 1.42937 c 0.001,-7.10433 -5.83745,-12.313375 -12.91394,-15.48226 -7.07498,-3.168211 -16.25531,-4.796293 -25.51162,-4.797124 -0.0539,-5.2e-5 -0.10834,-5.2e-5 -0.16227,0 a 5.5600732,5.5600732 0 0 0 -0.006,0 h -5.3e-4 c -9.23151,0.01886 -18.37302,1.655107 -25.41757,4.823997 -7.04468,3.168949 -12.854642,8.371433 -12.853473,15.455387 z" />
        <path
           id="path948"
           style="opacity:0.997;fill:#5fadd3;fill-opacity:0.5;stroke-width:3.36984"
           d="m 99.036848,65.902437 h 5.449282 c -2.6e-4,-1.536441 0.66659,-3.125787 2.13889,-4.722709 1.4723,-1.596925 3.74845,-3.150344 6.65799,-4.459161 5.81896,-2.617575 14.18164,-4.201628 22.60895,-4.218863 h 5.3e-4 c 0.049,-5e-5 0.0973,-5e-5 0.14624,0 a 1.3204392,1.3204392 0 0 0 0.002,0 c 8.45182,1.27e-4 16.85495,1.577954 22.70508,4.197678 2.92507,1.309857 5.21616,2.865083 6.69726,4.466392 1.4811,1.601308 2.15099,3.195804 2.15077,4.736663 h 5.44877 c 7.9e-4,-6.267786 -5.24706,-11.123266 -12.06852,-14.177946 -6.82046,-3.054239 -15.84047,-4.670947 -24.92974,-4.67155 -0.0529,-5.3e-5 -0.10518,-5.3e-5 -0.15813,0 a 4.1291988,4.1291988 0 0 0 -0.004,0 c -9.06444,0.01847 -18.0459,1.644642 -24.83569,4.698939 -6.78982,3.054297 -12.010633,7.900747 -12.009603,14.150557 z" />
        <path
           id="path952"
           style="opacity:0.997;fill:#1a1a1a;stroke-width:3.36984"
           d="m 103.16579,65.902437 h 1.32034 c -2.6e-4,-1.536441 0.66659,-3.125787 2.13889,-4.722709 1.4723,-1.596925 3.74845,-3.150344 6.65799,-4.459161 5.81908,-2.617631 14.18198,-4.201691 22.60947,-4.218863 0.0492,-5e-5 0.0976,-5e-5 0.14676,0 a 1.3204391,1.3204391 0 0 0 0.002,0 c 8.45182,1.27e-4 16.85494,1.577957 22.70507,4.197678 2.92507,1.309854 5.21617,2.865083 6.69727,4.466392 1.48109,1.601308 2.15099,3.195804 2.15077,4.736663 h 1.32033 a 32.874153,14.719769 0 0 0 0,-5.29e-4 32.874153,14.719769 0 0 0 -32.87396,-14.72003 32.874153,14.719769 0 0 0 -32.87448,14.72003 32.874153,14.719769 0 0 0 0,5.29e-4 z" />
      </g>
    </g>
  </g>
</svg>
