<?xml version="1.0" encoding="UTF-8" standalone="no"?>
<svg
   xmlns:dc="http://purl.org/dc/elements/1.1/"
   xmlns:cc="http://creativecommons.org/ns#"
   xmlns:rdf="http://www.w3.org/1999/02/22-rdf-syntax-ns#"
   xmlns:svg="http://www.w3.org/2000/svg"
   xmlns="http://www.w3.org/2000/svg"
   xmlns:sodipodi="http://sodipodi.sourceforge.net/DTD/sodipodi-0.dtd"
   xmlns:inkscape="http://www.inkscape.org/namespaces/inkscape"
   width="212.77209mm"
   height="231.96123mm"
   viewBox="0 0 212.7721 231.96122"
   version="1.1"
   id="svg8"
   sodipodi:docname="probowka-bottom.svg"
   inkscape:version="1.0.1 (3bc2e813f5, 2020-09-07)">
  <defs
     id="defs2" />
  <sodipodi:namedview
     id="base"
     pagecolor="#ffffff"
     bordercolor="#666666"
     borderopacity="1.0"
     inkscape:pageopacity="0.0"
     inkscape:pageshadow="2"
     inkscape:zoom="0.35355339"
     inkscape:cx="39.165501"
     inkscape:cy="629.82003"
     inkscape:document-units="mm"
     inkscape:current-layer="layer1"
     inkscape:document-rotation="0"
     showgrid="false"
     inkscape:snap-intersection-paths="true"
     inkscape:object-paths="true"
     inkscape:snap-smooth-nodes="true"
     inkscape:snap-nodes="true"
     showguides="false"
     inkscape:window-width="1920"
     inkscape:window-height="1017"
     inkscape:window-x="1432"
     inkscape:window-y="-8"
     inkscape:window-maximized="1" />
  <metadata
     id="metadata5">
    <rdf:RDF>
      <cc:Work
         rdf:about="">
        <dc:format>image/svg+xml</dc:format>
        <dc:type
           rdf:resource="http://purl.org/dc/dcmitype/StillImage" />
        <dc:title></dc:title>
      </cc:Work>
    </rdf:RDF>
  </metadata>
  <g
     inkscape:label="Warstwa 1"
     inkscape:groupmode="layer"
     id="layer1"
     transform="translate(-1012.8121,-8.5830806)">
    <g
       id="g1053">
      <path
         id="path873"
         style="color:#000000;font-style:normal;font-variant:normal;font-weight:normal;font-stretch:normal;font-size:medium;line-height:normal;font-family:sans-serif;font-variant-ligatures:normal;font-variant-position:normal;font-variant-caps:normal;font-variant-numeric:normal;font-variant-alternates:normal;font-variant-east-asian:normal;font-feature-settings:normal;font-variation-settings:normal;text-indent:0;text-align:start;text-decoration:none;text-decoration-line:none;text-decoration-style:solid;text-decoration-color:#000000;letter-spacing:normal;word-spacing:normal;text-transform:none;writing-mode:lr-tb;direction:ltr;text-orientation:mixed;dominant-baseline:auto;baseline-shift:baseline;text-anchor:start;white-space:normal;shape-padding:0;shape-margin:0;inline-size:0;clip-rule:nonzero;display:inline;overflow:visible;visibility:visible;isolation:auto;mix-blend-mode:normal;color-interpolation:sRGB;color-interpolation-filters:linearRGB;solid-color:#000000;solid-opacity:1;vector-effect:none;fill:#1a1a1a;fill-opacity:1;fill-rule:nonzero;stroke:none;stroke-width:1.85208;stroke-linecap:butt;stroke-linejoin:miter;stroke-miterlimit:4;stroke-dasharray:none;stroke-dashoffset:0;stroke-opacity:1;color-rendering:auto;image-rendering:auto;shape-rendering:auto;text-rendering:auto;enable-background:accumulate;stop-color:#000000"
         d="m 1118.4052,191.7599 c -27.3015,0 -52.0148,2.62837 -69.9704,6.90036 -8.9778,2.13598 -16.2655,4.67585 -21.3832,7.55457 -5.1134,2.87631 -8.2181,6.17164 -8.2233,9.93428 h 1.8516 c 0.01,-2.71211 2.4193,-5.58667 7.2802,-8.32096 4.8664,-2.73738 12.0274,-5.25552 20.9021,-7.36698 17.7492,-4.22288 42.3606,-6.84971 69.543,-6.84971 27.1825,0 51.7937,2.62683 69.543,6.84971 8.8747,2.11146 16.0357,4.62963 20.9021,7.36698 4.861,2.73429 7.2752,5.60885 7.2807,8.32096 h 1.8516 c -0.01,-3.76264 -3.1104,-7.05797 -8.2238,-9.93428 -5.1177,-2.87872 -12.4033,-5.41859 -21.3811,-7.55457 -17.9557,-4.27199 -42.671,-6.90036 -69.9725,-6.90036 z" />
      <g
         id="g1214"
         transform="translate(-1.3871289e-5,3.3158125e-5)">
        <path
           id="path1023"
           style="fill:#addde9;fill-opacity:0.50463;stroke-width:3.01679"
           d="m 1858.8613,479.19727 a 372.85743,88.70985 0 0 1 0.6387,0.42773 372.85743,88.70985 0 0 1 0.5488,0.37109 372.85743,88.709849 0 0 0 -1.1875,-0.79882 z"
           transform="matrix(0.26458333,0,0,0.26458333,721.52524,-74.542854)" />
        <path
           id="path1021"
           style="fill:#addde9;fill-opacity:0.50463;stroke-width:3.01679"
           d="m 1852.6973,475.39258 a 372.85743,88.70985 0 0 1 0.7207,0.41992 372.85743,88.70985 0 0 1 0.7129,0.41992 372.85743,88.709849 0 0 0 -1.4336,-0.83984 z"
           transform="matrix(0.26458333,0,0,0.26458333,721.52524,-74.542854)" />
        <path
           id="path1019"
           style="fill:#addde9;fill-opacity:0.50463;stroke-width:3.01679"
           d="m 1846.6074,472.07031 a 372.85743,88.70985 0 0 1 0.791,0.41211 372.85743,88.70985 0 0 1 0.7813,0.41016 372.85743,88.709849 0 0 0 -1.5723,-0.82227 z"
           transform="matrix(0.26458333,0,0,0.26458333,721.52524,-74.542854)" />
        <path
           id="path1017"
           style="fill:#addde9;fill-opacity:0.50463;stroke-width:3.01679"
           d="m 1840.9062,469.25781 a 372.85743,88.70985 0 0 1 0.7598,0.36133 372.85743,88.70985 0 0 1 0.8145,0.38867 372.85743,88.709849 0 0 0 -1.5743,-0.75 z"
           transform="matrix(0.26458333,0,0,0.26458333,721.52524,-74.542854)" />
        <path
           id="path1015"
           style="fill:#addde9;fill-opacity:0.50463;stroke-width:3.01679"
           d="m 1821.9434,461.3457 a 372.85743,88.70985 0 0 1 1.0214,0.38282 372.85743,88.70985 0 0 1 1.0157,0.38281 372.85743,88.709849 0 0 0 -2.0371,-0.76563 z"
           transform="matrix(0.26458333,0,0,0.26458333,721.52524,-74.542854)" />
        <path
           id="path1013"
           style="fill:#addde9;fill-opacity:0.50463;stroke-width:3.01679"
           d="m 1809.0352,456.85938 a 372.85743,88.70985 0 0 1 1.1191,0.36718 372.85743,88.70985 0 0 1 1.1113,0.36719 372.85743,88.709849 0 0 0 -2.2304,-0.73437 z"
           transform="matrix(0.26458333,0,0,0.26458333,721.52524,-74.542854)" />
        <path
           id="path1011"
           style="fill:#addde9;fill-opacity:0.50463;stroke-width:3.01679"
           d="m 1805.6289,455.76758 a 372.85743,88.70985 0 0 1 1.1426,0.36328 372.85743,88.70985 0 0 1 1.1347,0.36328 372.85743,88.709849 0 0 0 -2.2773,-0.72656 z"
           transform="matrix(0.26458333,0,0,0.26458333,721.52524,-74.542854)" />
        <path
           id="path1009"
           style="fill:#addde9;fill-opacity:0.50463;stroke-width:3.01679"
           d="m 1794.9961,452.57031 a 372.85743,88.70985 0 0 1 1.2109,0.34961 372.85743,88.70985 0 0 1 0.6289,0.18164 372.85743,88.709849 0 0 0 -1.8398,-0.53125 z"
           transform="matrix(0.26458333,0,0,0.26458333,721.52524,-74.542854)" />
        <path
           id="path1007"
           style="fill:#addde9;fill-opacity:0.50463;stroke-width:3.01679"
           d="m 1786.3047,450.16406 a 372.85743,88.70985 0 0 1 1.2637,0.33985 372.85743,88.70985 0 0 1 1.2558,0.33984 372.85743,88.709849 0 0 0 -2.5195,-0.67969 z"
           transform="matrix(0.26458333,0,0,0.26458333,721.52524,-74.542854)" />
        <path
           id="path1005"
           style="fill:#addde9;fill-opacity:0.50463;stroke-width:3.01679"
           d="m 1752.4434,442.21094 a 372.85743,88.70985 0 0 1 1.4355,0.29883 372.85743,88.70985 0 0 1 1.4277,0.29882 372.85743,88.709849 0 0 0 -2.8632,-0.59765 z"
           transform="matrix(0.26458333,0,0,0.26458333,721.52524,-74.542854)" />
        <path
           id="path1003"
           style="fill:#addde9;fill-opacity:0.50463;stroke-width:3.01679"
           d="m 1722.4609,436.62891 a 372.85743,88.70985 0 0 1 1.5547,0.26171 372.85743,88.70985 0 0 1 1.5489,0.26368 372.85743,88.70985 0 0 1 0.8046,0.13672 372.85743,88.709849 0 0 0 -3.9082,-0.66211 z"
           transform="matrix(0.26458333,0,0,0.26458333,721.52524,-74.542854)" />
        <path
           id="path1001"
           style="fill:#addde9;fill-opacity:0.50463;stroke-width:3.01679"
           d="m 1714.8359,435.38477 a 372.85743,88.70985 0 0 1 1.3496,0.21679 372.85743,88.70985 0 0 1 1.5762,0.25391 372.85743,88.70985 0 0 1 1.5723,0.25586 372.85743,88.70985 0 0 1 1.5664,0.25781 372.85743,88.709849 0 0 0 -6.0645,-0.98437 z"
           transform="matrix(0.26458333,0,0,0.26458333,721.52524,-74.542854)" />
        <path
           id="path999"
           style="fill:#addde9;fill-opacity:0.50463;stroke-width:3.01679"
           d="m 1691.8984,432.02539 a 372.85743,88.70985 0 0 1 1.6543,0.22461 372.85743,88.70985 0 0 1 1.6504,0.22656 372.85743,88.70985 0 0 1 1.6446,0.22852 372.85743,88.709849 0 0 0 -4.9493,-0.67969 z"
           transform="matrix(0.26458333,0,0,0.26458333,721.52524,-74.542854)" />
        <path
           id="path997"
           style="fill:#addde9;fill-opacity:0.50463;stroke-width:3.01679"
           d="m 1678.4961,430.30078 a 372.85743,88.70985 0 0 1 1.6914,0.20899 372.85743,88.70985 0 0 1 1.5469,0.1914 372.85743,88.709849 0 0 0 -3.2383,-0.40039 z"
           transform="matrix(0.26458333,0,0,0.26458333,721.52524,-74.542854)" />
        <path
           id="path995"
           style="fill:#addde9;fill-opacity:0.50463;stroke-width:3.01679"
           d="m 1675.0996,429.89062 a 372.85743,88.70985 0 0 1 1.6992,0.20508 372.85743,88.70985 0 0 1 1.6973,0.20508 372.85743,88.709849 0 0 0 -3.3965,-0.41016 z"
           transform="matrix(0.26458333,0,0,0.26458333,721.52524,-74.542854)" />
        <path
           id="path993"
           style="fill:#addde9;fill-opacity:0.50463;stroke-width:3.01679"
           d="m 1671.6855,429.48828 a 372.85743,88.70985 0 0 1 1.709,0.20117 372.85743,88.70985 0 0 1 1.7051,0.20117 372.85743,88.709849 0 0 0 -3.4141,-0.40234 z"
           transform="matrix(0.26458333,0,0,0.26458333,721.52524,-74.542854)" />
        <path
           id="path991"
           style="fill:#addde9;fill-opacity:0.50463;stroke-width:3.01679"
           d="m 1668.2559,429.0957 a 372.85743,88.70985 0 0 1 1.7168,0.19532 372.85743,88.70985 0 0 1 1.7128,0.19726 372.85743,88.709849 0 0 0 -3.4296,-0.39258 z"
           transform="matrix(0.26458333,0,0,0.26458333,721.52524,-74.542854)" />
        <path
           id="path989"
           style="fill:#addde9;fill-opacity:0.50463;stroke-width:3.01679"
           d="m 1650.8574,427.25195 a 372.85743,88.70985 0 0 1 1.7578,0.17578 372.85743,88.70985 0 0 1 1.7539,0.17579 372.85743,88.709849 0 0 0 -3.5117,-0.35157 z"
           transform="matrix(0.26458333,0,0,0.26458333,721.52524,-74.542854)" />
        <path
           id="path987"
           style="fill:#addde9;fill-opacity:0.50463;stroke-width:3.01679"
           d="m 1647.4941,426.92383 a 372.85743,88.70985 0 0 1 1.6016,0.15625 372.85743,88.70985 0 0 1 1.7617,0.17187 372.85743,88.709849 0 0 0 -3.3633,-0.32812 z"
           transform="matrix(0.26458333,0,0,0.26458333,721.52524,-74.542854)" />
        <path
           id="path985"
           style="fill:#addde9;fill-opacity:0.50463;stroke-width:3.01679"
           d="m 1628.0898,425.20898 a 372.85743,88.70985 0 0 1 1.4024,0.11524 372.85743,88.70985 0 0 1 1.7988,0.14844 372.85743,88.709849 0 0 0 -3.2012,-0.26368 z"
           transform="matrix(0.26458333,0,0,0.26458333,721.52524,-74.542854)" />
        <path
           id="path983"
           style="fill:#addde9;fill-opacity:0.50463;stroke-width:3.01679"
           d="m 1624.0781,424.89062 a 372.85743,88.70985 0 0 1 1.8067,0.14258 372.85743,88.70985 0 0 1 0.9414,0.0742 372.85743,88.709849 0 0 0 -2.7481,-0.2168 z"
           transform="matrix(0.26458333,0,0,0.26458333,721.52524,-74.542854)" />
        <path
           id="path981"
           style="fill:#addde9;fill-opacity:0.50463;stroke-width:3.01679"
           d="m 1611.3359,423.95703 a 372.85743,88.70985 0 0 1 1.8301,0.12695 372.85743,88.70985 0 0 1 1.8242,0.12891 372.85743,88.70985 0 0 1 1.8243,0.13086 372.85743,88.709849 0 0 0 -5.4786,-0.38672 z"
           transform="matrix(0.26458333,0,0,0.26458333,721.52524,-74.542854)" />
        <path
           id="path979"
           style="fill:#addde9;fill-opacity:0.50463;stroke-width:3.01679"
           d="m 1604.2227,423.48633 a 372.85743,88.70985 0 0 1 1.6132,0.10351 372.85743,88.70985 0 0 1 1.836,0.11914 372.85743,88.709849 0 0 0 -3.4492,-0.22265 z"
           transform="matrix(0.26458333,0,0,0.26458333,721.52524,-74.542854)" />
        <path
           id="path977"
           style="fill:#addde9;fill-opacity:0.50463;stroke-width:3.01679"
           d="m 1594.7637,422.91602 a 372.85743,88.70985 0 0 1 1.8515,0.10742 372.85743,88.70985 0 0 1 1.5664,0.0918 372.85743,88.709849 0 0 0 -3.4179,-0.19921 z"
           transform="matrix(0.26458333,0,0,0.26458333,721.52524,-74.542854)" />
        <path
           id="path975"
           style="fill:#addde9;fill-opacity:0.50463;stroke-width:3.01679"
           d="m 1591.0547,422.70898 a 372.85743,88.70985 0 0 1 1.8574,0.10352 372.85743,88.70985 0 0 1 1.8516,0.10352 372.85743,88.709849 0 0 0 -3.709,-0.20704 z"
           transform="matrix(0.26458333,0,0,0.26458333,721.52524,-74.542854)" />
        <path
           id="path973"
           style="fill:#addde9;fill-opacity:0.50463;stroke-width:3.01679"
           d="m 1551.6621,421.08984 a 372.85743,88.70985 0 0 1 1.8926,0.0547 372.85743,88.70985 0 0 1 1.8887,0.0566 372.85743,88.70985 0 0 1 1.8886,0.0586 372.85743,88.709849 0 0 0 -5.6699,-0.16993 z"
           transform="matrix(0.26458333,0,0,0.26458333,721.52524,-74.542854)" />
        <path
           id="path971"
           style="fill:#addde9;fill-opacity:0.50463;stroke-width:3.01679"
           d="m 1536.6426,420.74023 a 372.85743,88.70985 0 0 1 1.7558,0.0352 372.85743,88.70985 0 0 1 1.8965,0.0371 372.85743,88.709849 0 0 0 -3.6523,-0.0723 z"
           transform="matrix(0.26458333,0,0,0.26458333,721.52524,-74.542854)" />
        <path
           id="path969"
           style="fill:#addde9;fill-opacity:0.50463;stroke-width:3.01679"
           d="m 1526.9961,420.59375 a 372.85743,88.70985 0 0 1 1.9023,0.0254 372.85743,88.70985 0 0 1 1.7266,0.0234 372.85743,88.709849 0 0 0 -3.6289,-0.0488 z"
           transform="matrix(0.26458333,0,0,0.26458333,721.52524,-74.542854)" />
        <path
           id="path967"
           style="fill:#addde9;fill-opacity:0.50463;stroke-width:3.01679"
           d="m 1508.4512,420.47852 a 372.85743,88.70985 0 0 1 1.4121,0.002 372.85743,88.70985 0 0 1 1.9043,0.002 372.85743,88.709849 0 0 0 -3.3164,-0.004 z"
           transform="matrix(0.26458333,0,0,0.26458333,721.52524,-74.542854)" />
        <ellipse
           style="fill:#afdee9;fill-opacity:0.5;stroke-width:0.798192"
           id="ellipse890"
           cx="1118.4697"
           cy="39.591728"
           rx="98.651863"
           ry="23.471148" />
        <g
           id="g1143"
           transform="translate(-2.1664997,-20.588173)">
          <path
             id="path1137"
             style="fill:#5facd3;fill-opacity:0.50463;stroke-width:3.01679"
             d="m 1510.541,398.98828 c -99.1027,0.0424 -197.3374,9.62442 -269.1738,26.7461 -35.9182,8.56082 -65.3131,18.71157 -87.5195,31.48242 -21.1579,12.16775 -39.2282,28.90587 -40.9082,52.7207 h 22.1757 a 372.85743,88.70985 0 0 1 -0.014,-0.74805 372.85743,88.70985 0 0 1 372.8574,-88.71093 372.85743,88.70985 0 0 1 372.8574,88.71093 372.85743,88.70985 0 0 1 -0.016,0.74805 h 28.6933 c -1.6817,-23.84267 -19.7864,-40.58822 -40.9843,-52.76367 -22.2475,-12.77826 -51.702,-22.93792 -87.6895,-31.5 -71.9732,-17.12373 -170.3809,-26.68473 -269.5937,-26.68555 -0.2276,-5e-5 -0.458,-5e-5 -0.6856,0 z"
             transform="matrix(0.26458333,0,0,0.26458333,721.52524,-74.542854)" />
          <path
             id="path1133"
             style="color:#000000;font-style:normal;font-variant:normal;font-weight:normal;font-stretch:normal;font-size:medium;line-height:normal;font-family:sans-serif;font-variant-ligatures:normal;font-variant-position:normal;font-variant-caps:normal;font-variant-numeric:normal;font-variant-alternates:normal;font-variant-east-asian:normal;font-feature-settings:normal;font-variation-settings:normal;text-indent:0;text-align:start;text-decoration:none;text-decoration-line:none;text-decoration-style:solid;text-decoration-color:#000000;letter-spacing:normal;word-spacing:normal;text-transform:none;writing-mode:lr-tb;direction:ltr;text-orientation:mixed;dominant-baseline:auto;baseline-shift:baseline;text-anchor:start;white-space:normal;shape-padding:0;shape-margin:0;inline-size:0;clip-rule:nonzero;display:inline;overflow:visible;visibility:visible;isolation:auto;mix-blend-mode:normal;color-interpolation:sRGB;color-interpolation-filters:linearRGB;solid-color:#000000;solid-opacity:1;vector-effect:none;fill:#1a1a1a;fill-opacity:1;fill-rule:nonzero;stroke:none;stroke-width:6.99999;stroke-linecap:butt;stroke-linejoin:miter;stroke-miterlimit:4;stroke-dasharray:none;stroke-dashoffset:0;stroke-opacity:1;color-rendering:auto;image-rendering:auto;shape-rendering:auto;text-rendering:auto;enable-background:accumulate;stop-color:#000000"
             d="m 1131.8691,509.9375 h 7.002 c -10e-4,-0.0725 -0.025,-0.14631 -0.025,-0.21875 0,-10.2505 9.1437,-21.11492 27.5156,-31.44922 18.3927,-10.346 45.4563,-19.86345 78.9981,-27.84375 67.0839,-15.9605 160.1051,-25.88867 262.8418,-25.88867 102.7366,0 195.7539,9.92817 262.8379,25.88867 33.5421,7.9803 60.6073,17.49785 79,27.84375 18.3722,10.3343 27.4987,21.19872 27.5195,31.44922 0,0.0724 -0.023,0.14631 -0.023,0.21875 h 6.998 c 7e-4,-0.074 0.023,-0.14469 0.023,-0.21875 -0.038,-14.221 -11.7558,-26.67577 -31.082,-37.54687 -19.3425,-10.8802 -46.8787,-20.47974 -80.8105,-28.55274 -67.8641,-16.1461 -161.2762,-26.08008 -264.4629,-26.08008 -103.1868,0 -196.5914,9.93398 -264.4551,26.08008 -33.9318,8.073 -61.4759,17.67254 -80.8184,28.55274 -19.3262,10.8711 -31.0623,23.32587 -31.082,37.54687 0,0.0741 0.023,0.14478 0.023,0.21875 z"
             transform="matrix(0.26458333,0,0,0.26458333,721.52524,-74.542854)" />
          <path
             id="path1127"
             style="color:#000000;font-style:normal;font-variant:normal;font-weight:normal;font-stretch:normal;font-size:medium;line-height:normal;font-family:sans-serif;font-variant-ligatures:normal;font-variant-position:normal;font-variant-caps:normal;font-variant-numeric:normal;font-variant-alternates:normal;font-variant-east-asian:normal;font-feature-settings:normal;font-variation-settings:normal;text-indent:0;text-align:start;text-decoration:none;text-decoration-line:none;text-decoration-style:solid;text-decoration-color:#000000;letter-spacing:normal;word-spacing:normal;text-transform:none;writing-mode:lr-tb;direction:ltr;text-orientation:mixed;dominant-baseline:auto;baseline-shift:baseline;text-anchor:start;white-space:normal;shape-padding:0;shape-margin:0;inline-size:0;clip-rule:nonzero;display:inline;overflow:visible;visibility:visible;isolation:auto;mix-blend-mode:normal;color-interpolation:sRGB;color-interpolation-filters:linearRGB;solid-color:#000000;solid-opacity:1;vector-effect:none;fill:#1a1a1a;fill-opacity:1;fill-rule:nonzero;stroke:none;stroke-width:6.99999;stroke-linecap:butt;stroke-linejoin:miter;stroke-miterlimit:4;stroke-dasharray:none;stroke-dashoffset:0;stroke-opacity:1;color-rendering:auto;image-rendering:auto;shape-rendering:auto;text-rendering:auto;enable-background:accumulate;stop-color:#000000"
             d="m 1510.5156,391.99023 c -99.3182,0.0441 -197.7158,9.62314 -269.959,26.8418 -36.1062,8.60568 -65.7885,18.81491 -88.457,31.85156 -22.6677,13.03597 -42.9783,31.78666 -42.9844,59.25391 h 6.9981 c 0,-24.01907 17.7356,-40.68234 39.4765,-53.18555 21.7444,-12.50502 50.8617,-22.59928 86.5918,-31.11523 71.4225,-17.0231 169.4833,-26.60618 268.3614,-26.64844 h 0.6855 c 98.9877,8.3e-4 197.2216,9.56451 268.7813,26.58984 35.7993,8.51732 64.9745,18.61614 86.7597,31.12891 21.782,12.51092 39.5469,29.18331 39.5528,53.23047 h 6.9707 c -0.01,-27.49742 -20.3582,-46.25398 -43.0664,-59.29688 -22.7097,-13.04378 -52.4434,-23.26232 -88.6192,-31.86914 -72.3866,-17.22209 -170.9684,-26.78041 -270.4062,-26.78125 -0.2178,-3e-5 -0.4389,-3e-5 -0.6582,0 z"
             transform="matrix(0.26458333,0,0,0.26458333,721.52524,-74.542854)" />
        </g>
      </g>
    </g>
  </g>
</svg>
