<?xml version="1.0" encoding="UTF-8" standalone="no"?>
<svg
   xmlns:dc="http://purl.org/dc/elements/1.1/"
   xmlns:cc="http://creativecommons.org/ns#"
   xmlns:rdf="http://www.w3.org/1999/02/22-rdf-syntax-ns#"
   xmlns:svg="http://www.w3.org/2000/svg"
   xmlns="http://www.w3.org/2000/svg"
   xmlns:sodipodi="http://sodipodi.sourceforge.net/DTD/sodipodi-0.dtd"
   xmlns:inkscape="http://www.inkscape.org/namespaces/inkscape"
   width="1448.2289mm"
   height="1197.2661mm"
   viewBox="0 0 1448.2289 1197.2661"
   version="1.1"
   id="svg8"
   inkscape:export-filename="C:\Users\sobgo\Desktop\hitbox.png"
   inkscape:export-xdpi="25"
   inkscape:export-ydpi="25"
   sodipodi:docname="walls-top.svg"
   inkscape:version="1.0.1 (3bc2e813f5, 2020-09-07)">
  <defs
     id="defs2" />
  <sodipodi:namedview
     id="base"
     pagecolor="#ffffff"
     bordercolor="#666666"
     borderopacity="1.0"
     inkscape:pageopacity="0.0"
     inkscape:pageshadow="2"
     inkscape:zoom="1"
     inkscape:cx="1838.0392"
     inkscape:cy="2717.4731"
     inkscape:document-units="mm"
     inkscape:current-layer="layer1"
     inkscape:document-rotation="0"
     showgrid="false"
     inkscape:snap-bbox="false"
     inkscape:bbox-paths="true"
     inkscape:bbox-nodes="true"
     inkscape:snap-bbox-edge-midpoints="true"
     inkscape:snap-bbox-midpoints="true"
     inkscape:snap-object-midpoints="true"
     inkscape:snap-center="true"
     inkscape:snap-text-baseline="true"
     inkscape:snap-page="true"
     inkscape:object-paths="true"
     inkscape:snap-intersection-paths="true"
     inkscape:snap-smooth-nodes="true"
     inkscape:snap-midpoints="true"
     inkscape:window-width="1920"
     inkscape:window-height="1017"
     inkscape:window-x="1432"
     inkscape:window-y="-8"
     inkscape:window-maximized="1"
     inkscape:snap-global="true"
     inkscape:snap-nodes="true"
     inkscape:snap-others="true"
     inkscape:object-nodes="true" />
  <metadata
     id="metadata5">
    <rdf:RDF>
      <cc:Work
         rdf:about="">
        <dc:format>image/svg+xml</dc:format>
        <dc:type
           rdf:resource="http://purl.org/dc/dcmitype/StillImage" />
        <dc:title />
      </cc:Work>
    </rdf:RDF>
  </metadata>
  <g
     inkscape:label="Warstwa 1"
     inkscape:groupmode="layer"
     id="layer1"
     transform="translate(618.28111,450.46637)">
    <path
       id="path1199"
       style="display:inline;fill:#ffd284;fill-opacity:1;stroke:none;stroke-width:7.55906;stroke-linecap:square;stroke-linejoin:round;stroke-miterlimit:4;stroke-dasharray:none;stroke-opacity:1"
       d="M 1185.4453 2105.9277 L 1185.4453 2105.9297 L 1185.5879 2105.9277 L 1185.4453 2105.9277 z "
       transform="matrix(0.26458333,0,0,0.26458333,-618.28111,-450.46637)" />
    <path
       id="path36793"
       style="display:inline;fill:#ffd284;fill-opacity:1;stroke:none;stroke-width:7.55906;stroke-linecap:square;stroke-linejoin:round;stroke-miterlimit:4;stroke-dasharray:none;stroke-opacity:1"
       d="M 4252.9414 2105.9277 L 4252.7988 2105.9277 L 4252.9414 2105.9297 L 4252.9414 2105.9277 z "
       transform="matrix(0.26458333,0,0,0.26458333,-618.28111,-450.46637)" />
    <g
       id="g7147-4-1-6"
       transform="rotate(-90,272.79812,-82.697199)" />
    <path
       id="path1307-8"
       style="display:inline;fill:#ffd284;fill-opacity:1;stroke:none;stroke-width:0.876005;stroke-linecap:square;stroke-linejoin:miter;stroke-miterlimit:4;stroke-dasharray:none;stroke-dashoffset:0;stroke-opacity:1;paint-order:stroke markers fill"
       d="m -246.56944,480.04779 c 0,1.09067 -2e-5,2.18134 0,3.27201 h 28.01231 c -0.003,-1.0906 0.003,-2.18136 0.003,-3.27201 h -0.90366 -22.59045 z" />
    <rect
       style="opacity:0.997;fill:#363636;fill-opacity:1;stroke-width:5.05114"
       id="rect956"
       width="35.582851"
       height="3.5000372"
       x="-250.26793"
       y="477.63666" />
    <rect
       style="opacity:0.997;fill:#783300;fill-opacity:1;stroke-width:5.3713"
       id="rect911"
       width="28.864525"
       height="2.0003662"
       x="-247.03326"
       y="482.22922" />
    <path
       id="path1307-8-7"
       style="display:inline;fill:#ffd284;fill-opacity:1;stroke:none;stroke-width:0.876005;stroke-linecap:square;stroke-linejoin:miter;stroke-miterlimit:4;stroke-dasharray:none;stroke-dashoffset:0;stroke-opacity:1;paint-order:stroke markers fill"
       d="m -31.77841,480.04779 c 0,1.09067 -2e-5,2.18134 0,3.27201 H -3.7661 c -0.003,-1.0906 0.003,-2.18136 0.003,-3.27201 h -0.90366 -22.59045 z" />
    <rect
       style="opacity:0.997;fill:#363636;fill-opacity:1;stroke-width:5.05114"
       id="rect956-7"
       width="35.582851"
       height="3.5000372"
       x="-35.476898"
       y="477.63666" />
    <rect
       style="opacity:0.997;fill:#783300;fill-opacity:1;stroke-width:5.3713"
       id="rect911-7"
       width="28.864525"
       height="2.0003662"
       x="-32.242233"
       y="482.22922" />
    <path
       id="path1307-8-7-7"
       style="display:inline;fill:#ffd284;fill-opacity:1;stroke:none;stroke-width:0.876005;stroke-linecap:square;stroke-linejoin:miter;stroke-miterlimit:4;stroke-dasharray:none;stroke-dashoffset:0;stroke-opacity:1;paint-order:stroke markers fill"
       d="m 423.79741,479.7491 c 0,1.09067 -2e-5,2.18134 0,3.27201 h 28.01231 c -0.003,-1.0906 0.003,-2.18136 0.003,-3.27201 h -0.90366 -22.59045 z" />
    <rect
       style="opacity:0.997;fill:#363636;fill-opacity:1;stroke-width:5.05114"
       id="rect956-7-1"
       width="35.582851"
       height="3.5000372"
       x="420.09891"
       y="477.33798" />
    <rect
       style="opacity:0.997;fill:#783300;fill-opacity:1;stroke-width:5.3713"
       id="rect911-7-4"
       width="28.864525"
       height="2.0003662"
       x="423.33359"
       y="481.93054" />
    <path
       id="path1307-8-7-4"
       style="display:inline;fill:#ffd284;fill-opacity:1;stroke:none;stroke-width:0.876005;stroke-linecap:square;stroke-linejoin:miter;stroke-miterlimit:4;stroke-dasharray:none;stroke-dashoffset:0;stroke-opacity:1;paint-order:stroke markers fill"
       d="m -105.25095,552.7741 c 0,1.09067 -2e-5,2.18134 0,3.27201 h 28.01231 c -0.003,-1.0906 0.003,-2.18136 0.003,-3.27201 h -0.90366 -22.59045 z" />
    <rect
       style="opacity:0.997;fill:#363636;fill-opacity:1;stroke-width:5.05114"
       id="rect956-7-2"
       width="35.582851"
       height="3.5000372"
       x="-108.94944"
       y="550.36298" />
    <rect
       style="opacity:0.997;fill:#783300;fill-opacity:1;stroke-width:5.3713"
       id="rect911-7-6"
       width="28.864525"
       height="2.0003662"
       x="-105.71478"
       y="554.95551" />
    <path
       id="path1307-8-7-3"
       style="display:inline;fill:#ffd284;fill-opacity:1;stroke:none;stroke-width:0.876005;stroke-linecap:square;stroke-linejoin:miter;stroke-miterlimit:4;stroke-dasharray:none;stroke-dashoffset:0;stroke-opacity:1;paint-order:stroke markers fill"
       d="m 182.99193,552.80822 c 0,1.09067 -2e-5,2.18134 0,3.27201 h 28.01231 c -0.003,-1.0906 0.003,-2.18136 0.003,-3.27201 h -0.90366 -22.59045 z" />
    <rect
       style="opacity:0.997;fill:#363636;fill-opacity:1;stroke-width:5.05114"
       id="rect956-7-12"
       width="35.582851"
       height="3.5000372"
       x="179.29344"
       y="550.39709" />
    <rect
       style="opacity:0.997;fill:#783300;fill-opacity:1;stroke-width:5.3713"
       id="rect911-7-7"
       width="28.864525"
       height="2.0003662"
       x="182.52811"
       y="554.98962" />
    <path
       id="path1307-8-7-5"
       style="display:inline;fill:#ffd284;fill-opacity:1;stroke:none;stroke-width:0.876005;stroke-linecap:square;stroke-linejoin:miter;stroke-miterlimit:4;stroke-dasharray:none;stroke-dashoffset:0;stroke-opacity:1;paint-order:stroke markers fill"
       d="m -246.57512,228.31328 c 0,1.09067 -2e-5,2.18134 0,3.27201 h 28.01231 c -0.003,-1.0906 0.003,-2.18136 0.003,-3.27201 h -0.90366 -22.59045 z" />
    <rect
       style="opacity:0.997;fill:#363636;fill-opacity:1;stroke-width:5.05114"
       id="rect956-7-8"
       width="35.582851"
       height="3.5000372"
       x="-250.27361"
       y="225.90215" />
    <rect
       style="opacity:0.997;fill:#783300;fill-opacity:1;stroke-width:5.3713"
       id="rect911-7-76"
       width="28.864525"
       height="2.0003662"
       x="-247.03894"
       y="230.49471" />
    <path
       id="path1307-8-7-8"
       style="display:inline;fill:#ffd284;fill-opacity:1;stroke:none;stroke-width:0.876005;stroke-linecap:square;stroke-linejoin:miter;stroke-miterlimit:4;stroke-dasharray:none;stroke-dashoffset:0;stroke-opacity:1;paint-order:stroke markers fill"
       d="m -32.77888,228.31329 c 0,1.09067 -2e-5,2.18134 0,3.27201 h 28.01231 c -0.003,-1.0906 0.003,-2.18136 0.003,-3.27201 h -0.90366 -22.59045 z" />
    <rect
       style="opacity:0.997;fill:#363636;fill-opacity:1;stroke-width:5.05114"
       id="rect956-7-80"
       width="35.582851"
       height="3.5000372"
       x="-36.477367"
       y="225.90216" />
    <rect
       style="opacity:0.997;fill:#783300;fill-opacity:1;stroke-width:5.3713"
       id="rect911-7-5"
       width="28.864525"
       height="2.0003662"
       x="-33.242702"
       y="230.49472" />
    <path
       id="path1307-8-7-0"
       style="display:inline;fill:#ffd284;fill-opacity:1;stroke:none;stroke-width:0.876005;stroke-linecap:square;stroke-linejoin:miter;stroke-miterlimit:4;stroke-dasharray:none;stroke-dashoffset:0;stroke-opacity:1;paint-order:stroke markers fill"
       d="m 425.38491,228.31329 c 0,1.09067 -2e-5,2.18134 0,3.27201 h 28.01231 c -0.003,-1.0906 0.003,-2.18136 0.003,-3.27201 h -0.90366 -22.59045 z" />
    <rect
       style="opacity:0.997;fill:#363636;fill-opacity:1;stroke-width:5.05114"
       id="rect956-7-6"
       width="35.582851"
       height="3.5000372"
       x="421.68643"
       y="225.90216" />
    <rect
       style="opacity:0.997;fill:#783300;fill-opacity:1;stroke-width:5.3713"
       id="rect911-7-3"
       width="28.864525"
       height="2.0003662"
       x="424.92108"
       y="230.49472" />
    <path
       id="path1307-8-7-0-7"
       style="display:inline;fill:#ffd284;fill-opacity:1;stroke:none;stroke-width:0.876005;stroke-linecap:square;stroke-linejoin:miter;stroke-miterlimit:4;stroke-dasharray:none;stroke-dashoffset:0;stroke-opacity:1;paint-order:stroke markers fill"
       d="m 425.38492,-23.0556 c 0,1.09067 -2e-5,2.18134 0,3.27201 h 28.01231 c -0.003,-1.0906 0.003,-2.18136 0.003,-3.27201 h -0.90366 -22.59045 z" />
    <rect
       style="opacity:0.997;fill:#363636;fill-opacity:1;stroke-width:5.05114"
       id="rect956-7-6-9"
       width="35.582851"
       height="3.5000372"
       x="421.68643"
       y="-25.466732" />
    <rect
       style="opacity:0.997;fill:#783300;fill-opacity:1;stroke-width:5.3713"
       id="rect911-7-3-9"
       width="28.864525"
       height="2.0003662"
       x="424.92108"
       y="-20.874172" />
    <path
       id="path1307-8-7-0-2"
       style="display:inline;fill:#ffd284;fill-opacity:1;stroke:none;stroke-width:0.876005;stroke-linecap:square;stroke-linejoin:miter;stroke-miterlimit:4;stroke-dasharray:none;stroke-dashoffset:0;stroke-opacity:1;paint-order:stroke markers fill"
       d="m 124.54591,-23.0556 c 0,1.09067 -2e-5,2.18134 0,3.27201 h 28.01231 c -0.003,-1.0906 0.003,-2.18136 0.003,-3.27201 h -0.90366 -22.59045 z" />
    <rect
       style="opacity:0.997;fill:#363636;fill-opacity:1;stroke-width:5.05114"
       id="rect956-7-6-7"
       width="35.582851"
       height="3.5000372"
       x="120.84742"
       y="-25.466732" />
    <rect
       style="opacity:0.997;fill:#783300;fill-opacity:1;stroke-width:5.3713"
       id="rect911-7-3-4"
       width="28.864525"
       height="2.0003662"
       x="124.08208"
       y="-20.874172" />
    <path
       id="path1307-8-7-0-2-1"
       style="display:inline;fill:#ffd284;fill-opacity:1;stroke:none;stroke-width:0.876005;stroke-linecap:square;stroke-linejoin:miter;stroke-miterlimit:4;stroke-dasharray:none;stroke-dashoffset:0;stroke-opacity:1;paint-order:stroke markers fill"
       d="m -89.24982,-23.05584 c 0,1.09067 -2e-5,2.18134 0,3.27201 h 28.01231 c -0.003,-1.0906 0.003,-2.18136 0.003,-3.27201 h -0.90366 -22.59045 z" />
    <rect
       style="opacity:0.997;fill:#363636;fill-opacity:1;stroke-width:5.05114"
       id="rect956-7-6-7-3"
       width="35.582851"
       height="3.5000372"
       x="-92.948311"
       y="-25.466972" />
    <rect
       style="opacity:0.997;fill:#783300;fill-opacity:1;stroke-width:5.3713"
       id="rect911-7-3-4-3"
       width="28.864525"
       height="2.0003662"
       x="-89.713646"
       y="-20.874413" />
    <path
       id="path1307-8-7-0-2-1-6"
       style="display:inline;fill:#ffd284;fill-opacity:1;stroke:none;stroke-width:0.876005;stroke-linecap:square;stroke-linejoin:miter;stroke-miterlimit:4;stroke-dasharray:none;stroke-dashoffset:0;stroke-opacity:1;paint-order:stroke markers fill"
       d="m -298.05262,-268.05511 c 0,1.09067 -2e-5,2.18134 0,3.27201 h 28.01231 c -0.003,-1.0906 0.003,-2.18136 0.003,-3.27201 h -0.90366 -22.59045 z" />
    <rect
       style="opacity:0.997;fill:#363636;fill-opacity:1;stroke-width:5.05114"
       id="rect956-7-6-7-3-2"
       width="35.582851"
       height="3.5000372"
       x="-301.7511"
       y="-270.46625" />
    <rect
       style="opacity:0.997;fill:#783300;fill-opacity:1;stroke-width:5.3713"
       id="rect911-7-3-4-3-6"
       width="28.864525"
       height="2.0003662"
       x="-298.51645"
       y="-265.87369" />
  </g>
</svg>
